%TF.GenerationSoftware,KiCad,Pcbnew,9.0.1*%
%TF.CreationDate,2025-04-21T23:50:45-04:00*%
%TF.ProjectId,2025SIMPLETVC,32303235-5349-44d5-904c-455456432e6b,rev?*%
%TF.SameCoordinates,Original*%
%TF.FileFunction,Legend,Top*%
%TF.FilePolarity,Positive*%
%FSLAX46Y46*%
G04 Gerber Fmt 4.6, Leading zero omitted, Abs format (unit mm)*
G04 Created by KiCad (PCBNEW 9.0.1) date 2025-04-21 23:50:45*
%MOMM*%
%LPD*%
G01*
G04 APERTURE LIST*
G04 Aperture macros list*
%AMRoundRect*
0 Rectangle with rounded corners*
0 $1 Rounding radius*
0 $2 $3 $4 $5 $6 $7 $8 $9 X,Y pos of 4 corners*
0 Add a 4 corners polygon primitive as box body*
4,1,4,$2,$3,$4,$5,$6,$7,$8,$9,$2,$3,0*
0 Add four circle primitives for the rounded corners*
1,1,$1+$1,$2,$3*
1,1,$1+$1,$4,$5*
1,1,$1+$1,$6,$7*
1,1,$1+$1,$8,$9*
0 Add four rect primitives between the rounded corners*
20,1,$1+$1,$2,$3,$4,$5,0*
20,1,$1+$1,$4,$5,$6,$7,0*
20,1,$1+$1,$6,$7,$8,$9,0*
20,1,$1+$1,$8,$9,$2,$3,0*%
G04 Aperture macros list end*
%ADD10C,0.150000*%
%ADD11C,0.100000*%
%ADD12C,0.120000*%
%ADD13C,4.700000*%
%ADD14C,7.500000*%
%ADD15C,1.200000*%
%ADD16RoundRect,0.250000X0.600000X0.750000X-0.600000X0.750000X-0.600000X-0.750000X0.600000X-0.750000X0*%
%ADD17O,1.700000X2.000000*%
%ADD18RoundRect,0.760000X-1.140000X-1.140000X1.140000X-1.140000X1.140000X1.140000X-1.140000X1.140000X0*%
%ADD19C,4.000000*%
%ADD20C,1.700000*%
%ADD21R,1.600000X1.600000*%
%ADD22C,1.600000*%
%ADD23RoundRect,0.250000X-0.750000X0.600000X-0.750000X-0.600000X0.750000X-0.600000X0.750000X0.600000X0*%
%ADD24O,2.000000X1.700000*%
%ADD25RoundRect,0.250000X0.725000X-0.600000X0.725000X0.600000X-0.725000X0.600000X-0.725000X-0.600000X0*%
%ADD26O,1.950000X1.700000*%
%ADD27RoundRect,0.250000X-0.350000X-0.625000X0.350000X-0.625000X0.350000X0.625000X-0.350000X0.625000X0*%
%ADD28O,1.200000X1.750000*%
%ADD29RoundRect,0.250000X0.600000X0.725000X-0.600000X0.725000X-0.600000X-0.725000X0.600000X-0.725000X0*%
%ADD30O,1.700000X1.950000*%
%ADD31RoundRect,0.250000X-1.050000X-0.550000X1.050000X-0.550000X1.050000X0.550000X-1.050000X0.550000X0*%
%ADD32O,2.600000X1.600000*%
G04 APERTURE END LIST*
D10*
X174816666Y-126004819D02*
X174816666Y-126719104D01*
X174816666Y-126719104D02*
X174769047Y-126861961D01*
X174769047Y-126861961D02*
X174673809Y-126957200D01*
X174673809Y-126957200D02*
X174530952Y-127004819D01*
X174530952Y-127004819D02*
X174435714Y-127004819D01*
X175435714Y-126433390D02*
X175340476Y-126385771D01*
X175340476Y-126385771D02*
X175292857Y-126338152D01*
X175292857Y-126338152D02*
X175245238Y-126242914D01*
X175245238Y-126242914D02*
X175245238Y-126195295D01*
X175245238Y-126195295D02*
X175292857Y-126100057D01*
X175292857Y-126100057D02*
X175340476Y-126052438D01*
X175340476Y-126052438D02*
X175435714Y-126004819D01*
X175435714Y-126004819D02*
X175626190Y-126004819D01*
X175626190Y-126004819D02*
X175721428Y-126052438D01*
X175721428Y-126052438D02*
X175769047Y-126100057D01*
X175769047Y-126100057D02*
X175816666Y-126195295D01*
X175816666Y-126195295D02*
X175816666Y-126242914D01*
X175816666Y-126242914D02*
X175769047Y-126338152D01*
X175769047Y-126338152D02*
X175721428Y-126385771D01*
X175721428Y-126385771D02*
X175626190Y-126433390D01*
X175626190Y-126433390D02*
X175435714Y-126433390D01*
X175435714Y-126433390D02*
X175340476Y-126481009D01*
X175340476Y-126481009D02*
X175292857Y-126528628D01*
X175292857Y-126528628D02*
X175245238Y-126623866D01*
X175245238Y-126623866D02*
X175245238Y-126814342D01*
X175245238Y-126814342D02*
X175292857Y-126909580D01*
X175292857Y-126909580D02*
X175340476Y-126957200D01*
X175340476Y-126957200D02*
X175435714Y-127004819D01*
X175435714Y-127004819D02*
X175626190Y-127004819D01*
X175626190Y-127004819D02*
X175721428Y-126957200D01*
X175721428Y-126957200D02*
X175769047Y-126909580D01*
X175769047Y-126909580D02*
X175816666Y-126814342D01*
X175816666Y-126814342D02*
X175816666Y-126623866D01*
X175816666Y-126623866D02*
X175769047Y-126528628D01*
X175769047Y-126528628D02*
X175721428Y-126481009D01*
X175721428Y-126481009D02*
X175626190Y-126433390D01*
X143790476Y-154054819D02*
X143790476Y-154769104D01*
X143790476Y-154769104D02*
X143742857Y-154911961D01*
X143742857Y-154911961D02*
X143647619Y-155007200D01*
X143647619Y-155007200D02*
X143504762Y-155054819D01*
X143504762Y-155054819D02*
X143409524Y-155054819D01*
X144790476Y-155054819D02*
X144219048Y-155054819D01*
X144504762Y-155054819D02*
X144504762Y-154054819D01*
X144504762Y-154054819D02*
X144409524Y-154197676D01*
X144409524Y-154197676D02*
X144314286Y-154292914D01*
X144314286Y-154292914D02*
X144219048Y-154340533D01*
X145409524Y-154054819D02*
X145504762Y-154054819D01*
X145504762Y-154054819D02*
X145600000Y-154102438D01*
X145600000Y-154102438D02*
X145647619Y-154150057D01*
X145647619Y-154150057D02*
X145695238Y-154245295D01*
X145695238Y-154245295D02*
X145742857Y-154435771D01*
X145742857Y-154435771D02*
X145742857Y-154673866D01*
X145742857Y-154673866D02*
X145695238Y-154864342D01*
X145695238Y-154864342D02*
X145647619Y-154959580D01*
X145647619Y-154959580D02*
X145600000Y-155007200D01*
X145600000Y-155007200D02*
X145504762Y-155054819D01*
X145504762Y-155054819D02*
X145409524Y-155054819D01*
X145409524Y-155054819D02*
X145314286Y-155007200D01*
X145314286Y-155007200D02*
X145266667Y-154959580D01*
X145266667Y-154959580D02*
X145219048Y-154864342D01*
X145219048Y-154864342D02*
X145171429Y-154673866D01*
X145171429Y-154673866D02*
X145171429Y-154435771D01*
X145171429Y-154435771D02*
X145219048Y-154245295D01*
X145219048Y-154245295D02*
X145266667Y-154150057D01*
X145266667Y-154150057D02*
X145314286Y-154102438D01*
X145314286Y-154102438D02*
X145409524Y-154054819D01*
X146928571Y-154814700D02*
X148071429Y-154814700D01*
X159928571Y-154814700D02*
X161071429Y-154814700D01*
X160500000Y-155386128D02*
X160500000Y-154243271D01*
D11*
X166138095Y-49357419D02*
X166138095Y-50166942D01*
X166138095Y-50166942D02*
X166185714Y-50262180D01*
X166185714Y-50262180D02*
X166233333Y-50309800D01*
X166233333Y-50309800D02*
X166328571Y-50357419D01*
X166328571Y-50357419D02*
X166519047Y-50357419D01*
X166519047Y-50357419D02*
X166614285Y-50309800D01*
X166614285Y-50309800D02*
X166661904Y-50262180D01*
X166661904Y-50262180D02*
X166709523Y-50166942D01*
X166709523Y-50166942D02*
X166709523Y-49357419D01*
X167138095Y-49452657D02*
X167185714Y-49405038D01*
X167185714Y-49405038D02*
X167280952Y-49357419D01*
X167280952Y-49357419D02*
X167519047Y-49357419D01*
X167519047Y-49357419D02*
X167614285Y-49405038D01*
X167614285Y-49405038D02*
X167661904Y-49452657D01*
X167661904Y-49452657D02*
X167709523Y-49547895D01*
X167709523Y-49547895D02*
X167709523Y-49643133D01*
X167709523Y-49643133D02*
X167661904Y-49785990D01*
X167661904Y-49785990D02*
X167090476Y-50357419D01*
X167090476Y-50357419D02*
X167709523Y-50357419D01*
D10*
X147533333Y-147059580D02*
X147485714Y-147107200D01*
X147485714Y-147107200D02*
X147342857Y-147154819D01*
X147342857Y-147154819D02*
X147247619Y-147154819D01*
X147247619Y-147154819D02*
X147104762Y-147107200D01*
X147104762Y-147107200D02*
X147009524Y-147011961D01*
X147009524Y-147011961D02*
X146961905Y-146916723D01*
X146961905Y-146916723D02*
X146914286Y-146726247D01*
X146914286Y-146726247D02*
X146914286Y-146583390D01*
X146914286Y-146583390D02*
X146961905Y-146392914D01*
X146961905Y-146392914D02*
X147009524Y-146297676D01*
X147009524Y-146297676D02*
X147104762Y-146202438D01*
X147104762Y-146202438D02*
X147247619Y-146154819D01*
X147247619Y-146154819D02*
X147342857Y-146154819D01*
X147342857Y-146154819D02*
X147485714Y-146202438D01*
X147485714Y-146202438D02*
X147533333Y-146250057D01*
X148485714Y-147154819D02*
X147914286Y-147154819D01*
X148200000Y-147154819D02*
X148200000Y-146154819D01*
X148200000Y-146154819D02*
X148104762Y-146297676D01*
X148104762Y-146297676D02*
X148009524Y-146392914D01*
X148009524Y-146392914D02*
X147914286Y-146440533D01*
X178604819Y-141783333D02*
X179319104Y-141783333D01*
X179319104Y-141783333D02*
X179461961Y-141830952D01*
X179461961Y-141830952D02*
X179557200Y-141926190D01*
X179557200Y-141926190D02*
X179604819Y-142069047D01*
X179604819Y-142069047D02*
X179604819Y-142164285D01*
X178604819Y-140830952D02*
X178604819Y-141307142D01*
X178604819Y-141307142D02*
X179081009Y-141354761D01*
X179081009Y-141354761D02*
X179033390Y-141307142D01*
X179033390Y-141307142D02*
X178985771Y-141211904D01*
X178985771Y-141211904D02*
X178985771Y-140973809D01*
X178985771Y-140973809D02*
X179033390Y-140878571D01*
X179033390Y-140878571D02*
X179081009Y-140830952D01*
X179081009Y-140830952D02*
X179176247Y-140783333D01*
X179176247Y-140783333D02*
X179414342Y-140783333D01*
X179414342Y-140783333D02*
X179509580Y-140830952D01*
X179509580Y-140830952D02*
X179557200Y-140878571D01*
X179557200Y-140878571D02*
X179604819Y-140973809D01*
X179604819Y-140973809D02*
X179604819Y-141211904D01*
X179604819Y-141211904D02*
X179557200Y-141307142D01*
X179557200Y-141307142D02*
X179509580Y-141354761D01*
X135604819Y-141383333D02*
X136319104Y-141383333D01*
X136319104Y-141383333D02*
X136461961Y-141430952D01*
X136461961Y-141430952D02*
X136557200Y-141526190D01*
X136557200Y-141526190D02*
X136604819Y-141669047D01*
X136604819Y-141669047D02*
X136604819Y-141764285D01*
X135938152Y-140478571D02*
X136604819Y-140478571D01*
X135557200Y-140716666D02*
X136271485Y-140954761D01*
X136271485Y-140954761D02*
X136271485Y-140335714D01*
X129979819Y-121633333D02*
X130694104Y-121633333D01*
X130694104Y-121633333D02*
X130836961Y-121680952D01*
X130836961Y-121680952D02*
X130932200Y-121776190D01*
X130932200Y-121776190D02*
X130979819Y-121919047D01*
X130979819Y-121919047D02*
X130979819Y-122014285D01*
X130075057Y-121204761D02*
X130027438Y-121157142D01*
X130027438Y-121157142D02*
X129979819Y-121061904D01*
X129979819Y-121061904D02*
X129979819Y-120823809D01*
X129979819Y-120823809D02*
X130027438Y-120728571D01*
X130027438Y-120728571D02*
X130075057Y-120680952D01*
X130075057Y-120680952D02*
X130170295Y-120633333D01*
X130170295Y-120633333D02*
X130265533Y-120633333D01*
X130265533Y-120633333D02*
X130408390Y-120680952D01*
X130408390Y-120680952D02*
X130979819Y-121252380D01*
X130979819Y-121252380D02*
X130979819Y-120633333D01*
X158966666Y-22454819D02*
X158966666Y-23169104D01*
X158966666Y-23169104D02*
X158919047Y-23311961D01*
X158919047Y-23311961D02*
X158823809Y-23407200D01*
X158823809Y-23407200D02*
X158680952Y-23454819D01*
X158680952Y-23454819D02*
X158585714Y-23454819D01*
X159347619Y-22454819D02*
X160014285Y-22454819D01*
X160014285Y-22454819D02*
X159585714Y-23454819D01*
D11*
X165988095Y-74057419D02*
X165988095Y-74866942D01*
X165988095Y-74866942D02*
X166035714Y-74962180D01*
X166035714Y-74962180D02*
X166083333Y-75009800D01*
X166083333Y-75009800D02*
X166178571Y-75057419D01*
X166178571Y-75057419D02*
X166369047Y-75057419D01*
X166369047Y-75057419D02*
X166464285Y-75009800D01*
X166464285Y-75009800D02*
X166511904Y-74962180D01*
X166511904Y-74962180D02*
X166559523Y-74866942D01*
X166559523Y-74866942D02*
X166559523Y-74057419D01*
X166940476Y-74057419D02*
X167607142Y-74057419D01*
X167607142Y-74057419D02*
X167178571Y-75057419D01*
X168542580Y-98338095D02*
X167733057Y-98338095D01*
X167733057Y-98338095D02*
X167637819Y-98385714D01*
X167637819Y-98385714D02*
X167590200Y-98433333D01*
X167590200Y-98433333D02*
X167542580Y-98528571D01*
X167542580Y-98528571D02*
X167542580Y-98719047D01*
X167542580Y-98719047D02*
X167590200Y-98814285D01*
X167590200Y-98814285D02*
X167637819Y-98861904D01*
X167637819Y-98861904D02*
X167733057Y-98909523D01*
X167733057Y-98909523D02*
X168542580Y-98909523D01*
X168542580Y-99290476D02*
X168542580Y-99909523D01*
X168542580Y-99909523D02*
X168161628Y-99576190D01*
X168161628Y-99576190D02*
X168161628Y-99719047D01*
X168161628Y-99719047D02*
X168114009Y-99814285D01*
X168114009Y-99814285D02*
X168066390Y-99861904D01*
X168066390Y-99861904D02*
X167971152Y-99909523D01*
X167971152Y-99909523D02*
X167733057Y-99909523D01*
X167733057Y-99909523D02*
X167637819Y-99861904D01*
X167637819Y-99861904D02*
X167590200Y-99814285D01*
X167590200Y-99814285D02*
X167542580Y-99719047D01*
X167542580Y-99719047D02*
X167542580Y-99433333D01*
X167542580Y-99433333D02*
X167590200Y-99338095D01*
X167590200Y-99338095D02*
X167637819Y-99290476D01*
X138448095Y-93907419D02*
X138448095Y-94716942D01*
X138448095Y-94716942D02*
X138495714Y-94812180D01*
X138495714Y-94812180D02*
X138543333Y-94859800D01*
X138543333Y-94859800D02*
X138638571Y-94907419D01*
X138638571Y-94907419D02*
X138829047Y-94907419D01*
X138829047Y-94907419D02*
X138924285Y-94859800D01*
X138924285Y-94859800D02*
X138971904Y-94812180D01*
X138971904Y-94812180D02*
X139019523Y-94716942D01*
X139019523Y-94716942D02*
X139019523Y-93907419D01*
X139924285Y-94240752D02*
X139924285Y-94907419D01*
X139686190Y-93859800D02*
X139448095Y-94574085D01*
X139448095Y-94574085D02*
X140067142Y-94574085D01*
D10*
X174716666Y-135704819D02*
X174716666Y-136419104D01*
X174716666Y-136419104D02*
X174669047Y-136561961D01*
X174669047Y-136561961D02*
X174573809Y-136657200D01*
X174573809Y-136657200D02*
X174430952Y-136704819D01*
X174430952Y-136704819D02*
X174335714Y-136704819D01*
X175621428Y-135704819D02*
X175430952Y-135704819D01*
X175430952Y-135704819D02*
X175335714Y-135752438D01*
X175335714Y-135752438D02*
X175288095Y-135800057D01*
X175288095Y-135800057D02*
X175192857Y-135942914D01*
X175192857Y-135942914D02*
X175145238Y-136133390D01*
X175145238Y-136133390D02*
X175145238Y-136514342D01*
X175145238Y-136514342D02*
X175192857Y-136609580D01*
X175192857Y-136609580D02*
X175240476Y-136657200D01*
X175240476Y-136657200D02*
X175335714Y-136704819D01*
X175335714Y-136704819D02*
X175526190Y-136704819D01*
X175526190Y-136704819D02*
X175621428Y-136657200D01*
X175621428Y-136657200D02*
X175669047Y-136609580D01*
X175669047Y-136609580D02*
X175716666Y-136514342D01*
X175716666Y-136514342D02*
X175716666Y-136276247D01*
X175716666Y-136276247D02*
X175669047Y-136181009D01*
X175669047Y-136181009D02*
X175621428Y-136133390D01*
X175621428Y-136133390D02*
X175526190Y-136085771D01*
X175526190Y-136085771D02*
X175335714Y-136085771D01*
X175335714Y-136085771D02*
X175240476Y-136133390D01*
X175240476Y-136133390D02*
X175192857Y-136181009D01*
X175192857Y-136181009D02*
X175145238Y-136276247D01*
X133866666Y-135304819D02*
X133866666Y-136019104D01*
X133866666Y-136019104D02*
X133819047Y-136161961D01*
X133819047Y-136161961D02*
X133723809Y-136257200D01*
X133723809Y-136257200D02*
X133580952Y-136304819D01*
X133580952Y-136304819D02*
X133485714Y-136304819D01*
X134247619Y-135304819D02*
X134866666Y-135304819D01*
X134866666Y-135304819D02*
X134533333Y-135685771D01*
X134533333Y-135685771D02*
X134676190Y-135685771D01*
X134676190Y-135685771D02*
X134771428Y-135733390D01*
X134771428Y-135733390D02*
X134819047Y-135781009D01*
X134819047Y-135781009D02*
X134866666Y-135876247D01*
X134866666Y-135876247D02*
X134866666Y-136114342D01*
X134866666Y-136114342D02*
X134819047Y-136209580D01*
X134819047Y-136209580D02*
X134771428Y-136257200D01*
X134771428Y-136257200D02*
X134676190Y-136304819D01*
X134676190Y-136304819D02*
X134390476Y-136304819D01*
X134390476Y-136304819D02*
X134295238Y-136257200D01*
X134295238Y-136257200D02*
X134247619Y-136209580D01*
X139393214Y-28499104D02*
X139869404Y-28499104D01*
X139297976Y-28784819D02*
X139631309Y-27784819D01*
X139631309Y-27784819D02*
X139964642Y-28784819D01*
X140821785Y-28784819D02*
X140250357Y-28784819D01*
X140536071Y-28784819D02*
X140536071Y-27784819D01*
X140536071Y-27784819D02*
X140440833Y-27927676D01*
X140440833Y-27927676D02*
X140345595Y-28022914D01*
X140345595Y-28022914D02*
X140250357Y-28070533D01*
D12*
%TO.C,J8*%
X171340000Y-119490000D02*
X171340000Y-125460000D01*
X171340000Y-125460000D02*
X178960000Y-125460000D01*
X171350000Y-123200000D02*
X172100000Y-123200000D01*
X171350000Y-124700000D02*
X171350000Y-125450000D01*
X171350000Y-125450000D02*
X173150000Y-125450000D01*
X172100000Y-120250000D02*
X175150000Y-120250000D01*
X172100000Y-123200000D02*
X172100000Y-120250000D01*
X173150000Y-124700000D02*
X171350000Y-124700000D01*
X173150000Y-125450000D02*
X173150000Y-124700000D01*
X174650000Y-124700000D02*
X174650000Y-125450000D01*
X174650000Y-125450000D02*
X175650000Y-125450000D01*
X175150000Y-120250000D02*
X177140000Y-120250000D01*
X175650000Y-124700000D02*
X174650000Y-124700000D01*
X175650000Y-125450000D02*
X175650000Y-124700000D01*
X177150000Y-124700000D02*
X177150000Y-125450000D01*
X177150000Y-125450000D02*
X178950000Y-125450000D01*
X178000000Y-125750000D02*
X179250000Y-125750000D01*
X178200000Y-123200000D02*
X178200000Y-121860000D01*
X178950000Y-123200000D02*
X178200000Y-123200000D01*
X178950000Y-124700000D02*
X177150000Y-124700000D01*
X178950000Y-125450000D02*
X178950000Y-124700000D01*
X178960000Y-119490000D02*
X171340000Y-119490000D01*
X178960000Y-125460000D02*
X178960000Y-119490000D01*
X179250000Y-125750000D02*
X179250000Y-124500000D01*
%TO.C,J10*%
X148790000Y-153290000D02*
X148790000Y-156110000D01*
X148790000Y-153290000D02*
X150490000Y-151990000D01*
X148790000Y-156110000D02*
X150490000Y-157410000D01*
X150490000Y-151990000D02*
X159210000Y-151990000D01*
X150490000Y-157410000D02*
X159210000Y-157410000D01*
X159210000Y-151990000D02*
X159210000Y-157410000D01*
%TO.C,U2*%
D11*
X154200000Y-38970000D02*
X179600000Y-38970000D01*
X179600000Y-61830000D01*
X154200000Y-61830000D01*
X154200000Y-38970000D01*
D12*
%TO.C,C1*%
X149622651Y-146333000D02*
X149622651Y-145267000D01*
X149662651Y-146568000D02*
X149662651Y-145032000D01*
X149702651Y-146747000D02*
X149702651Y-144853000D01*
X149742651Y-146897000D02*
X149742651Y-144703000D01*
X149782651Y-147028000D02*
X149782651Y-144572000D01*
X149822651Y-147146000D02*
X149822651Y-144454000D01*
X149862651Y-147253000D02*
X149862651Y-144347000D01*
X149902651Y-147352000D02*
X149902651Y-144248000D01*
X149942651Y-147444000D02*
X149942651Y-144156000D01*
X149982651Y-147531000D02*
X149982651Y-144069000D01*
X150022651Y-147613000D02*
X150022651Y-143987000D01*
X150062651Y-147690000D02*
X150062651Y-143910000D01*
X150102651Y-147764000D02*
X150102651Y-143836000D01*
X150142651Y-147834000D02*
X150142651Y-143766000D01*
X150182651Y-144760000D02*
X150182651Y-143699000D01*
X150182651Y-147901000D02*
X150182651Y-146840000D01*
X150222651Y-144760000D02*
X150222651Y-143635000D01*
X150222651Y-147965000D02*
X150222651Y-146840000D01*
X150262651Y-144760000D02*
X150262651Y-143573000D01*
X150262651Y-148027000D02*
X150262651Y-146840000D01*
X150302651Y-144760000D02*
X150302651Y-143513000D01*
X150302651Y-148087000D02*
X150302651Y-146840000D01*
X150342651Y-144760000D02*
X150342651Y-143456000D01*
X150342651Y-148144000D02*
X150342651Y-146840000D01*
X150382651Y-144760000D02*
X150382651Y-143400000D01*
X150382651Y-148200000D02*
X150382651Y-146840000D01*
X150422651Y-144760000D02*
X150422651Y-143347000D01*
X150422651Y-148253000D02*
X150422651Y-146840000D01*
X150462651Y-144760000D02*
X150462651Y-143295000D01*
X150462651Y-148305000D02*
X150462651Y-146840000D01*
X150502651Y-144760000D02*
X150502651Y-143245000D01*
X150502651Y-148355000D02*
X150502651Y-146840000D01*
X150542651Y-144760000D02*
X150542651Y-143196000D01*
X150542651Y-148404000D02*
X150542651Y-146840000D01*
X150582651Y-144760000D02*
X150582651Y-143149000D01*
X150582651Y-148451000D02*
X150582651Y-146840000D01*
X150622651Y-144760000D02*
X150622651Y-143104000D01*
X150622651Y-148496000D02*
X150622651Y-146840000D01*
X150662651Y-144760000D02*
X150662651Y-143059000D01*
X150662651Y-148541000D02*
X150662651Y-146840000D01*
X150702651Y-144760000D02*
X150702651Y-143016000D01*
X150702651Y-148584000D02*
X150702651Y-146840000D01*
X150742651Y-144760000D02*
X150742651Y-142974000D01*
X150742651Y-148626000D02*
X150742651Y-146840000D01*
X150782651Y-144760000D02*
X150782651Y-142933000D01*
X150782651Y-148667000D02*
X150782651Y-146840000D01*
X150822651Y-144760000D02*
X150822651Y-142894000D01*
X150822651Y-148706000D02*
X150822651Y-146840000D01*
X150862651Y-144760000D02*
X150862651Y-142855000D01*
X150862651Y-148745000D02*
X150862651Y-146840000D01*
X150902651Y-144760000D02*
X150902651Y-142818000D01*
X150902651Y-148782000D02*
X150902651Y-146840000D01*
X150942651Y-144760000D02*
X150942651Y-142781000D01*
X150942651Y-148819000D02*
X150942651Y-146840000D01*
X150982651Y-144760000D02*
X150982651Y-142745000D01*
X150982651Y-148855000D02*
X150982651Y-146840000D01*
X151022651Y-144760000D02*
X151022651Y-142711000D01*
X151022651Y-148889000D02*
X151022651Y-146840000D01*
X151062651Y-144760000D02*
X151062651Y-142677000D01*
X151062651Y-148923000D02*
X151062651Y-146840000D01*
X151102651Y-144760000D02*
X151102651Y-142644000D01*
X151102651Y-148956000D02*
X151102651Y-146840000D01*
X151142651Y-144760000D02*
X151142651Y-142612000D01*
X151142651Y-148988000D02*
X151142651Y-146840000D01*
X151182651Y-144760000D02*
X151182651Y-142581000D01*
X151182651Y-149019000D02*
X151182651Y-146840000D01*
X151222651Y-144760000D02*
X151222651Y-142550000D01*
X151222651Y-149050000D02*
X151222651Y-146840000D01*
X151262651Y-144760000D02*
X151262651Y-142520000D01*
X151262651Y-149080000D02*
X151262651Y-146840000D01*
X151302651Y-144760000D02*
X151302651Y-142491000D01*
X151302651Y-149109000D02*
X151302651Y-146840000D01*
X151342651Y-144760000D02*
X151342651Y-142463000D01*
X151342651Y-149137000D02*
X151342651Y-146840000D01*
X151382651Y-144760000D02*
X151382651Y-142435000D01*
X151382651Y-149165000D02*
X151382651Y-146840000D01*
X151422651Y-144760000D02*
X151422651Y-142408000D01*
X151422651Y-149192000D02*
X151422651Y-146840000D01*
X151462651Y-144760000D02*
X151462651Y-142382000D01*
X151462651Y-149218000D02*
X151462651Y-146840000D01*
X151502651Y-144760000D02*
X151502651Y-142357000D01*
X151502651Y-149243000D02*
X151502651Y-146840000D01*
X151542651Y-144760000D02*
X151542651Y-142332000D01*
X151542651Y-149268000D02*
X151542651Y-146840000D01*
X151582651Y-144760000D02*
X151582651Y-142307000D01*
X151582651Y-149293000D02*
X151582651Y-146840000D01*
X151622651Y-144760000D02*
X151622651Y-142284000D01*
X151622651Y-149316000D02*
X151622651Y-146840000D01*
X151662651Y-144760000D02*
X151662651Y-142261000D01*
X151662651Y-149339000D02*
X151662651Y-146840000D01*
X151702651Y-144760000D02*
X151702651Y-142238000D01*
X151702651Y-149362000D02*
X151702651Y-146840000D01*
X151742651Y-144760000D02*
X151742651Y-142216000D01*
X151742651Y-149384000D02*
X151742651Y-146840000D01*
X151782651Y-144760000D02*
X151782651Y-142195000D01*
X151782651Y-149405000D02*
X151782651Y-146840000D01*
X151822651Y-144760000D02*
X151822651Y-142174000D01*
X151822651Y-149426000D02*
X151822651Y-146840000D01*
X151862651Y-144760000D02*
X151862651Y-142154000D01*
X151862651Y-149446000D02*
X151862651Y-146840000D01*
X151902651Y-144760000D02*
X151902651Y-142134000D01*
X151902651Y-149466000D02*
X151902651Y-146840000D01*
X151942651Y-144760000D02*
X151942651Y-142115000D01*
X151942651Y-149485000D02*
X151942651Y-146840000D01*
X151982651Y-144760000D02*
X151982651Y-142096000D01*
X151982651Y-149504000D02*
X151982651Y-146840000D01*
X152022651Y-144760000D02*
X152022651Y-142078000D01*
X152022651Y-149522000D02*
X152022651Y-146840000D01*
X152062651Y-144760000D02*
X152062651Y-142060000D01*
X152062651Y-149540000D02*
X152062651Y-146840000D01*
X152102651Y-144760000D02*
X152102651Y-142043000D01*
X152102651Y-149557000D02*
X152102651Y-146840000D01*
X152142651Y-144760000D02*
X152142651Y-142027000D01*
X152142651Y-149573000D02*
X152142651Y-146840000D01*
X152182651Y-144760000D02*
X152182651Y-142011000D01*
X152182651Y-149589000D02*
X152182651Y-146840000D01*
X152222651Y-144760000D02*
X152222651Y-141995000D01*
X152222651Y-149605000D02*
X152222651Y-146840000D01*
X152262651Y-149620000D02*
X152262651Y-141980000D01*
X152302651Y-149635000D02*
X152302651Y-141965000D01*
X152342651Y-149649000D02*
X152342651Y-141951000D01*
X152382651Y-149663000D02*
X152382651Y-141937000D01*
X152422651Y-149676000D02*
X152422651Y-141924000D01*
X152462651Y-149689000D02*
X152462651Y-141911000D01*
X152502651Y-149701000D02*
X152502651Y-141899000D01*
X152542651Y-149713000D02*
X152542651Y-141887000D01*
X152582651Y-149725000D02*
X152582651Y-141875000D01*
X152622651Y-149736000D02*
X152622651Y-141864000D01*
X152662651Y-149747000D02*
X152662651Y-141853000D01*
X152702651Y-149757000D02*
X152702651Y-141843000D01*
X152742651Y-149767000D02*
X152742651Y-141833000D01*
X152782651Y-149776000D02*
X152782651Y-141824000D01*
X152822651Y-149785000D02*
X152822651Y-141815000D01*
X152862651Y-149793000D02*
X152862651Y-141807000D01*
X152902651Y-149802000D02*
X152902651Y-141798000D01*
X152942651Y-149809000D02*
X152942651Y-141791000D01*
X152982651Y-149817000D02*
X152982651Y-141783000D01*
X153022651Y-149823000D02*
X153022651Y-141777000D01*
X153062651Y-149830000D02*
X153062651Y-141770000D01*
X153102651Y-149836000D02*
X153102651Y-141764000D01*
X153142651Y-149842000D02*
X153142651Y-141758000D01*
X153182651Y-149847000D02*
X153182651Y-141753000D01*
X153222651Y-149852000D02*
X153222651Y-141748000D01*
X153262651Y-149856000D02*
X153262651Y-141744000D01*
X153302651Y-149861000D02*
X153302651Y-141739000D01*
X153342651Y-149864000D02*
X153342651Y-141736000D01*
X153382651Y-149868000D02*
X153382651Y-141732000D01*
X153422651Y-149870000D02*
X153422651Y-141730000D01*
X153462651Y-149873000D02*
X153462651Y-141727000D01*
X153502651Y-149875000D02*
X153502651Y-141725000D01*
X153542651Y-149877000D02*
X153542651Y-141723000D01*
X153582651Y-149878000D02*
X153582651Y-141722000D01*
X153622651Y-149879000D02*
X153622651Y-141721000D01*
X153662651Y-149880000D02*
X153662651Y-141720000D01*
X153702651Y-149880000D02*
X153702651Y-141720000D01*
X157712349Y-148515000D02*
X157712349Y-147715000D01*
X158112349Y-148115000D02*
X157312349Y-148115000D01*
X157822651Y-145800000D02*
G75*
G02*
X149582651Y-145800000I-4120000J0D01*
G01*
X149582651Y-145800000D02*
G75*
G02*
X157822651Y-145800000I4120000J0D01*
G01*
%TO.C,J5*%
X172090000Y-137640000D02*
X172090000Y-145260000D01*
X172090000Y-145260000D02*
X178060000Y-145260000D01*
X172850000Y-141450000D02*
X172850000Y-139460000D01*
X172850000Y-144500000D02*
X172850000Y-141450000D01*
X175800000Y-137650000D02*
X175800000Y-138400000D01*
X175800000Y-138400000D02*
X174460000Y-138400000D01*
X175800000Y-144500000D02*
X172850000Y-144500000D01*
X175800000Y-145250000D02*
X175800000Y-144500000D01*
X177300000Y-137650000D02*
X177300000Y-139450000D01*
X177300000Y-139450000D02*
X178050000Y-139450000D01*
X177300000Y-140950000D02*
X177300000Y-141950000D01*
X177300000Y-141950000D02*
X178050000Y-141950000D01*
X177300000Y-143450000D02*
X177300000Y-145250000D01*
X177300000Y-145250000D02*
X178050000Y-145250000D01*
X178050000Y-137650000D02*
X177300000Y-137650000D01*
X178050000Y-139450000D02*
X178050000Y-137650000D01*
X178050000Y-140950000D02*
X177300000Y-140950000D01*
X178050000Y-141950000D02*
X178050000Y-140950000D01*
X178050000Y-143450000D02*
X177300000Y-143450000D01*
X178050000Y-145250000D02*
X178050000Y-143450000D01*
X178060000Y-137640000D02*
X172090000Y-137640000D01*
X178060000Y-145260000D02*
X178060000Y-137640000D01*
X178350000Y-137350000D02*
X177100000Y-137350000D01*
X178350000Y-138600000D02*
X178350000Y-137350000D01*
%TO.C,J4*%
X129090000Y-137240000D02*
X129090000Y-144860000D01*
X129090000Y-144860000D02*
X135060000Y-144860000D01*
X129850000Y-141050000D02*
X129850000Y-139060000D01*
X129850000Y-144100000D02*
X129850000Y-141050000D01*
X132800000Y-137250000D02*
X132800000Y-138000000D01*
X132800000Y-138000000D02*
X131460000Y-138000000D01*
X132800000Y-144100000D02*
X129850000Y-144100000D01*
X132800000Y-144850000D02*
X132800000Y-144100000D01*
X134300000Y-137250000D02*
X134300000Y-139050000D01*
X134300000Y-139050000D02*
X135050000Y-139050000D01*
X134300000Y-140550000D02*
X134300000Y-141550000D01*
X134300000Y-141550000D02*
X135050000Y-141550000D01*
X134300000Y-143050000D02*
X134300000Y-144850000D01*
X134300000Y-144850000D02*
X135050000Y-144850000D01*
X135050000Y-137250000D02*
X134300000Y-137250000D01*
X135050000Y-139050000D02*
X135050000Y-137250000D01*
X135050000Y-140550000D02*
X134300000Y-140550000D01*
X135050000Y-141550000D02*
X135050000Y-140550000D01*
X135050000Y-143050000D02*
X134300000Y-143050000D01*
X135050000Y-144850000D02*
X135050000Y-143050000D01*
X135060000Y-137240000D02*
X129090000Y-137240000D01*
X135060000Y-144860000D02*
X135060000Y-137240000D01*
X135350000Y-136950000D02*
X134100000Y-136950000D01*
X135350000Y-138200000D02*
X135350000Y-136950000D01*
%TO.C,J2*%
X131325000Y-125400000D02*
X131325000Y-126650000D01*
X131325000Y-126650000D02*
X132575000Y-126650000D01*
X131615000Y-116240000D02*
X131615000Y-126360000D01*
X131615000Y-126360000D02*
X137585000Y-126360000D01*
X131625000Y-116250000D02*
X131625000Y-118050000D01*
X131625000Y-118050000D02*
X132375000Y-118050000D01*
X131625000Y-119550000D02*
X131625000Y-123050000D01*
X131625000Y-123050000D02*
X132375000Y-123050000D01*
X131625000Y-124550000D02*
X131625000Y-126350000D01*
X131625000Y-126350000D02*
X132375000Y-126350000D01*
X132375000Y-116250000D02*
X131625000Y-116250000D01*
X132375000Y-118050000D02*
X132375000Y-116250000D01*
X132375000Y-119550000D02*
X131625000Y-119550000D01*
X132375000Y-123050000D02*
X132375000Y-119550000D01*
X132375000Y-124550000D02*
X131625000Y-124550000D01*
X132375000Y-126350000D02*
X132375000Y-124550000D01*
X133875000Y-116250000D02*
X133875000Y-117000000D01*
X133875000Y-117000000D02*
X136825000Y-117000000D01*
X133875000Y-125600000D02*
X135215000Y-125600000D01*
X133875000Y-126350000D02*
X133875000Y-125600000D01*
X136825000Y-117000000D02*
X136825000Y-121300000D01*
X136825000Y-121300000D02*
X136825000Y-124540000D01*
X137585000Y-116240000D02*
X131615000Y-116240000D01*
X137585000Y-126360000D02*
X137585000Y-116240000D01*
%TO.C,J7*%
X153940000Y-23790000D02*
X153940000Y-25040000D01*
X154240000Y-24090000D02*
X154240000Y-28810000D01*
X154240000Y-25400000D02*
X154850000Y-25400000D01*
X154240000Y-26700000D02*
X154850000Y-26700000D01*
X154240000Y-28810000D02*
X164360000Y-28810000D01*
X154850000Y-24700000D02*
X154850000Y-28200000D01*
X154850000Y-28200000D02*
X163750000Y-28200000D01*
X155190000Y-23790000D02*
X153940000Y-23790000D01*
X155700000Y-23890000D02*
X155700000Y-24090000D01*
X156000000Y-23890000D02*
X155700000Y-23890000D01*
X156000000Y-23990000D02*
X155700000Y-23990000D01*
X156000000Y-24090000D02*
X156000000Y-23890000D01*
X156800000Y-24090000D02*
X156800000Y-24700000D01*
X156800000Y-24700000D02*
X154850000Y-24700000D01*
X157200000Y-27700000D02*
X157400000Y-27700000D01*
X157200000Y-28200000D02*
X157200000Y-27700000D01*
X157300000Y-28200000D02*
X157300000Y-27700000D01*
X157400000Y-27700000D02*
X157400000Y-28200000D01*
X159200000Y-27700000D02*
X159400000Y-27700000D01*
X159200000Y-28200000D02*
X159200000Y-27700000D01*
X159300000Y-28200000D02*
X159300000Y-27700000D01*
X159400000Y-27700000D02*
X159400000Y-28200000D01*
X161200000Y-27700000D02*
X161400000Y-27700000D01*
X161200000Y-28200000D02*
X161200000Y-27700000D01*
X161300000Y-28200000D02*
X161300000Y-27700000D01*
X161400000Y-27700000D02*
X161400000Y-28200000D01*
X161800000Y-24700000D02*
X161800000Y-24090000D01*
X163750000Y-24700000D02*
X161800000Y-24700000D01*
X163750000Y-28200000D02*
X163750000Y-24700000D01*
X164360000Y-24090000D02*
X154240000Y-24090000D01*
X164360000Y-25400000D02*
X163750000Y-25400000D01*
X164360000Y-26700000D02*
X163750000Y-26700000D01*
X164360000Y-28810000D02*
X164360000Y-24090000D01*
%TO.C,U7*%
D11*
X154050000Y-66210000D02*
X179450000Y-66210000D01*
X179450000Y-83990000D01*
X154050000Y-83990000D01*
X154050000Y-66210000D01*
%TO.C,U3*%
X178930000Y-86400000D02*
X156070000Y-86400000D01*
X156070000Y-111800000D01*
X178930000Y-111800000D01*
X178930000Y-86400000D01*
%TO.C,U4*%
X126510000Y-86060000D02*
X151910000Y-86060000D01*
X151910000Y-103840000D01*
X126510000Y-103840000D01*
X126510000Y-86060000D01*
D12*
%TO.C,J6*%
X171240000Y-129190000D02*
X171240000Y-135160000D01*
X171240000Y-135160000D02*
X178860000Y-135160000D01*
X171250000Y-132900000D02*
X172000000Y-132900000D01*
X171250000Y-134400000D02*
X171250000Y-135150000D01*
X171250000Y-135150000D02*
X173050000Y-135150000D01*
X172000000Y-129950000D02*
X175050000Y-129950000D01*
X172000000Y-132900000D02*
X172000000Y-129950000D01*
X173050000Y-134400000D02*
X171250000Y-134400000D01*
X173050000Y-135150000D02*
X173050000Y-134400000D01*
X174550000Y-134400000D02*
X174550000Y-135150000D01*
X174550000Y-135150000D02*
X175550000Y-135150000D01*
X175050000Y-129950000D02*
X177040000Y-129950000D01*
X175550000Y-134400000D02*
X174550000Y-134400000D01*
X175550000Y-135150000D02*
X175550000Y-134400000D01*
X177050000Y-134400000D02*
X177050000Y-135150000D01*
X177050000Y-135150000D02*
X178850000Y-135150000D01*
X177900000Y-135450000D02*
X179150000Y-135450000D01*
X178100000Y-132900000D02*
X178100000Y-131560000D01*
X178850000Y-132900000D02*
X178100000Y-132900000D01*
X178850000Y-134400000D02*
X177050000Y-134400000D01*
X178850000Y-135150000D02*
X178850000Y-134400000D01*
X178860000Y-129190000D02*
X171240000Y-129190000D01*
X178860000Y-135160000D02*
X178860000Y-129190000D01*
X179150000Y-135450000D02*
X179150000Y-134200000D01*
%TO.C,J3*%
X129140000Y-128790000D02*
X129140000Y-134760000D01*
X129140000Y-134760000D02*
X139260000Y-134760000D01*
X129150000Y-132500000D02*
X129900000Y-132500000D01*
X129150000Y-134000000D02*
X129150000Y-134750000D01*
X129150000Y-134750000D02*
X130950000Y-134750000D01*
X129900000Y-129550000D02*
X134200000Y-129550000D01*
X129900000Y-132500000D02*
X129900000Y-129550000D01*
X130950000Y-134000000D02*
X129150000Y-134000000D01*
X130950000Y-134750000D02*
X130950000Y-134000000D01*
X132450000Y-134000000D02*
X132450000Y-134750000D01*
X132450000Y-134750000D02*
X135950000Y-134750000D01*
X134200000Y-129550000D02*
X137440000Y-129550000D01*
X135950000Y-134000000D02*
X132450000Y-134000000D01*
X135950000Y-134750000D02*
X135950000Y-134000000D01*
X137450000Y-134000000D02*
X137450000Y-134750000D01*
X137450000Y-134750000D02*
X139250000Y-134750000D01*
X138300000Y-135050000D02*
X139550000Y-135050000D01*
X138500000Y-132500000D02*
X138500000Y-131160000D01*
X139250000Y-132500000D02*
X138500000Y-132500000D01*
X139250000Y-134000000D02*
X137450000Y-134000000D01*
X139250000Y-134750000D02*
X139250000Y-134000000D01*
X139260000Y-128790000D02*
X129140000Y-128790000D01*
X139260000Y-134760000D02*
X139260000Y-128790000D01*
X139550000Y-135050000D02*
X139550000Y-133800000D01*
%TO.C,A1*%
X128247500Y-36950000D02*
X128247500Y-34950000D01*
X128567500Y-32140000D02*
X128567500Y-77860000D01*
X148997500Y-29490000D02*
X131217500Y-29490000D01*
X148997500Y-80510000D02*
X131217500Y-80510000D01*
X151647500Y-32140000D02*
X151647500Y-77860000D01*
X128567500Y-32140000D02*
G75*
G02*
X131217500Y-29490000I2650000J0D01*
G01*
X131217500Y-80510000D02*
G75*
G02*
X128567500Y-77860000I0J2650000D01*
G01*
X148997500Y-29490000D02*
G75*
G02*
X151647500Y-32140000I0J-2650000D01*
G01*
X151647500Y-77860000D02*
G75*
G02*
X148997500Y-80510000I-2650000J0D01*
G01*
%TD*%
%LPC*%
D13*
%TO.C,H3*%
X130500000Y-25000000D03*
D14*
X130500000Y-25000000D03*
%TD*%
D13*
%TO.C,H4*%
X175500000Y-25000000D03*
D14*
X175500000Y-25000000D03*
%TD*%
D15*
%TO.C,J8*%
X178000000Y-121000000D03*
D16*
X176400000Y-123000000D03*
D17*
X173900000Y-123000000D03*
%TD*%
D13*
%TO.C,H1*%
X130500000Y-155000000D03*
D14*
X130500000Y-155000000D03*
%TD*%
D18*
%TO.C,J10*%
X151500000Y-154700000D03*
D19*
X156500000Y-154700000D03*
%TD*%
D20*
%TO.C,U2*%
X160550000Y-59290000D03*
X163090000Y-59290000D03*
X165630000Y-59290000D03*
X168170000Y-59290000D03*
X170710000Y-59290000D03*
X173250000Y-59290000D03*
X160550000Y-41510000D03*
X163090000Y-41510000D03*
X165630000Y-41510000D03*
X168170000Y-41510000D03*
X170710000Y-41510000D03*
X173250000Y-41510000D03*
%TD*%
D21*
%TO.C,C1*%
X156202651Y-145800000D03*
D22*
X151202651Y-145800000D03*
%TD*%
D15*
%TO.C,J5*%
X173600000Y-138600000D03*
D23*
X175600000Y-140200000D03*
D24*
X175600000Y-142700000D03*
%TD*%
D15*
%TO.C,J4*%
X130600000Y-138200000D03*
D23*
X132600000Y-139800000D03*
D24*
X132600000Y-142300000D03*
%TD*%
D15*
%TO.C,J2*%
X136075000Y-125400000D03*
D25*
X134075000Y-123800000D03*
D26*
X134075000Y-121300000D03*
X134075000Y-118800000D03*
%TD*%
D27*
%TO.C,J7*%
X156300000Y-25900000D03*
D28*
X158300000Y-25900000D03*
X160300000Y-25900000D03*
X162300000Y-25900000D03*
%TD*%
D20*
%TO.C,U7*%
X159130000Y-81450000D03*
X161670000Y-81450000D03*
X164210000Y-81450000D03*
X166750000Y-81450000D03*
X169290000Y-81450000D03*
X171830000Y-81450000D03*
X174370000Y-81450000D03*
%TD*%
%TO.C,U3*%
X158610000Y-88940000D03*
X158610000Y-91480000D03*
X158610000Y-94020000D03*
X158610000Y-96560000D03*
X158610000Y-99100000D03*
X158610000Y-101640000D03*
X158610000Y-104180000D03*
X158610000Y-106720000D03*
X158610000Y-109260000D03*
%TD*%
D13*
%TO.C,H2*%
X175500000Y-155000000D03*
D14*
X175500000Y-155000000D03*
%TD*%
D20*
%TO.C,U4*%
X130320000Y-101300000D03*
X132860000Y-101300000D03*
X135400000Y-101300000D03*
X137940000Y-101300000D03*
X140480000Y-101300000D03*
X143020000Y-101300000D03*
X145560000Y-101300000D03*
X148100000Y-101300000D03*
%TD*%
D15*
%TO.C,J6*%
X177900000Y-130700000D03*
D16*
X176300000Y-132700000D03*
D17*
X173800000Y-132700000D03*
%TD*%
D15*
%TO.C,J3*%
X138300000Y-130300000D03*
D29*
X136700000Y-132300000D03*
D30*
X134200000Y-132300000D03*
X131700000Y-132300000D03*
%TD*%
D31*
%TO.C,A1*%
X130247500Y-35950000D03*
D32*
X130247500Y-38490000D03*
X130247500Y-41030000D03*
X130247500Y-43570000D03*
X130247500Y-46110000D03*
X130247500Y-48650000D03*
X130247500Y-51190000D03*
X130247500Y-53730000D03*
X130247500Y-56270000D03*
X130247500Y-58810000D03*
X130247500Y-61350000D03*
X130247500Y-63890000D03*
X130247500Y-66430000D03*
X130247500Y-68970000D03*
X130247500Y-71510000D03*
X130247500Y-74050000D03*
X149967500Y-74050000D03*
X149967500Y-71510000D03*
X149967500Y-68970000D03*
X149967500Y-66430000D03*
X149967500Y-63890000D03*
X149967500Y-61350000D03*
X149967500Y-58810000D03*
X149967500Y-56270000D03*
X149967500Y-53730000D03*
X149967500Y-51190000D03*
X149967500Y-48650000D03*
X149967500Y-46110000D03*
%TD*%
%LPD*%
M02*
