%TF.GenerationSoftware,KiCad,Pcbnew,9.0.1*%
%TF.CreationDate,2025-04-21T23:50:45-04:00*%
%TF.ProjectId,2025SIMPLETVC,32303235-5349-44d5-904c-455456432e6b,rev?*%
%TF.SameCoordinates,Original*%
%TF.FileFunction,Profile,NP*%
%FSLAX46Y46*%
G04 Gerber Fmt 4.6, Leading zero omitted, Abs format (unit mm)*
G04 Created by KiCad (PCBNEW 9.0.1) date 2025-04-21 23:50:45*
%MOMM*%
%LPD*%
G01*
G04 APERTURE LIST*
%TA.AperFunction,Profile*%
%ADD10C,0.200000*%
%TD*%
%TA.AperFunction,Profile*%
%ADD11C,0.050000*%
%TD*%
G04 APERTURE END LIST*
D10*
X125500000Y-20000000D02*
X180500000Y-20000000D01*
X180500000Y-160000000D01*
X125500000Y-160000000D01*
X125500000Y-20000000D01*
D11*
%TO.C,U2*%
X158040000Y-41510000D02*
G75*
G02*
X155440000Y-41510000I-1300000J0D01*
G01*
X155440000Y-41510000D02*
G75*
G02*
X158040000Y-41510000I1300000J0D01*
G01*
X158040000Y-59290000D02*
G75*
G02*
X155440000Y-59290000I-1300000J0D01*
G01*
X155440000Y-59290000D02*
G75*
G02*
X158040000Y-59290000I1300000J0D01*
G01*
X178360000Y-41510000D02*
G75*
G02*
X175760000Y-41510000I-1300000J0D01*
G01*
X175760000Y-41510000D02*
G75*
G02*
X178360000Y-41510000I1300000J0D01*
G01*
X178360000Y-59290000D02*
G75*
G02*
X175760000Y-59290000I-1300000J0D01*
G01*
X175760000Y-59290000D02*
G75*
G02*
X178360000Y-59290000I1300000J0D01*
G01*
%TO.C,U7*%
X157890000Y-68750000D02*
G75*
G02*
X155290000Y-68750000I-1300000J0D01*
G01*
X155290000Y-68750000D02*
G75*
G02*
X157890000Y-68750000I1300000J0D01*
G01*
X178210000Y-68750000D02*
G75*
G02*
X175610000Y-68750000I-1300000J0D01*
G01*
X175610000Y-68750000D02*
G75*
G02*
X178210000Y-68750000I1300000J0D01*
G01*
%TO.C,U3*%
X177660000Y-88940000D02*
G75*
G02*
X175060000Y-88940000I-1300000J0D01*
G01*
X175060000Y-88940000D02*
G75*
G02*
X177660000Y-88940000I1300000J0D01*
G01*
X177660000Y-109260000D02*
G75*
G02*
X175060000Y-109260000I-1300000J0D01*
G01*
X175060000Y-109260000D02*
G75*
G02*
X177660000Y-109260000I1300000J0D01*
G01*
%TO.C,U4*%
X130350000Y-88600000D02*
G75*
G02*
X127750000Y-88600000I-1300000J0D01*
G01*
X127750000Y-88600000D02*
G75*
G02*
X130350000Y-88600000I1300000J0D01*
G01*
X150670000Y-88600000D02*
G75*
G02*
X148070000Y-88600000I-1300000J0D01*
G01*
X148070000Y-88600000D02*
G75*
G02*
X150670000Y-88600000I1300000J0D01*
G01*
%TD*%
M02*
