%TF.GenerationSoftware,KiCad,Pcbnew,9.0.1*%
%TF.CreationDate,2025-04-21T23:50:45-04:00*%
%TF.ProjectId,2025SIMPLETVC,32303235-5349-44d5-904c-455456432e6b,rev?*%
%TF.SameCoordinates,Original*%
%TF.FileFunction,Soldermask,Top*%
%TF.FilePolarity,Negative*%
%FSLAX46Y46*%
G04 Gerber Fmt 4.6, Leading zero omitted, Abs format (unit mm)*
G04 Created by KiCad (PCBNEW 9.0.1) date 2025-04-21 23:50:45*
%MOMM*%
%LPD*%
G01*
G04 APERTURE LIST*
G04 Aperture macros list*
%AMRoundRect*
0 Rectangle with rounded corners*
0 $1 Rounding radius*
0 $2 $3 $4 $5 $6 $7 $8 $9 X,Y pos of 4 corners*
0 Add a 4 corners polygon primitive as box body*
4,1,4,$2,$3,$4,$5,$6,$7,$8,$9,$2,$3,0*
0 Add four circle primitives for the rounded corners*
1,1,$1+$1,$2,$3*
1,1,$1+$1,$4,$5*
1,1,$1+$1,$6,$7*
1,1,$1+$1,$8,$9*
0 Add four rect primitives between the rounded corners*
20,1,$1+$1,$2,$3,$4,$5,0*
20,1,$1+$1,$4,$5,$6,$7,0*
20,1,$1+$1,$6,$7,$8,$9,0*
20,1,$1+$1,$8,$9,$2,$3,0*%
G04 Aperture macros list end*
%ADD10C,4.700000*%
%ADD11C,7.500000*%
%ADD12RoundRect,0.250000X0.600000X0.750000X-0.600000X0.750000X-0.600000X-0.750000X0.600000X-0.750000X0*%
%ADD13O,1.700000X2.000000*%
%ADD14RoundRect,0.760000X-1.140000X-1.140000X1.140000X-1.140000X1.140000X1.140000X-1.140000X1.140000X0*%
%ADD15C,4.000000*%
%ADD16C,1.700000*%
%ADD17R,1.600000X1.600000*%
%ADD18C,1.600000*%
%ADD19RoundRect,0.250000X-0.750000X0.600000X-0.750000X-0.600000X0.750000X-0.600000X0.750000X0.600000X0*%
%ADD20O,2.000000X1.700000*%
%ADD21RoundRect,0.250000X0.725000X-0.600000X0.725000X0.600000X-0.725000X0.600000X-0.725000X-0.600000X0*%
%ADD22O,1.950000X1.700000*%
%ADD23RoundRect,0.250000X-0.350000X-0.625000X0.350000X-0.625000X0.350000X0.625000X-0.350000X0.625000X0*%
%ADD24O,1.200000X1.750000*%
%ADD25RoundRect,0.250000X0.600000X0.725000X-0.600000X0.725000X-0.600000X-0.725000X0.600000X-0.725000X0*%
%ADD26O,1.700000X1.950000*%
%ADD27RoundRect,0.250000X-1.050000X-0.550000X1.050000X-0.550000X1.050000X0.550000X-1.050000X0.550000X0*%
%ADD28O,2.600000X1.600000*%
G04 APERTURE END LIST*
D10*
%TO.C,H3*%
X130500000Y-25000000D03*
D11*
X130500000Y-25000000D03*
%TD*%
D10*
%TO.C,H4*%
X175500000Y-25000000D03*
D11*
X175500000Y-25000000D03*
%TD*%
D12*
%TO.C,J8*%
X176400000Y-123000000D03*
D13*
X173900000Y-123000000D03*
%TD*%
D10*
%TO.C,H1*%
X130500000Y-155000000D03*
D11*
X130500000Y-155000000D03*
%TD*%
D14*
%TO.C,J10*%
X151500000Y-154700000D03*
D15*
X156500000Y-154700000D03*
%TD*%
D16*
%TO.C,U2*%
X160550000Y-59290000D03*
X163090000Y-59290000D03*
X165630000Y-59290000D03*
X168170000Y-59290000D03*
X170710000Y-59290000D03*
X173250000Y-59290000D03*
X160550000Y-41510000D03*
X163090000Y-41510000D03*
X165630000Y-41510000D03*
X168170000Y-41510000D03*
X170710000Y-41510000D03*
X173250000Y-41510000D03*
%TD*%
D17*
%TO.C,C1*%
X156202651Y-145800000D03*
D18*
X151202651Y-145800000D03*
%TD*%
D19*
%TO.C,J5*%
X175600000Y-140200000D03*
D20*
X175600000Y-142700000D03*
%TD*%
D19*
%TO.C,J4*%
X132600000Y-139800000D03*
D20*
X132600000Y-142300000D03*
%TD*%
D21*
%TO.C,J2*%
X134075000Y-123800000D03*
D22*
X134075000Y-121300000D03*
X134075000Y-118800000D03*
%TD*%
D23*
%TO.C,J7*%
X156300000Y-25900000D03*
D24*
X158300000Y-25900000D03*
X160300000Y-25900000D03*
X162300000Y-25900000D03*
%TD*%
D16*
%TO.C,U7*%
X159130000Y-81450000D03*
X161670000Y-81450000D03*
X164210000Y-81450000D03*
X166750000Y-81450000D03*
X169290000Y-81450000D03*
X171830000Y-81450000D03*
X174370000Y-81450000D03*
%TD*%
%TO.C,U3*%
X158610000Y-88940000D03*
X158610000Y-91480000D03*
X158610000Y-94020000D03*
X158610000Y-96560000D03*
X158610000Y-99100000D03*
X158610000Y-101640000D03*
X158610000Y-104180000D03*
X158610000Y-106720000D03*
X158610000Y-109260000D03*
%TD*%
D10*
%TO.C,H2*%
X175500000Y-155000000D03*
D11*
X175500000Y-155000000D03*
%TD*%
D16*
%TO.C,U4*%
X130320000Y-101300000D03*
X132860000Y-101300000D03*
X135400000Y-101300000D03*
X137940000Y-101300000D03*
X140480000Y-101300000D03*
X143020000Y-101300000D03*
X145560000Y-101300000D03*
X148100000Y-101300000D03*
%TD*%
D12*
%TO.C,J6*%
X176300000Y-132700000D03*
D13*
X173800000Y-132700000D03*
%TD*%
D25*
%TO.C,J3*%
X136700000Y-132300000D03*
D26*
X134200000Y-132300000D03*
X131700000Y-132300000D03*
%TD*%
D27*
%TO.C,A1*%
X130247500Y-35950000D03*
D28*
X130247500Y-38490000D03*
X130247500Y-41030000D03*
X130247500Y-43570000D03*
X130247500Y-46110000D03*
X130247500Y-48650000D03*
X130247500Y-51190000D03*
X130247500Y-53730000D03*
X130247500Y-56270000D03*
X130247500Y-58810000D03*
X130247500Y-61350000D03*
X130247500Y-63890000D03*
X130247500Y-66430000D03*
X130247500Y-68970000D03*
X130247500Y-71510000D03*
X130247500Y-74050000D03*
X149967500Y-74050000D03*
X149967500Y-71510000D03*
X149967500Y-68970000D03*
X149967500Y-66430000D03*
X149967500Y-63890000D03*
X149967500Y-61350000D03*
X149967500Y-58810000D03*
X149967500Y-56270000D03*
X149967500Y-53730000D03*
X149967500Y-51190000D03*
X149967500Y-48650000D03*
X149967500Y-46110000D03*
%TD*%
M02*
