M48
; DRILL file {KiCad 9.0.1} date 2025-04-21T23:50:45-0400
; FORMAT={-:-/ absolute / inch / decimal}
; #@! TF.CreationDate,2025-04-21T23:50:45-04:00
; #@! TF.GenerationSoftware,Kicad,Pcbnew,9.0.1
; #@! TF.FileFunction,Plated,1,4,PTH
FMAT,2
INCH
; #@! TA.AperFunction,Plated,PTH,ViaDrill
T1C0.0118
; #@! TA.AperFunction,Plated,PTH,ComponentDrill
T2C0.0295
; #@! TA.AperFunction,Plated,PTH,ComponentDrill
T3C0.0315
; #@! TA.AperFunction,Plated,PTH,ComponentDrill
T4C0.0374
; #@! TA.AperFunction,Plated,PTH,ComponentDrill
T5C0.0394
; #@! TA.AperFunction,Plated,PTH,ComponentDrill
T6C0.1063
; #@! TA.AperFunction,Plated,PTH,ComponentDrill
T7C0.1693
%
G90
G05
T1
X5.0118Y-5.7087
X5.0197Y-3.2913
X5.0315Y-4.4173
X5.0472Y-5.1102
X5.122Y-3.7283
X5.2598Y-2.626
X5.2795Y-2.0591
X5.2913Y-2.9961
X5.2961Y-5.8547
X5.315Y-2.7165
X5.3189Y-2.126
X5.378Y-1.7953
X5.4724Y-2.0866
X5.4764Y-5.2835
X5.4882Y-1.5394
X5.5157Y-3.5709
X5.5197Y-2.8228
X5.5197Y-5.0354
X5.5276Y-2.5157
X5.5315Y-2.6811
X5.5433Y-2.9803
X5.5591Y-2.3504
X5.5976Y-6.0117
X5.6063Y-3.8583
X5.6417Y-4.7717
X5.6575Y-5.1024
X5.6654Y-2.8228
X5.685Y-0.9488
X5.689Y-5.8386
X5.7129Y-6.1606
X5.7138Y-5.9851
X5.748Y-1.811
X5.7598Y-1.9488
X5.7717Y-3.8622
X5.7795Y-1.6063
X5.7874Y-5.2165
X5.7913Y-4.9016
X5.8031Y-3.626
X5.8189Y-3.7402
X5.8228Y-5.0827
X5.8346Y-2.6693
X5.8583Y-6.2441
X5.874Y-5.2835
X5.8857Y-3.9882
X5.8858Y-3.8583
X5.9016Y-3.0512
X5.9016Y-3.2323
X5.9016Y-4.7717
X5.9174Y-3.6579
X5.9213Y-3.9449
X5.9331Y-3.7559
X5.9409Y-3.8386
X5.9646Y-1.685
X6.0Y-1.6457
X6.0433Y-5.2953
X6.0709Y-2.5039
X6.0866Y-2.0945
X6.0945Y-3.9606
X6.1299Y-3.1732
X6.1654Y-3.8386
X6.1693Y-2.8583
X6.1811Y-3.2126
X6.2008Y-2.5236
X6.2165Y-1.7953
X6.2677Y-6.2598
X6.2795Y-2.4724
X6.2992Y-4.7559
X6.3153Y-5.4145
X6.3228Y-4.6969
X6.3504Y-1.3425
X6.4646Y-2.7244
X6.5Y-3.5945
X6.5Y-4.0
X6.5945Y-1.9685
X6.6102Y-3.3031
X6.6312Y-5.4257
X6.6339Y-6.1535
X6.6417Y-3.7008
X6.6457Y-4.2244
X6.6693Y-2.9685
X6.6832Y-1.242
X6.8465Y-2.8622
X6.8898Y-4.0354
X6.9449Y-1.3898
X6.9567Y-1.9134
X7.0236Y-2.5079
T2
X6.1535Y-1.0197
X6.2323Y-1.0197
X6.311Y-1.0197
X6.3898Y-1.0197
T3
X5.9529Y-5.7402
X6.1497Y-5.7402
T4
X5.185Y-5.2087
X5.2785Y-4.6772
X5.2785Y-4.7756
X5.2785Y-4.874
X5.2835Y-5.2087
X5.3819Y-5.2087
T5
X5.116Y-1.4154
X5.116Y-1.5154
X5.116Y-1.6154
X5.116Y-1.7154
X5.116Y-1.8154
X5.116Y-1.9154
X5.116Y-2.0154
X5.116Y-2.1154
X5.116Y-2.2154
X5.116Y-2.3154
X5.116Y-2.4154
X5.116Y-2.5154
X5.116Y-2.6154
X5.116Y-2.7154
X5.116Y-2.8154
X5.116Y-2.9154
X5.1307Y-3.9882
X5.2205Y-5.5039
X5.2205Y-5.6024
X5.2307Y-3.9882
X5.3307Y-3.9882
X5.4307Y-3.9882
X5.5307Y-3.9882
X5.6307Y-3.9882
X5.7307Y-3.9882
X5.8307Y-3.9882
X5.916Y-1.8154
X5.916Y-1.9154
X5.916Y-2.0154
X5.916Y-2.1154
X5.916Y-2.2154
X5.916Y-2.3154
X5.916Y-2.4154
X5.916Y-2.5154
X5.916Y-2.6154
X5.916Y-2.7154
X5.916Y-2.8154
X5.916Y-2.9154
X6.2445Y-3.5016
X6.2445Y-3.6016
X6.2445Y-3.7016
X6.2445Y-3.8016
X6.2445Y-3.9016
X6.2445Y-4.0016
X6.2445Y-4.1016
X6.2445Y-4.2016
X6.2445Y-4.3016
X6.265Y-3.2067
X6.3209Y-1.6343
X6.3209Y-2.3343
X6.365Y-3.2067
X6.4209Y-1.6343
X6.4209Y-2.3343
X6.465Y-3.2067
X6.5209Y-1.6343
X6.5209Y-2.3343
X6.565Y-3.2067
X6.6209Y-1.6343
X6.6209Y-2.3343
X6.665Y-3.2067
X6.7209Y-1.6343
X6.7209Y-2.3343
X6.765Y-3.2067
X6.8209Y-1.6343
X6.8209Y-2.3343
X6.8425Y-5.2244
X6.8465Y-4.8425
X6.865Y-3.2067
X6.9134Y-5.5197
X6.9134Y-5.6181
X6.9409Y-5.2244
X6.9449Y-4.8425
T6
X5.9646Y-6.0906
X6.1614Y-6.0906
T7
X5.1378Y-0.9843
X5.1378Y-6.1024
X6.9094Y-0.9843
X6.9094Y-6.1024
M30
