%TF.GenerationSoftware,KiCad,Pcbnew,9.0.1*%
%TF.CreationDate,2025-04-21T23:50:45-04:00*%
%TF.ProjectId,2025SIMPLETVC,32303235-5349-44d5-904c-455456432e6b,rev?*%
%TF.SameCoordinates,Original*%
%TF.FileFunction,Legend,Bot*%
%TF.FilePolarity,Positive*%
%FSLAX46Y46*%
G04 Gerber Fmt 4.6, Leading zero omitted, Abs format (unit mm)*
G04 Created by KiCad (PCBNEW 9.0.1) date 2025-04-21 23:50:45*
%MOMM*%
%LPD*%
G01*
G04 APERTURE LIST*
G04 Aperture macros list*
%AMRoundRect*
0 Rectangle with rounded corners*
0 $1 Rounding radius*
0 $2 $3 $4 $5 $6 $7 $8 $9 X,Y pos of 4 corners*
0 Add a 4 corners polygon primitive as box body*
4,1,4,$2,$3,$4,$5,$6,$7,$8,$9,$2,$3,0*
0 Add four circle primitives for the rounded corners*
1,1,$1+$1,$2,$3*
1,1,$1+$1,$4,$5*
1,1,$1+$1,$6,$7*
1,1,$1+$1,$8,$9*
0 Add four rect primitives between the rounded corners*
20,1,$1+$1,$2,$3,$4,$5,0*
20,1,$1+$1,$4,$5,$6,$7,0*
20,1,$1+$1,$6,$7,$8,$9,0*
20,1,$1+$1,$8,$9,$2,$3,0*%
%AMFreePoly0*
4,1,17,1.515000,0.170000,0.915000,0.170000,0.915000,-0.080000,1.515000,-0.080000,1.515000,-0.480000,0.915000,-0.480000,0.915000,-0.505000,-0.395000,-0.505000,-0.395000,-1.005000,-0.825000,-1.005000,-0.825000,-0.625000,-0.915000,-0.625000,-0.915000,0.505000,0.815000,0.505000,0.815000,0.570000,1.515000,0.570000,1.515000,0.170000,1.515000,0.170000,$1*%
%AMFreePoly1*
4,1,17,-0.395000,0.505000,0.915000,0.505000,0.915000,0.480000,1.515000,0.480000,1.515000,0.080000,0.915000,0.080000,0.915000,-0.170000,1.515000,-0.170000,1.515000,-0.570000,0.815000,-0.570000,0.815000,-0.505000,-0.915000,-0.505000,-0.915000,0.625000,-0.825000,0.625000,-0.825000,1.005000,-0.395000,1.005000,-0.395000,0.505000,-0.395000,0.505000,$1*%
G04 Aperture macros list end*
%ADD10C,0.150000*%
%ADD11C,0.120000*%
%ADD12C,0.100000*%
%ADD13RoundRect,0.225000X0.225000X0.250000X-0.225000X0.250000X-0.225000X-0.250000X0.225000X-0.250000X0*%
%ADD14RoundRect,0.225000X-0.225000X-0.250000X0.225000X-0.250000X0.225000X0.250000X-0.225000X0.250000X0*%
%ADD15C,4.700000*%
%ADD16C,7.500000*%
%ADD17C,1.200000*%
%ADD18RoundRect,0.250000X0.600000X0.750000X-0.600000X0.750000X-0.600000X-0.750000X0.600000X-0.750000X0*%
%ADD19O,1.700000X2.000000*%
%ADD20RoundRect,0.760000X-1.140000X-1.140000X1.140000X-1.140000X1.140000X1.140000X-1.140000X1.140000X0*%
%ADD21C,4.000000*%
%ADD22C,1.700000*%
%ADD23R,1.600000X1.600000*%
%ADD24C,1.600000*%
%ADD25RoundRect,0.250000X-0.750000X0.600000X-0.750000X-0.600000X0.750000X-0.600000X0.750000X0.600000X0*%
%ADD26O,2.000000X1.700000*%
%ADD27RoundRect,0.250000X0.725000X-0.600000X0.725000X0.600000X-0.725000X0.600000X-0.725000X-0.600000X0*%
%ADD28O,1.950000X1.700000*%
%ADD29RoundRect,0.250000X-0.350000X-0.625000X0.350000X-0.625000X0.350000X0.625000X-0.350000X0.625000X0*%
%ADD30O,1.200000X1.750000*%
%ADD31RoundRect,0.250000X0.600000X0.725000X-0.600000X0.725000X-0.600000X-0.725000X0.600000X-0.725000X0*%
%ADD32O,1.700000X1.950000*%
%ADD33RoundRect,0.250000X-1.050000X-0.550000X1.050000X-0.550000X1.050000X0.550000X-1.050000X0.550000X0*%
%ADD34O,2.600000X1.600000*%
%ADD35RoundRect,0.135000X-0.185000X0.135000X-0.185000X-0.135000X0.185000X-0.135000X0.185000X0.135000X0*%
%ADD36RoundRect,0.135000X0.135000X0.185000X-0.135000X0.185000X-0.135000X-0.185000X0.135000X-0.185000X0*%
%ADD37RoundRect,0.135000X-0.135000X-0.185000X0.135000X-0.185000X0.135000X0.185000X-0.135000X0.185000X0*%
%ADD38RoundRect,0.135000X0.185000X-0.135000X0.185000X0.135000X-0.185000X0.135000X-0.185000X-0.135000X0*%
%ADD39RoundRect,0.150000X0.587500X0.150000X-0.587500X0.150000X-0.587500X-0.150000X0.587500X-0.150000X0*%
%ADD40R,0.760000X0.350000*%
%ADD41FreePoly0,0.000000*%
%ADD42FreePoly1,0.000000*%
%ADD43R,1.600000X0.300000*%
%ADD44RoundRect,0.375000X0.375000X-0.625000X0.375000X0.625000X-0.375000X0.625000X-0.375000X-0.625000X0*%
%ADD45RoundRect,0.500000X1.400000X-0.500000X1.400000X0.500000X-1.400000X0.500000X-1.400000X-0.500000X0*%
G04 APERTURE END LIST*
D10*
X153886666Y-149229580D02*
X153934285Y-149277200D01*
X153934285Y-149277200D02*
X154077142Y-149324819D01*
X154077142Y-149324819D02*
X154172380Y-149324819D01*
X154172380Y-149324819D02*
X154315237Y-149277200D01*
X154315237Y-149277200D02*
X154410475Y-149181961D01*
X154410475Y-149181961D02*
X154458094Y-149086723D01*
X154458094Y-149086723D02*
X154505713Y-148896247D01*
X154505713Y-148896247D02*
X154505713Y-148753390D01*
X154505713Y-148753390D02*
X154458094Y-148562914D01*
X154458094Y-148562914D02*
X154410475Y-148467676D01*
X154410475Y-148467676D02*
X154315237Y-148372438D01*
X154315237Y-148372438D02*
X154172380Y-148324819D01*
X154172380Y-148324819D02*
X154077142Y-148324819D01*
X154077142Y-148324819D02*
X153934285Y-148372438D01*
X153934285Y-148372438D02*
X153886666Y-148420057D01*
X153505713Y-148420057D02*
X153458094Y-148372438D01*
X153458094Y-148372438D02*
X153362856Y-148324819D01*
X153362856Y-148324819D02*
X153124761Y-148324819D01*
X153124761Y-148324819D02*
X153029523Y-148372438D01*
X153029523Y-148372438D02*
X152981904Y-148420057D01*
X152981904Y-148420057D02*
X152934285Y-148515295D01*
X152934285Y-148515295D02*
X152934285Y-148610533D01*
X152934285Y-148610533D02*
X152981904Y-148753390D01*
X152981904Y-148753390D02*
X153553332Y-149324819D01*
X153553332Y-149324819D02*
X152934285Y-149324819D01*
X160567857Y-131459580D02*
X160615476Y-131507200D01*
X160615476Y-131507200D02*
X160758333Y-131554819D01*
X160758333Y-131554819D02*
X160853571Y-131554819D01*
X160853571Y-131554819D02*
X160996428Y-131507200D01*
X160996428Y-131507200D02*
X161091666Y-131411961D01*
X161091666Y-131411961D02*
X161139285Y-131316723D01*
X161139285Y-131316723D02*
X161186904Y-131126247D01*
X161186904Y-131126247D02*
X161186904Y-130983390D01*
X161186904Y-130983390D02*
X161139285Y-130792914D01*
X161139285Y-130792914D02*
X161091666Y-130697676D01*
X161091666Y-130697676D02*
X160996428Y-130602438D01*
X160996428Y-130602438D02*
X160853571Y-130554819D01*
X160853571Y-130554819D02*
X160758333Y-130554819D01*
X160758333Y-130554819D02*
X160615476Y-130602438D01*
X160615476Y-130602438D02*
X160567857Y-130650057D01*
X160186904Y-130650057D02*
X160139285Y-130602438D01*
X160139285Y-130602438D02*
X160044047Y-130554819D01*
X160044047Y-130554819D02*
X159805952Y-130554819D01*
X159805952Y-130554819D02*
X159710714Y-130602438D01*
X159710714Y-130602438D02*
X159663095Y-130650057D01*
X159663095Y-130650057D02*
X159615476Y-130745295D01*
X159615476Y-130745295D02*
X159615476Y-130840533D01*
X159615476Y-130840533D02*
X159663095Y-130983390D01*
X159663095Y-130983390D02*
X160234523Y-131554819D01*
X160234523Y-131554819D02*
X159615476Y-131554819D01*
X159234523Y-130650057D02*
X159186904Y-130602438D01*
X159186904Y-130602438D02*
X159091666Y-130554819D01*
X159091666Y-130554819D02*
X158853571Y-130554819D01*
X158853571Y-130554819D02*
X158758333Y-130602438D01*
X158758333Y-130602438D02*
X158710714Y-130650057D01*
X158710714Y-130650057D02*
X158663095Y-130745295D01*
X158663095Y-130745295D02*
X158663095Y-130840533D01*
X158663095Y-130840533D02*
X158710714Y-130983390D01*
X158710714Y-130983390D02*
X159282142Y-131554819D01*
X159282142Y-131554819D02*
X158663095Y-131554819D01*
X153542857Y-140259580D02*
X153590476Y-140307200D01*
X153590476Y-140307200D02*
X153733333Y-140354819D01*
X153733333Y-140354819D02*
X153828571Y-140354819D01*
X153828571Y-140354819D02*
X153971428Y-140307200D01*
X153971428Y-140307200D02*
X154066666Y-140211961D01*
X154066666Y-140211961D02*
X154114285Y-140116723D01*
X154114285Y-140116723D02*
X154161904Y-139926247D01*
X154161904Y-139926247D02*
X154161904Y-139783390D01*
X154161904Y-139783390D02*
X154114285Y-139592914D01*
X154114285Y-139592914D02*
X154066666Y-139497676D01*
X154066666Y-139497676D02*
X153971428Y-139402438D01*
X153971428Y-139402438D02*
X153828571Y-139354819D01*
X153828571Y-139354819D02*
X153733333Y-139354819D01*
X153733333Y-139354819D02*
X153590476Y-139402438D01*
X153590476Y-139402438D02*
X153542857Y-139450057D01*
X152590476Y-140354819D02*
X153161904Y-140354819D01*
X152876190Y-140354819D02*
X152876190Y-139354819D01*
X152876190Y-139354819D02*
X152971428Y-139497676D01*
X152971428Y-139497676D02*
X153066666Y-139592914D01*
X153066666Y-139592914D02*
X153161904Y-139640533D01*
X152114285Y-140354819D02*
X151923809Y-140354819D01*
X151923809Y-140354819D02*
X151828571Y-140307200D01*
X151828571Y-140307200D02*
X151780952Y-140259580D01*
X151780952Y-140259580D02*
X151685714Y-140116723D01*
X151685714Y-140116723D02*
X151638095Y-139926247D01*
X151638095Y-139926247D02*
X151638095Y-139545295D01*
X151638095Y-139545295D02*
X151685714Y-139450057D01*
X151685714Y-139450057D02*
X151733333Y-139402438D01*
X151733333Y-139402438D02*
X151828571Y-139354819D01*
X151828571Y-139354819D02*
X152019047Y-139354819D01*
X152019047Y-139354819D02*
X152114285Y-139402438D01*
X152114285Y-139402438D02*
X152161904Y-139450057D01*
X152161904Y-139450057D02*
X152209523Y-139545295D01*
X152209523Y-139545295D02*
X152209523Y-139783390D01*
X152209523Y-139783390D02*
X152161904Y-139878628D01*
X152161904Y-139878628D02*
X152114285Y-139926247D01*
X152114285Y-139926247D02*
X152019047Y-139973866D01*
X152019047Y-139973866D02*
X151828571Y-139973866D01*
X151828571Y-139973866D02*
X151733333Y-139926247D01*
X151733333Y-139926247D02*
X151685714Y-139878628D01*
X151685714Y-139878628D02*
X151638095Y-139783390D01*
X143454819Y-135143333D02*
X142978628Y-134810000D01*
X143454819Y-134571905D02*
X142454819Y-134571905D01*
X142454819Y-134571905D02*
X142454819Y-134952857D01*
X142454819Y-134952857D02*
X142502438Y-135048095D01*
X142502438Y-135048095D02*
X142550057Y-135095714D01*
X142550057Y-135095714D02*
X142645295Y-135143333D01*
X142645295Y-135143333D02*
X142788152Y-135143333D01*
X142788152Y-135143333D02*
X142883390Y-135095714D01*
X142883390Y-135095714D02*
X142931009Y-135048095D01*
X142931009Y-135048095D02*
X142978628Y-134952857D01*
X142978628Y-134952857D02*
X142978628Y-134571905D01*
X142454819Y-135476667D02*
X142454819Y-136143333D01*
X142454819Y-136143333D02*
X143454819Y-135714762D01*
X161932857Y-128354819D02*
X162266190Y-127878628D01*
X162504285Y-128354819D02*
X162504285Y-127354819D01*
X162504285Y-127354819D02*
X162123333Y-127354819D01*
X162123333Y-127354819D02*
X162028095Y-127402438D01*
X162028095Y-127402438D02*
X161980476Y-127450057D01*
X161980476Y-127450057D02*
X161932857Y-127545295D01*
X161932857Y-127545295D02*
X161932857Y-127688152D01*
X161932857Y-127688152D02*
X161980476Y-127783390D01*
X161980476Y-127783390D02*
X162028095Y-127831009D01*
X162028095Y-127831009D02*
X162123333Y-127878628D01*
X162123333Y-127878628D02*
X162504285Y-127878628D01*
X161551904Y-127450057D02*
X161504285Y-127402438D01*
X161504285Y-127402438D02*
X161409047Y-127354819D01*
X161409047Y-127354819D02*
X161170952Y-127354819D01*
X161170952Y-127354819D02*
X161075714Y-127402438D01*
X161075714Y-127402438D02*
X161028095Y-127450057D01*
X161028095Y-127450057D02*
X160980476Y-127545295D01*
X160980476Y-127545295D02*
X160980476Y-127640533D01*
X160980476Y-127640533D02*
X161028095Y-127783390D01*
X161028095Y-127783390D02*
X161599523Y-128354819D01*
X161599523Y-128354819D02*
X160980476Y-128354819D01*
X160361428Y-127354819D02*
X160266190Y-127354819D01*
X160266190Y-127354819D02*
X160170952Y-127402438D01*
X160170952Y-127402438D02*
X160123333Y-127450057D01*
X160123333Y-127450057D02*
X160075714Y-127545295D01*
X160075714Y-127545295D02*
X160028095Y-127735771D01*
X160028095Y-127735771D02*
X160028095Y-127973866D01*
X160028095Y-127973866D02*
X160075714Y-128164342D01*
X160075714Y-128164342D02*
X160123333Y-128259580D01*
X160123333Y-128259580D02*
X160170952Y-128307200D01*
X160170952Y-128307200D02*
X160266190Y-128354819D01*
X160266190Y-128354819D02*
X160361428Y-128354819D01*
X160361428Y-128354819D02*
X160456666Y-128307200D01*
X160456666Y-128307200D02*
X160504285Y-128259580D01*
X160504285Y-128259580D02*
X160551904Y-128164342D01*
X160551904Y-128164342D02*
X160599523Y-127973866D01*
X160599523Y-127973866D02*
X160599523Y-127735771D01*
X160599523Y-127735771D02*
X160551904Y-127545295D01*
X160551904Y-127545295D02*
X160504285Y-127450057D01*
X160504285Y-127450057D02*
X160456666Y-127402438D01*
X160456666Y-127402438D02*
X160361428Y-127354819D01*
X146066666Y-135124819D02*
X146399999Y-134648628D01*
X146638094Y-135124819D02*
X146638094Y-134124819D01*
X146638094Y-134124819D02*
X146257142Y-134124819D01*
X146257142Y-134124819D02*
X146161904Y-134172438D01*
X146161904Y-134172438D02*
X146114285Y-134220057D01*
X146114285Y-134220057D02*
X146066666Y-134315295D01*
X146066666Y-134315295D02*
X146066666Y-134458152D01*
X146066666Y-134458152D02*
X146114285Y-134553390D01*
X146114285Y-134553390D02*
X146161904Y-134601009D01*
X146161904Y-134601009D02*
X146257142Y-134648628D01*
X146257142Y-134648628D02*
X146638094Y-134648628D01*
X145209523Y-134124819D02*
X145399999Y-134124819D01*
X145399999Y-134124819D02*
X145495237Y-134172438D01*
X145495237Y-134172438D02*
X145542856Y-134220057D01*
X145542856Y-134220057D02*
X145638094Y-134362914D01*
X145638094Y-134362914D02*
X145685713Y-134553390D01*
X145685713Y-134553390D02*
X145685713Y-134934342D01*
X145685713Y-134934342D02*
X145638094Y-135029580D01*
X145638094Y-135029580D02*
X145590475Y-135077200D01*
X145590475Y-135077200D02*
X145495237Y-135124819D01*
X145495237Y-135124819D02*
X145304761Y-135124819D01*
X145304761Y-135124819D02*
X145209523Y-135077200D01*
X145209523Y-135077200D02*
X145161904Y-135029580D01*
X145161904Y-135029580D02*
X145114285Y-134934342D01*
X145114285Y-134934342D02*
X145114285Y-134696247D01*
X145114285Y-134696247D02*
X145161904Y-134601009D01*
X145161904Y-134601009D02*
X145209523Y-134553390D01*
X145209523Y-134553390D02*
X145304761Y-134505771D01*
X145304761Y-134505771D02*
X145495237Y-134505771D01*
X145495237Y-134505771D02*
X145590475Y-134553390D01*
X145590475Y-134553390D02*
X145638094Y-134601009D01*
X145638094Y-134601009D02*
X145685713Y-134696247D01*
X168554819Y-133757142D02*
X168078628Y-133423809D01*
X168554819Y-133185714D02*
X167554819Y-133185714D01*
X167554819Y-133185714D02*
X167554819Y-133566666D01*
X167554819Y-133566666D02*
X167602438Y-133661904D01*
X167602438Y-133661904D02*
X167650057Y-133709523D01*
X167650057Y-133709523D02*
X167745295Y-133757142D01*
X167745295Y-133757142D02*
X167888152Y-133757142D01*
X167888152Y-133757142D02*
X167983390Y-133709523D01*
X167983390Y-133709523D02*
X168031009Y-133661904D01*
X168031009Y-133661904D02*
X168078628Y-133566666D01*
X168078628Y-133566666D02*
X168078628Y-133185714D01*
X168554819Y-134709523D02*
X168554819Y-134138095D01*
X168554819Y-134423809D02*
X167554819Y-134423809D01*
X167554819Y-134423809D02*
X167697676Y-134328571D01*
X167697676Y-134328571D02*
X167792914Y-134233333D01*
X167792914Y-134233333D02*
X167840533Y-134138095D01*
X167554819Y-135566666D02*
X167554819Y-135376190D01*
X167554819Y-135376190D02*
X167602438Y-135280952D01*
X167602438Y-135280952D02*
X167650057Y-135233333D01*
X167650057Y-135233333D02*
X167792914Y-135138095D01*
X167792914Y-135138095D02*
X167983390Y-135090476D01*
X167983390Y-135090476D02*
X168364342Y-135090476D01*
X168364342Y-135090476D02*
X168459580Y-135138095D01*
X168459580Y-135138095D02*
X168507200Y-135185714D01*
X168507200Y-135185714D02*
X168554819Y-135280952D01*
X168554819Y-135280952D02*
X168554819Y-135471428D01*
X168554819Y-135471428D02*
X168507200Y-135566666D01*
X168507200Y-135566666D02*
X168459580Y-135614285D01*
X168459580Y-135614285D02*
X168364342Y-135661904D01*
X168364342Y-135661904D02*
X168126247Y-135661904D01*
X168126247Y-135661904D02*
X168031009Y-135614285D01*
X168031009Y-135614285D02*
X167983390Y-135566666D01*
X167983390Y-135566666D02*
X167935771Y-135471428D01*
X167935771Y-135471428D02*
X167935771Y-135280952D01*
X167935771Y-135280952D02*
X167983390Y-135185714D01*
X167983390Y-135185714D02*
X168031009Y-135138095D01*
X168031009Y-135138095D02*
X168126247Y-135090476D01*
X142524819Y-116723333D02*
X142048628Y-116390000D01*
X142524819Y-116151905D02*
X141524819Y-116151905D01*
X141524819Y-116151905D02*
X141524819Y-116532857D01*
X141524819Y-116532857D02*
X141572438Y-116628095D01*
X141572438Y-116628095D02*
X141620057Y-116675714D01*
X141620057Y-116675714D02*
X141715295Y-116723333D01*
X141715295Y-116723333D02*
X141858152Y-116723333D01*
X141858152Y-116723333D02*
X141953390Y-116675714D01*
X141953390Y-116675714D02*
X142001009Y-116628095D01*
X142001009Y-116628095D02*
X142048628Y-116532857D01*
X142048628Y-116532857D02*
X142048628Y-116151905D01*
X141524819Y-117628095D02*
X141524819Y-117151905D01*
X141524819Y-117151905D02*
X142001009Y-117104286D01*
X142001009Y-117104286D02*
X141953390Y-117151905D01*
X141953390Y-117151905D02*
X141905771Y-117247143D01*
X141905771Y-117247143D02*
X141905771Y-117485238D01*
X141905771Y-117485238D02*
X141953390Y-117580476D01*
X141953390Y-117580476D02*
X142001009Y-117628095D01*
X142001009Y-117628095D02*
X142096247Y-117675714D01*
X142096247Y-117675714D02*
X142334342Y-117675714D01*
X142334342Y-117675714D02*
X142429580Y-117628095D01*
X142429580Y-117628095D02*
X142477200Y-117580476D01*
X142477200Y-117580476D02*
X142524819Y-117485238D01*
X142524819Y-117485238D02*
X142524819Y-117247143D01*
X142524819Y-117247143D02*
X142477200Y-117151905D01*
X142477200Y-117151905D02*
X142429580Y-117104286D01*
X142657738Y-130600057D02*
X142752976Y-130552438D01*
X142752976Y-130552438D02*
X142848214Y-130457200D01*
X142848214Y-130457200D02*
X142991071Y-130314342D01*
X142991071Y-130314342D02*
X143086309Y-130266723D01*
X143086309Y-130266723D02*
X143181547Y-130266723D01*
X143133928Y-130504819D02*
X143229166Y-130457200D01*
X143229166Y-130457200D02*
X143324404Y-130361961D01*
X143324404Y-130361961D02*
X143372023Y-130171485D01*
X143372023Y-130171485D02*
X143372023Y-129838152D01*
X143372023Y-129838152D02*
X143324404Y-129647676D01*
X143324404Y-129647676D02*
X143229166Y-129552438D01*
X143229166Y-129552438D02*
X143133928Y-129504819D01*
X143133928Y-129504819D02*
X142943452Y-129504819D01*
X142943452Y-129504819D02*
X142848214Y-129552438D01*
X142848214Y-129552438D02*
X142752976Y-129647676D01*
X142752976Y-129647676D02*
X142705357Y-129838152D01*
X142705357Y-129838152D02*
X142705357Y-130171485D01*
X142705357Y-130171485D02*
X142752976Y-130361961D01*
X142752976Y-130361961D02*
X142848214Y-130457200D01*
X142848214Y-130457200D02*
X142943452Y-130504819D01*
X142943452Y-130504819D02*
X143133928Y-130504819D01*
X142324404Y-129600057D02*
X142276785Y-129552438D01*
X142276785Y-129552438D02*
X142181547Y-129504819D01*
X142181547Y-129504819D02*
X141943452Y-129504819D01*
X141943452Y-129504819D02*
X141848214Y-129552438D01*
X141848214Y-129552438D02*
X141800595Y-129600057D01*
X141800595Y-129600057D02*
X141752976Y-129695295D01*
X141752976Y-129695295D02*
X141752976Y-129790533D01*
X141752976Y-129790533D02*
X141800595Y-129933390D01*
X141800595Y-129933390D02*
X142372023Y-130504819D01*
X142372023Y-130504819D02*
X141752976Y-130504819D01*
X141957738Y-122100057D02*
X142052976Y-122052438D01*
X142052976Y-122052438D02*
X142148214Y-121957200D01*
X142148214Y-121957200D02*
X142291071Y-121814342D01*
X142291071Y-121814342D02*
X142386309Y-121766723D01*
X142386309Y-121766723D02*
X142481547Y-121766723D01*
X142433928Y-122004819D02*
X142529166Y-121957200D01*
X142529166Y-121957200D02*
X142624404Y-121861961D01*
X142624404Y-121861961D02*
X142672023Y-121671485D01*
X142672023Y-121671485D02*
X142672023Y-121338152D01*
X142672023Y-121338152D02*
X142624404Y-121147676D01*
X142624404Y-121147676D02*
X142529166Y-121052438D01*
X142529166Y-121052438D02*
X142433928Y-121004819D01*
X142433928Y-121004819D02*
X142243452Y-121004819D01*
X142243452Y-121004819D02*
X142148214Y-121052438D01*
X142148214Y-121052438D02*
X142052976Y-121147676D01*
X142052976Y-121147676D02*
X142005357Y-121338152D01*
X142005357Y-121338152D02*
X142005357Y-121671485D01*
X142005357Y-121671485D02*
X142052976Y-121861961D01*
X142052976Y-121861961D02*
X142148214Y-121957200D01*
X142148214Y-121957200D02*
X142243452Y-122004819D01*
X142243452Y-122004819D02*
X142433928Y-122004819D01*
X141052976Y-122004819D02*
X141624404Y-122004819D01*
X141338690Y-122004819D02*
X141338690Y-121004819D01*
X141338690Y-121004819D02*
X141433928Y-121147676D01*
X141433928Y-121147676D02*
X141529166Y-121242914D01*
X141529166Y-121242914D02*
X141624404Y-121290533D01*
X157861904Y-30779819D02*
X157861904Y-31589342D01*
X157861904Y-31589342D02*
X157814285Y-31684580D01*
X157814285Y-31684580D02*
X157766666Y-31732200D01*
X157766666Y-31732200D02*
X157671428Y-31779819D01*
X157671428Y-31779819D02*
X157480952Y-31779819D01*
X157480952Y-31779819D02*
X157385714Y-31732200D01*
X157385714Y-31732200D02*
X157338095Y-31684580D01*
X157338095Y-31684580D02*
X157290476Y-31589342D01*
X157290476Y-31589342D02*
X157290476Y-30779819D01*
X156290476Y-31779819D02*
X156861904Y-31779819D01*
X156576190Y-31779819D02*
X156576190Y-30779819D01*
X156576190Y-30779819D02*
X156671428Y-30922676D01*
X156671428Y-30922676D02*
X156766666Y-31017914D01*
X156766666Y-31017914D02*
X156861904Y-31065533D01*
X161932857Y-129754819D02*
X162266190Y-129278628D01*
X162504285Y-129754819D02*
X162504285Y-128754819D01*
X162504285Y-128754819D02*
X162123333Y-128754819D01*
X162123333Y-128754819D02*
X162028095Y-128802438D01*
X162028095Y-128802438D02*
X161980476Y-128850057D01*
X161980476Y-128850057D02*
X161932857Y-128945295D01*
X161932857Y-128945295D02*
X161932857Y-129088152D01*
X161932857Y-129088152D02*
X161980476Y-129183390D01*
X161980476Y-129183390D02*
X162028095Y-129231009D01*
X162028095Y-129231009D02*
X162123333Y-129278628D01*
X162123333Y-129278628D02*
X162504285Y-129278628D01*
X160980476Y-129754819D02*
X161551904Y-129754819D01*
X161266190Y-129754819D02*
X161266190Y-128754819D01*
X161266190Y-128754819D02*
X161361428Y-128897676D01*
X161361428Y-128897676D02*
X161456666Y-128992914D01*
X161456666Y-128992914D02*
X161551904Y-129040533D01*
X160504285Y-129754819D02*
X160313809Y-129754819D01*
X160313809Y-129754819D02*
X160218571Y-129707200D01*
X160218571Y-129707200D02*
X160170952Y-129659580D01*
X160170952Y-129659580D02*
X160075714Y-129516723D01*
X160075714Y-129516723D02*
X160028095Y-129326247D01*
X160028095Y-129326247D02*
X160028095Y-128945295D01*
X160028095Y-128945295D02*
X160075714Y-128850057D01*
X160075714Y-128850057D02*
X160123333Y-128802438D01*
X160123333Y-128802438D02*
X160218571Y-128754819D01*
X160218571Y-128754819D02*
X160409047Y-128754819D01*
X160409047Y-128754819D02*
X160504285Y-128802438D01*
X160504285Y-128802438D02*
X160551904Y-128850057D01*
X160551904Y-128850057D02*
X160599523Y-128945295D01*
X160599523Y-128945295D02*
X160599523Y-129183390D01*
X160599523Y-129183390D02*
X160551904Y-129278628D01*
X160551904Y-129278628D02*
X160504285Y-129326247D01*
X160504285Y-129326247D02*
X160409047Y-129373866D01*
X160409047Y-129373866D02*
X160218571Y-129373866D01*
X160218571Y-129373866D02*
X160123333Y-129326247D01*
X160123333Y-129326247D02*
X160075714Y-129278628D01*
X160075714Y-129278628D02*
X160028095Y-129183390D01*
X168054819Y-120557142D02*
X167578628Y-120223809D01*
X168054819Y-119985714D02*
X167054819Y-119985714D01*
X167054819Y-119985714D02*
X167054819Y-120366666D01*
X167054819Y-120366666D02*
X167102438Y-120461904D01*
X167102438Y-120461904D02*
X167150057Y-120509523D01*
X167150057Y-120509523D02*
X167245295Y-120557142D01*
X167245295Y-120557142D02*
X167388152Y-120557142D01*
X167388152Y-120557142D02*
X167483390Y-120509523D01*
X167483390Y-120509523D02*
X167531009Y-120461904D01*
X167531009Y-120461904D02*
X167578628Y-120366666D01*
X167578628Y-120366666D02*
X167578628Y-119985714D01*
X168054819Y-121509523D02*
X168054819Y-120938095D01*
X168054819Y-121223809D02*
X167054819Y-121223809D01*
X167054819Y-121223809D02*
X167197676Y-121128571D01*
X167197676Y-121128571D02*
X167292914Y-121033333D01*
X167292914Y-121033333D02*
X167340533Y-120938095D01*
X167054819Y-122128571D02*
X167054819Y-122223809D01*
X167054819Y-122223809D02*
X167102438Y-122319047D01*
X167102438Y-122319047D02*
X167150057Y-122366666D01*
X167150057Y-122366666D02*
X167245295Y-122414285D01*
X167245295Y-122414285D02*
X167435771Y-122461904D01*
X167435771Y-122461904D02*
X167673866Y-122461904D01*
X167673866Y-122461904D02*
X167864342Y-122414285D01*
X167864342Y-122414285D02*
X167959580Y-122366666D01*
X167959580Y-122366666D02*
X168007200Y-122319047D01*
X168007200Y-122319047D02*
X168054819Y-122223809D01*
X168054819Y-122223809D02*
X168054819Y-122128571D01*
X168054819Y-122128571D02*
X168007200Y-122033333D01*
X168007200Y-122033333D02*
X167959580Y-121985714D01*
X167959580Y-121985714D02*
X167864342Y-121938095D01*
X167864342Y-121938095D02*
X167673866Y-121890476D01*
X167673866Y-121890476D02*
X167435771Y-121890476D01*
X167435771Y-121890476D02*
X167245295Y-121938095D01*
X167245295Y-121938095D02*
X167150057Y-121985714D01*
X167150057Y-121985714D02*
X167102438Y-122033333D01*
X167102438Y-122033333D02*
X167054819Y-122128571D01*
X136154819Y-47357142D02*
X135678628Y-47023809D01*
X136154819Y-46785714D02*
X135154819Y-46785714D01*
X135154819Y-46785714D02*
X135154819Y-47166666D01*
X135154819Y-47166666D02*
X135202438Y-47261904D01*
X135202438Y-47261904D02*
X135250057Y-47309523D01*
X135250057Y-47309523D02*
X135345295Y-47357142D01*
X135345295Y-47357142D02*
X135488152Y-47357142D01*
X135488152Y-47357142D02*
X135583390Y-47309523D01*
X135583390Y-47309523D02*
X135631009Y-47261904D01*
X135631009Y-47261904D02*
X135678628Y-47166666D01*
X135678628Y-47166666D02*
X135678628Y-46785714D01*
X135250057Y-47738095D02*
X135202438Y-47785714D01*
X135202438Y-47785714D02*
X135154819Y-47880952D01*
X135154819Y-47880952D02*
X135154819Y-48119047D01*
X135154819Y-48119047D02*
X135202438Y-48214285D01*
X135202438Y-48214285D02*
X135250057Y-48261904D01*
X135250057Y-48261904D02*
X135345295Y-48309523D01*
X135345295Y-48309523D02*
X135440533Y-48309523D01*
X135440533Y-48309523D02*
X135583390Y-48261904D01*
X135583390Y-48261904D02*
X136154819Y-47690476D01*
X136154819Y-47690476D02*
X136154819Y-48309523D01*
X136154819Y-49261904D02*
X136154819Y-48690476D01*
X136154819Y-48976190D02*
X135154819Y-48976190D01*
X135154819Y-48976190D02*
X135297676Y-48880952D01*
X135297676Y-48880952D02*
X135392914Y-48785714D01*
X135392914Y-48785714D02*
X135440533Y-48690476D01*
X162166666Y-126954819D02*
X162499999Y-126478628D01*
X162738094Y-126954819D02*
X162738094Y-125954819D01*
X162738094Y-125954819D02*
X162357142Y-125954819D01*
X162357142Y-125954819D02*
X162261904Y-126002438D01*
X162261904Y-126002438D02*
X162214285Y-126050057D01*
X162214285Y-126050057D02*
X162166666Y-126145295D01*
X162166666Y-126145295D02*
X162166666Y-126288152D01*
X162166666Y-126288152D02*
X162214285Y-126383390D01*
X162214285Y-126383390D02*
X162261904Y-126431009D01*
X162261904Y-126431009D02*
X162357142Y-126478628D01*
X162357142Y-126478628D02*
X162738094Y-126478628D01*
X161595237Y-126383390D02*
X161690475Y-126335771D01*
X161690475Y-126335771D02*
X161738094Y-126288152D01*
X161738094Y-126288152D02*
X161785713Y-126192914D01*
X161785713Y-126192914D02*
X161785713Y-126145295D01*
X161785713Y-126145295D02*
X161738094Y-126050057D01*
X161738094Y-126050057D02*
X161690475Y-126002438D01*
X161690475Y-126002438D02*
X161595237Y-125954819D01*
X161595237Y-125954819D02*
X161404761Y-125954819D01*
X161404761Y-125954819D02*
X161309523Y-126002438D01*
X161309523Y-126002438D02*
X161261904Y-126050057D01*
X161261904Y-126050057D02*
X161214285Y-126145295D01*
X161214285Y-126145295D02*
X161214285Y-126192914D01*
X161214285Y-126192914D02*
X161261904Y-126288152D01*
X161261904Y-126288152D02*
X161309523Y-126335771D01*
X161309523Y-126335771D02*
X161404761Y-126383390D01*
X161404761Y-126383390D02*
X161595237Y-126383390D01*
X161595237Y-126383390D02*
X161690475Y-126431009D01*
X161690475Y-126431009D02*
X161738094Y-126478628D01*
X161738094Y-126478628D02*
X161785713Y-126573866D01*
X161785713Y-126573866D02*
X161785713Y-126764342D01*
X161785713Y-126764342D02*
X161738094Y-126859580D01*
X161738094Y-126859580D02*
X161690475Y-126907200D01*
X161690475Y-126907200D02*
X161595237Y-126954819D01*
X161595237Y-126954819D02*
X161404761Y-126954819D01*
X161404761Y-126954819D02*
X161309523Y-126907200D01*
X161309523Y-126907200D02*
X161261904Y-126859580D01*
X161261904Y-126859580D02*
X161214285Y-126764342D01*
X161214285Y-126764342D02*
X161214285Y-126573866D01*
X161214285Y-126573866D02*
X161261904Y-126478628D01*
X161261904Y-126478628D02*
X161309523Y-126431009D01*
X161309523Y-126431009D02*
X161404761Y-126383390D01*
X145766666Y-126524819D02*
X146099999Y-126048628D01*
X146338094Y-126524819D02*
X146338094Y-125524819D01*
X146338094Y-125524819D02*
X145957142Y-125524819D01*
X145957142Y-125524819D02*
X145861904Y-125572438D01*
X145861904Y-125572438D02*
X145814285Y-125620057D01*
X145814285Y-125620057D02*
X145766666Y-125715295D01*
X145766666Y-125715295D02*
X145766666Y-125858152D01*
X145766666Y-125858152D02*
X145814285Y-125953390D01*
X145814285Y-125953390D02*
X145861904Y-126001009D01*
X145861904Y-126001009D02*
X145957142Y-126048628D01*
X145957142Y-126048628D02*
X146338094Y-126048628D01*
X144909523Y-125858152D02*
X144909523Y-126524819D01*
X145147618Y-125477200D02*
X145385713Y-126191485D01*
X145385713Y-126191485D02*
X144766666Y-126191485D01*
X160742857Y-36654819D02*
X161076190Y-36178628D01*
X161314285Y-36654819D02*
X161314285Y-35654819D01*
X161314285Y-35654819D02*
X160933333Y-35654819D01*
X160933333Y-35654819D02*
X160838095Y-35702438D01*
X160838095Y-35702438D02*
X160790476Y-35750057D01*
X160790476Y-35750057D02*
X160742857Y-35845295D01*
X160742857Y-35845295D02*
X160742857Y-35988152D01*
X160742857Y-35988152D02*
X160790476Y-36083390D01*
X160790476Y-36083390D02*
X160838095Y-36131009D01*
X160838095Y-36131009D02*
X160933333Y-36178628D01*
X160933333Y-36178628D02*
X161314285Y-36178628D01*
X159790476Y-36654819D02*
X160361904Y-36654819D01*
X160076190Y-36654819D02*
X160076190Y-35654819D01*
X160076190Y-35654819D02*
X160171428Y-35797676D01*
X160171428Y-35797676D02*
X160266666Y-35892914D01*
X160266666Y-35892914D02*
X160361904Y-35940533D01*
X159457142Y-35654819D02*
X158790476Y-35654819D01*
X158790476Y-35654819D02*
X159219047Y-36654819D01*
X167254819Y-133757142D02*
X166778628Y-133423809D01*
X167254819Y-133185714D02*
X166254819Y-133185714D01*
X166254819Y-133185714D02*
X166254819Y-133566666D01*
X166254819Y-133566666D02*
X166302438Y-133661904D01*
X166302438Y-133661904D02*
X166350057Y-133709523D01*
X166350057Y-133709523D02*
X166445295Y-133757142D01*
X166445295Y-133757142D02*
X166588152Y-133757142D01*
X166588152Y-133757142D02*
X166683390Y-133709523D01*
X166683390Y-133709523D02*
X166731009Y-133661904D01*
X166731009Y-133661904D02*
X166778628Y-133566666D01*
X166778628Y-133566666D02*
X166778628Y-133185714D01*
X167254819Y-134709523D02*
X167254819Y-134138095D01*
X167254819Y-134423809D02*
X166254819Y-134423809D01*
X166254819Y-134423809D02*
X166397676Y-134328571D01*
X166397676Y-134328571D02*
X166492914Y-134233333D01*
X166492914Y-134233333D02*
X166540533Y-134138095D01*
X166683390Y-135280952D02*
X166635771Y-135185714D01*
X166635771Y-135185714D02*
X166588152Y-135138095D01*
X166588152Y-135138095D02*
X166492914Y-135090476D01*
X166492914Y-135090476D02*
X166445295Y-135090476D01*
X166445295Y-135090476D02*
X166350057Y-135138095D01*
X166350057Y-135138095D02*
X166302438Y-135185714D01*
X166302438Y-135185714D02*
X166254819Y-135280952D01*
X166254819Y-135280952D02*
X166254819Y-135471428D01*
X166254819Y-135471428D02*
X166302438Y-135566666D01*
X166302438Y-135566666D02*
X166350057Y-135614285D01*
X166350057Y-135614285D02*
X166445295Y-135661904D01*
X166445295Y-135661904D02*
X166492914Y-135661904D01*
X166492914Y-135661904D02*
X166588152Y-135614285D01*
X166588152Y-135614285D02*
X166635771Y-135566666D01*
X166635771Y-135566666D02*
X166683390Y-135471428D01*
X166683390Y-135471428D02*
X166683390Y-135280952D01*
X166683390Y-135280952D02*
X166731009Y-135185714D01*
X166731009Y-135185714D02*
X166778628Y-135138095D01*
X166778628Y-135138095D02*
X166873866Y-135090476D01*
X166873866Y-135090476D02*
X167064342Y-135090476D01*
X167064342Y-135090476D02*
X167159580Y-135138095D01*
X167159580Y-135138095D02*
X167207200Y-135185714D01*
X167207200Y-135185714D02*
X167254819Y-135280952D01*
X167254819Y-135280952D02*
X167254819Y-135471428D01*
X167254819Y-135471428D02*
X167207200Y-135566666D01*
X167207200Y-135566666D02*
X167159580Y-135614285D01*
X167159580Y-135614285D02*
X167064342Y-135661904D01*
X167064342Y-135661904D02*
X166873866Y-135661904D01*
X166873866Y-135661904D02*
X166778628Y-135614285D01*
X166778628Y-135614285D02*
X166731009Y-135566666D01*
X166731009Y-135566666D02*
X166683390Y-135471428D01*
X155454819Y-133588095D02*
X156264342Y-133588095D01*
X156264342Y-133588095D02*
X156359580Y-133635714D01*
X156359580Y-133635714D02*
X156407200Y-133683333D01*
X156407200Y-133683333D02*
X156454819Y-133778571D01*
X156454819Y-133778571D02*
X156454819Y-133969047D01*
X156454819Y-133969047D02*
X156407200Y-134064285D01*
X156407200Y-134064285D02*
X156359580Y-134111904D01*
X156359580Y-134111904D02*
X156264342Y-134159523D01*
X156264342Y-134159523D02*
X155454819Y-134159523D01*
X155454819Y-135064285D02*
X155454819Y-134873809D01*
X155454819Y-134873809D02*
X155502438Y-134778571D01*
X155502438Y-134778571D02*
X155550057Y-134730952D01*
X155550057Y-134730952D02*
X155692914Y-134635714D01*
X155692914Y-134635714D02*
X155883390Y-134588095D01*
X155883390Y-134588095D02*
X156264342Y-134588095D01*
X156264342Y-134588095D02*
X156359580Y-134635714D01*
X156359580Y-134635714D02*
X156407200Y-134683333D01*
X156407200Y-134683333D02*
X156454819Y-134778571D01*
X156454819Y-134778571D02*
X156454819Y-134969047D01*
X156454819Y-134969047D02*
X156407200Y-135064285D01*
X156407200Y-135064285D02*
X156359580Y-135111904D01*
X156359580Y-135111904D02*
X156264342Y-135159523D01*
X156264342Y-135159523D02*
X156026247Y-135159523D01*
X156026247Y-135159523D02*
X155931009Y-135111904D01*
X155931009Y-135111904D02*
X155883390Y-135064285D01*
X155883390Y-135064285D02*
X155835771Y-134969047D01*
X155835771Y-134969047D02*
X155835771Y-134778571D01*
X155835771Y-134778571D02*
X155883390Y-134683333D01*
X155883390Y-134683333D02*
X155931009Y-134635714D01*
X155931009Y-134635714D02*
X156026247Y-134588095D01*
X162156666Y-125654819D02*
X162489999Y-125178628D01*
X162728094Y-125654819D02*
X162728094Y-124654819D01*
X162728094Y-124654819D02*
X162347142Y-124654819D01*
X162347142Y-124654819D02*
X162251904Y-124702438D01*
X162251904Y-124702438D02*
X162204285Y-124750057D01*
X162204285Y-124750057D02*
X162156666Y-124845295D01*
X162156666Y-124845295D02*
X162156666Y-124988152D01*
X162156666Y-124988152D02*
X162204285Y-125083390D01*
X162204285Y-125083390D02*
X162251904Y-125131009D01*
X162251904Y-125131009D02*
X162347142Y-125178628D01*
X162347142Y-125178628D02*
X162728094Y-125178628D01*
X161680475Y-125654819D02*
X161489999Y-125654819D01*
X161489999Y-125654819D02*
X161394761Y-125607200D01*
X161394761Y-125607200D02*
X161347142Y-125559580D01*
X161347142Y-125559580D02*
X161251904Y-125416723D01*
X161251904Y-125416723D02*
X161204285Y-125226247D01*
X161204285Y-125226247D02*
X161204285Y-124845295D01*
X161204285Y-124845295D02*
X161251904Y-124750057D01*
X161251904Y-124750057D02*
X161299523Y-124702438D01*
X161299523Y-124702438D02*
X161394761Y-124654819D01*
X161394761Y-124654819D02*
X161585237Y-124654819D01*
X161585237Y-124654819D02*
X161680475Y-124702438D01*
X161680475Y-124702438D02*
X161728094Y-124750057D01*
X161728094Y-124750057D02*
X161775713Y-124845295D01*
X161775713Y-124845295D02*
X161775713Y-125083390D01*
X161775713Y-125083390D02*
X161728094Y-125178628D01*
X161728094Y-125178628D02*
X161680475Y-125226247D01*
X161680475Y-125226247D02*
X161585237Y-125273866D01*
X161585237Y-125273866D02*
X161394761Y-125273866D01*
X161394761Y-125273866D02*
X161299523Y-125226247D01*
X161299523Y-125226247D02*
X161251904Y-125178628D01*
X161251904Y-125178628D02*
X161204285Y-125083390D01*
X136154819Y-43757142D02*
X135678628Y-43423809D01*
X136154819Y-43185714D02*
X135154819Y-43185714D01*
X135154819Y-43185714D02*
X135154819Y-43566666D01*
X135154819Y-43566666D02*
X135202438Y-43661904D01*
X135202438Y-43661904D02*
X135250057Y-43709523D01*
X135250057Y-43709523D02*
X135345295Y-43757142D01*
X135345295Y-43757142D02*
X135488152Y-43757142D01*
X135488152Y-43757142D02*
X135583390Y-43709523D01*
X135583390Y-43709523D02*
X135631009Y-43661904D01*
X135631009Y-43661904D02*
X135678628Y-43566666D01*
X135678628Y-43566666D02*
X135678628Y-43185714D01*
X135250057Y-44138095D02*
X135202438Y-44185714D01*
X135202438Y-44185714D02*
X135154819Y-44280952D01*
X135154819Y-44280952D02*
X135154819Y-44519047D01*
X135154819Y-44519047D02*
X135202438Y-44614285D01*
X135202438Y-44614285D02*
X135250057Y-44661904D01*
X135250057Y-44661904D02*
X135345295Y-44709523D01*
X135345295Y-44709523D02*
X135440533Y-44709523D01*
X135440533Y-44709523D02*
X135583390Y-44661904D01*
X135583390Y-44661904D02*
X136154819Y-44090476D01*
X136154819Y-44090476D02*
X136154819Y-44709523D01*
X135250057Y-45090476D02*
X135202438Y-45138095D01*
X135202438Y-45138095D02*
X135154819Y-45233333D01*
X135154819Y-45233333D02*
X135154819Y-45471428D01*
X135154819Y-45471428D02*
X135202438Y-45566666D01*
X135202438Y-45566666D02*
X135250057Y-45614285D01*
X135250057Y-45614285D02*
X135345295Y-45661904D01*
X135345295Y-45661904D02*
X135440533Y-45661904D01*
X135440533Y-45661904D02*
X135583390Y-45614285D01*
X135583390Y-45614285D02*
X136154819Y-45042857D01*
X136154819Y-45042857D02*
X136154819Y-45661904D01*
X166654819Y-120557142D02*
X166178628Y-120223809D01*
X166654819Y-119985714D02*
X165654819Y-119985714D01*
X165654819Y-119985714D02*
X165654819Y-120366666D01*
X165654819Y-120366666D02*
X165702438Y-120461904D01*
X165702438Y-120461904D02*
X165750057Y-120509523D01*
X165750057Y-120509523D02*
X165845295Y-120557142D01*
X165845295Y-120557142D02*
X165988152Y-120557142D01*
X165988152Y-120557142D02*
X166083390Y-120509523D01*
X166083390Y-120509523D02*
X166131009Y-120461904D01*
X166131009Y-120461904D02*
X166178628Y-120366666D01*
X166178628Y-120366666D02*
X166178628Y-119985714D01*
X166654819Y-121509523D02*
X166654819Y-120938095D01*
X166654819Y-121223809D02*
X165654819Y-121223809D01*
X165654819Y-121223809D02*
X165797676Y-121128571D01*
X165797676Y-121128571D02*
X165892914Y-121033333D01*
X165892914Y-121033333D02*
X165940533Y-120938095D01*
X165654819Y-122414285D02*
X165654819Y-121938095D01*
X165654819Y-121938095D02*
X166131009Y-121890476D01*
X166131009Y-121890476D02*
X166083390Y-121938095D01*
X166083390Y-121938095D02*
X166035771Y-122033333D01*
X166035771Y-122033333D02*
X166035771Y-122271428D01*
X166035771Y-122271428D02*
X166083390Y-122366666D01*
X166083390Y-122366666D02*
X166131009Y-122414285D01*
X166131009Y-122414285D02*
X166226247Y-122461904D01*
X166226247Y-122461904D02*
X166464342Y-122461904D01*
X166464342Y-122461904D02*
X166559580Y-122414285D01*
X166559580Y-122414285D02*
X166607200Y-122366666D01*
X166607200Y-122366666D02*
X166654819Y-122271428D01*
X166654819Y-122271428D02*
X166654819Y-122033333D01*
X166654819Y-122033333D02*
X166607200Y-121938095D01*
X166607200Y-121938095D02*
X166559580Y-121890476D01*
D11*
%TO.C,C2*%
X153860580Y-150810000D02*
X153579420Y-150810000D01*
X153860580Y-149790000D02*
X153579420Y-149790000D01*
%TO.C,C22*%
X156684420Y-131610000D02*
X156965580Y-131610000D01*
X156684420Y-130590000D02*
X156965580Y-130590000D01*
%TO.C,C19*%
X149579420Y-140410000D02*
X149860580Y-140410000D01*
X149579420Y-139390000D02*
X149860580Y-139390000D01*
%TO.C,R7*%
X141120000Y-135156359D02*
X141120000Y-135463641D01*
X141880000Y-135156359D02*
X141880000Y-135463641D01*
%TO.C,R20*%
X164143641Y-127720000D02*
X163836359Y-127720000D01*
X164143641Y-128480000D02*
X163836359Y-128480000D01*
%TO.C,R6*%
X145746359Y-133120000D02*
X146053641Y-133120000D01*
X145746359Y-133880000D02*
X146053641Y-133880000D01*
%TO.C,R16*%
X167720000Y-131546359D02*
X167720000Y-131853641D01*
X168480000Y-131546359D02*
X168480000Y-131853641D01*
%TO.C,R5*%
X140520000Y-117043641D02*
X140520000Y-116736359D01*
X141280000Y-117043641D02*
X141280000Y-116736359D01*
%TO.C,Q2*%
X142562500Y-130890000D02*
X141912500Y-130890000D01*
X142562500Y-130890000D02*
X143212500Y-130890000D01*
X142562500Y-134010000D02*
X141912500Y-134010000D01*
X142562500Y-134010000D02*
X143212500Y-134010000D01*
X143725000Y-130940000D02*
X143485000Y-130610000D01*
X143965000Y-130610000D01*
X143725000Y-130940000D01*
G36*
X143725000Y-130940000D02*
G01*
X143485000Y-130610000D01*
X143965000Y-130610000D01*
X143725000Y-130940000D01*
G37*
%TO.C,Q1*%
X141862500Y-122390000D02*
X141212500Y-122390000D01*
X141862500Y-122390000D02*
X142512500Y-122390000D01*
X141862500Y-125510000D02*
X141212500Y-125510000D01*
X141862500Y-125510000D02*
X142512500Y-125510000D01*
X143025000Y-122440000D02*
X142785000Y-122110000D01*
X143265000Y-122110000D01*
X143025000Y-122440000D01*
G36*
X143025000Y-122440000D02*
G01*
X142785000Y-122110000D01*
X143265000Y-122110000D01*
X143025000Y-122440000D01*
G37*
D12*
%TO.C,U5*%
X166720000Y-125775000D02*
X166720000Y-128975000D01*
X166720000Y-128975000D02*
X168120000Y-128975000D01*
X168120000Y-128975000D02*
X169920000Y-128975000D01*
X169920000Y-125775000D02*
X166720000Y-125775000D01*
X169920000Y-128975000D02*
X169920000Y-125775000D01*
D11*
%TO.C,U1*%
X155600000Y-32225000D02*
X158600000Y-32225000D01*
X155600000Y-35225000D02*
X158600000Y-35225000D01*
X158950000Y-32325000D02*
X158710000Y-31995000D01*
X159190000Y-31995000D01*
X158950000Y-32325000D01*
G36*
X158950000Y-32325000D02*
G01*
X158710000Y-31995000D01*
X159190000Y-31995000D01*
X158950000Y-32325000D01*
G37*
%TO.C,R19*%
X163836359Y-129020000D02*
X164143641Y-129020000D01*
X163836359Y-129780000D02*
X164143641Y-129780000D01*
%TO.C,R10*%
X167220000Y-124053641D02*
X167220000Y-123746359D01*
X167980000Y-124053641D02*
X167980000Y-123746359D01*
%TO.C,R21*%
X134120000Y-47753641D02*
X134120000Y-47446359D01*
X134880000Y-47753641D02*
X134880000Y-47446359D01*
%TO.C,R8*%
X164153641Y-126120000D02*
X163846359Y-126120000D01*
X164153641Y-126880000D02*
X163846359Y-126880000D01*
%TO.C,R4*%
X145446359Y-124520000D02*
X145753641Y-124520000D01*
X145446359Y-125280000D02*
X145753641Y-125280000D01*
%TO.C,R17*%
X157553641Y-35820000D02*
X157246359Y-35820000D01*
X157553641Y-36580000D02*
X157246359Y-36580000D01*
%TO.C,R18*%
X166520000Y-131556359D02*
X166520000Y-131863641D01*
X167280000Y-131556359D02*
X167280000Y-131863641D01*
%TO.C,U6*%
X148090000Y-132440000D02*
X149350000Y-132440000D01*
X148090000Y-136200000D02*
X148090000Y-132440000D01*
X154910000Y-132440000D02*
X153650000Y-132440000D01*
X154910000Y-136200000D02*
X154910000Y-132440000D01*
X155140000Y-137720000D02*
X154810000Y-137480000D01*
X155140000Y-137240000D01*
X155140000Y-137720000D01*
G36*
X155140000Y-137720000D02*
G01*
X154810000Y-137480000D01*
X155140000Y-137240000D01*
X155140000Y-137720000D01*
G37*
%TO.C,R9*%
X163846359Y-124720000D02*
X164153641Y-124720000D01*
X163846359Y-125480000D02*
X164153641Y-125480000D01*
%TO.C,R22*%
X134120000Y-44946359D02*
X134120000Y-45253641D01*
X134880000Y-44946359D02*
X134880000Y-45253641D01*
%TO.C,R15*%
X165820000Y-124053641D02*
X165820000Y-123746359D01*
X166580000Y-124053641D02*
X166580000Y-123746359D01*
%TD*%
%LPC*%
D13*
%TO.C,C2*%
X152945000Y-150300000D03*
X154495000Y-150300000D03*
%TD*%
D14*
%TO.C,C22*%
X156050000Y-131100000D03*
X157600000Y-131100000D03*
%TD*%
%TO.C,C19*%
X148945000Y-139900000D03*
X150495000Y-139900000D03*
%TD*%
D15*
%TO.C,H3*%
X130500000Y-25000000D03*
D16*
X130500000Y-25000000D03*
%TD*%
D15*
%TO.C,H4*%
X175500000Y-25000000D03*
D16*
X175500000Y-25000000D03*
%TD*%
D17*
%TO.C,J8*%
X178000000Y-121000000D03*
D18*
X176400000Y-123000000D03*
D19*
X173900000Y-123000000D03*
%TD*%
D15*
%TO.C,H1*%
X130500000Y-155000000D03*
D16*
X130500000Y-155000000D03*
%TD*%
D20*
%TO.C,J10*%
X151500000Y-154700000D03*
D21*
X156500000Y-154700000D03*
%TD*%
D22*
%TO.C,U2*%
X160550000Y-59290000D03*
X163090000Y-59290000D03*
X165630000Y-59290000D03*
X168170000Y-59290000D03*
X170710000Y-59290000D03*
X173250000Y-59290000D03*
X160550000Y-41510000D03*
X163090000Y-41510000D03*
X165630000Y-41510000D03*
X168170000Y-41510000D03*
X170710000Y-41510000D03*
X173250000Y-41510000D03*
%TD*%
D23*
%TO.C,C1*%
X156202651Y-145800000D03*
D24*
X151202651Y-145800000D03*
%TD*%
D17*
%TO.C,J5*%
X173600000Y-138600000D03*
D25*
X175600000Y-140200000D03*
D26*
X175600000Y-142700000D03*
%TD*%
D17*
%TO.C,J4*%
X130600000Y-138200000D03*
D25*
X132600000Y-139800000D03*
D26*
X132600000Y-142300000D03*
%TD*%
D17*
%TO.C,J2*%
X136075000Y-125400000D03*
D27*
X134075000Y-123800000D03*
D28*
X134075000Y-121300000D03*
X134075000Y-118800000D03*
%TD*%
D29*
%TO.C,J7*%
X156300000Y-25900000D03*
D30*
X158300000Y-25900000D03*
X160300000Y-25900000D03*
X162300000Y-25900000D03*
%TD*%
D22*
%TO.C,U7*%
X159130000Y-81450000D03*
X161670000Y-81450000D03*
X164210000Y-81450000D03*
X166750000Y-81450000D03*
X169290000Y-81450000D03*
X171830000Y-81450000D03*
X174370000Y-81450000D03*
%TD*%
%TO.C,U3*%
X158610000Y-88940000D03*
X158610000Y-91480000D03*
X158610000Y-94020000D03*
X158610000Y-96560000D03*
X158610000Y-99100000D03*
X158610000Y-101640000D03*
X158610000Y-104180000D03*
X158610000Y-106720000D03*
X158610000Y-109260000D03*
%TD*%
D15*
%TO.C,H2*%
X175500000Y-155000000D03*
D16*
X175500000Y-155000000D03*
%TD*%
D22*
%TO.C,U4*%
X130320000Y-101300000D03*
X132860000Y-101300000D03*
X135400000Y-101300000D03*
X137940000Y-101300000D03*
X140480000Y-101300000D03*
X143020000Y-101300000D03*
X145560000Y-101300000D03*
X148100000Y-101300000D03*
%TD*%
D17*
%TO.C,J6*%
X177900000Y-130700000D03*
D18*
X176300000Y-132700000D03*
D19*
X173800000Y-132700000D03*
%TD*%
D17*
%TO.C,J3*%
X138300000Y-130300000D03*
D31*
X136700000Y-132300000D03*
D32*
X134200000Y-132300000D03*
X131700000Y-132300000D03*
%TD*%
D33*
%TO.C,A1*%
X130247500Y-35950000D03*
D34*
X130247500Y-38490000D03*
X130247500Y-41030000D03*
X130247500Y-43570000D03*
X130247500Y-46110000D03*
X130247500Y-48650000D03*
X130247500Y-51190000D03*
X130247500Y-53730000D03*
X130247500Y-56270000D03*
X130247500Y-58810000D03*
X130247500Y-61350000D03*
X130247500Y-63890000D03*
X130247500Y-66430000D03*
X130247500Y-68970000D03*
X130247500Y-71510000D03*
X130247500Y-74050000D03*
X149967500Y-74050000D03*
X149967500Y-71510000D03*
X149967500Y-68970000D03*
X149967500Y-66430000D03*
X149967500Y-63890000D03*
X149967500Y-61350000D03*
X149967500Y-58810000D03*
X149967500Y-56270000D03*
X149967500Y-53730000D03*
X149967500Y-51190000D03*
X149967500Y-48650000D03*
X149967500Y-46110000D03*
%TD*%
D35*
%TO.C,R7*%
X141500000Y-134800000D03*
X141500000Y-135820000D03*
%TD*%
D36*
%TO.C,R20*%
X164500000Y-128100000D03*
X163480000Y-128100000D03*
%TD*%
D37*
%TO.C,R6*%
X145390000Y-133500000D03*
X146410000Y-133500000D03*
%TD*%
D35*
%TO.C,R16*%
X168100000Y-131190000D03*
X168100000Y-132210000D03*
%TD*%
D38*
%TO.C,R5*%
X140900000Y-117400000D03*
X140900000Y-116380000D03*
%TD*%
D39*
%TO.C,Q2*%
X143500000Y-131500000D03*
X143500000Y-133400000D03*
X141625000Y-132450000D03*
%TD*%
%TO.C,Q1*%
X142800000Y-123000000D03*
X142800000Y-124900000D03*
X140925000Y-123950000D03*
%TD*%
D40*
%TO.C,U5*%
X166800000Y-128350000D03*
X166800000Y-127700000D03*
X166800000Y-127050000D03*
X166800000Y-126400000D03*
D41*
X168765000Y-128070000D03*
D42*
X168765000Y-126680000D03*
%TD*%
D43*
%TO.C,U1*%
X158800000Y-32750000D03*
X158800000Y-33400000D03*
X158800000Y-34050000D03*
X158800000Y-34700000D03*
X155400000Y-34700000D03*
X155400000Y-34050000D03*
X155400000Y-33400000D03*
X155400000Y-32750000D03*
%TD*%
D37*
%TO.C,R19*%
X163480000Y-129400000D03*
X164500000Y-129400000D03*
%TD*%
D38*
%TO.C,R10*%
X167600000Y-124410000D03*
X167600000Y-123390000D03*
%TD*%
%TO.C,R21*%
X134500000Y-48110000D03*
X134500000Y-47090000D03*
%TD*%
D36*
%TO.C,R8*%
X164510000Y-126500000D03*
X163490000Y-126500000D03*
%TD*%
D37*
%TO.C,R4*%
X145090000Y-124900000D03*
X146110000Y-124900000D03*
%TD*%
D36*
%TO.C,R17*%
X157910000Y-36200000D03*
X156890000Y-36200000D03*
%TD*%
D35*
%TO.C,R18*%
X166900000Y-131200000D03*
X166900000Y-132220000D03*
%TD*%
D44*
%TO.C,U6*%
X153800000Y-137500000D03*
X151500000Y-137500000D03*
D45*
X151500000Y-131200000D03*
D44*
X149200000Y-137500000D03*
%TD*%
D37*
%TO.C,R9*%
X163490000Y-125100000D03*
X164510000Y-125100000D03*
%TD*%
D35*
%TO.C,R22*%
X134500000Y-44590000D03*
X134500000Y-45610000D03*
%TD*%
D38*
%TO.C,R15*%
X166200000Y-124410000D03*
X166200000Y-123390000D03*
%TD*%
%LPD*%
M02*
