%TF.GenerationSoftware,KiCad,Pcbnew,9.0.1*%
%TF.CreationDate,2025-04-21T23:50:45-04:00*%
%TF.ProjectId,2025SIMPLETVC,32303235-5349-44d5-904c-455456432e6b,rev?*%
%TF.SameCoordinates,Original*%
%TF.FileFunction,Copper,L1,Top*%
%TF.FilePolarity,Positive*%
%FSLAX46Y46*%
G04 Gerber Fmt 4.6, Leading zero omitted, Abs format (unit mm)*
G04 Created by KiCad (PCBNEW 9.0.1) date 2025-04-21 23:50:45*
%MOMM*%
%LPD*%
G01*
G04 APERTURE LIST*
G04 Aperture macros list*
%AMRoundRect*
0 Rectangle with rounded corners*
0 $1 Rounding radius*
0 $2 $3 $4 $5 $6 $7 $8 $9 X,Y pos of 4 corners*
0 Add a 4 corners polygon primitive as box body*
4,1,4,$2,$3,$4,$5,$6,$7,$8,$9,$2,$3,0*
0 Add four circle primitives for the rounded corners*
1,1,$1+$1,$2,$3*
1,1,$1+$1,$4,$5*
1,1,$1+$1,$6,$7*
1,1,$1+$1,$8,$9*
0 Add four rect primitives between the rounded corners*
20,1,$1+$1,$2,$3,$4,$5,0*
20,1,$1+$1,$4,$5,$6,$7,0*
20,1,$1+$1,$6,$7,$8,$9,0*
20,1,$1+$1,$8,$9,$2,$3,0*%
G04 Aperture macros list end*
%TA.AperFunction,ComponentPad*%
%ADD10C,4.700000*%
%TD*%
%TA.AperFunction,ConnectorPad*%
%ADD11C,7.500000*%
%TD*%
%TA.AperFunction,ComponentPad*%
%ADD12RoundRect,0.250000X0.600000X0.750000X-0.600000X0.750000X-0.600000X-0.750000X0.600000X-0.750000X0*%
%TD*%
%TA.AperFunction,ComponentPad*%
%ADD13O,1.700000X2.000000*%
%TD*%
%TA.AperFunction,ComponentPad*%
%ADD14RoundRect,0.760000X-1.140000X-1.140000X1.140000X-1.140000X1.140000X1.140000X-1.140000X1.140000X0*%
%TD*%
%TA.AperFunction,ComponentPad*%
%ADD15C,4.000000*%
%TD*%
%TA.AperFunction,ComponentPad*%
%ADD16C,1.700000*%
%TD*%
%TA.AperFunction,ComponentPad*%
%ADD17R,1.600000X1.600000*%
%TD*%
%TA.AperFunction,ComponentPad*%
%ADD18C,1.600000*%
%TD*%
%TA.AperFunction,ComponentPad*%
%ADD19RoundRect,0.250000X-0.750000X0.600000X-0.750000X-0.600000X0.750000X-0.600000X0.750000X0.600000X0*%
%TD*%
%TA.AperFunction,ComponentPad*%
%ADD20O,2.000000X1.700000*%
%TD*%
%TA.AperFunction,ComponentPad*%
%ADD21RoundRect,0.250000X0.725000X-0.600000X0.725000X0.600000X-0.725000X0.600000X-0.725000X-0.600000X0*%
%TD*%
%TA.AperFunction,ComponentPad*%
%ADD22O,1.950000X1.700000*%
%TD*%
%TA.AperFunction,ComponentPad*%
%ADD23RoundRect,0.250000X-0.350000X-0.625000X0.350000X-0.625000X0.350000X0.625000X-0.350000X0.625000X0*%
%TD*%
%TA.AperFunction,ComponentPad*%
%ADD24O,1.200000X1.750000*%
%TD*%
%TA.AperFunction,ComponentPad*%
%ADD25RoundRect,0.250000X0.600000X0.725000X-0.600000X0.725000X-0.600000X-0.725000X0.600000X-0.725000X0*%
%TD*%
%TA.AperFunction,ComponentPad*%
%ADD26O,1.700000X1.950000*%
%TD*%
%TA.AperFunction,ComponentPad*%
%ADD27RoundRect,0.250000X-1.050000X-0.550000X1.050000X-0.550000X1.050000X0.550000X-1.050000X0.550000X0*%
%TD*%
%TA.AperFunction,ComponentPad*%
%ADD28O,2.600000X1.600000*%
%TD*%
%TA.AperFunction,ViaPad*%
%ADD29C,0.600000*%
%TD*%
%TA.AperFunction,Conductor*%
%ADD30C,0.250000*%
%TD*%
%TA.AperFunction,Conductor*%
%ADD31C,0.200000*%
%TD*%
G04 APERTURE END LIST*
D10*
%TO.P,H3,1,1*%
%TO.N,GND*%
X130500000Y-25000000D03*
D11*
X130500000Y-25000000D03*
%TD*%
D10*
%TO.P,H4,1,1*%
%TO.N,GND*%
X175500000Y-25000000D03*
D11*
X175500000Y-25000000D03*
%TD*%
D12*
%TO.P,J8,1,Pin_1*%
%TO.N,VPYRO*%
X176400000Y-123000000D03*
D13*
%TO.P,J8,2,Pin_2*%
%TO.N,/PYO2*%
X173900000Y-123000000D03*
%TD*%
D10*
%TO.P,H1,1,1*%
%TO.N,GND*%
X130500000Y-155000000D03*
D11*
X130500000Y-155000000D03*
%TD*%
D14*
%TO.P,J10,1,Pin_1*%
%TO.N,GND*%
X151500000Y-154700000D03*
D15*
%TO.P,J10,2,Pin_2*%
%TO.N,VBAT*%
X156500000Y-154700000D03*
%TD*%
D16*
%TO.P,U2,1,VIN*%
%TO.N,+3V3*%
X160550000Y-59290000D03*
%TO.P,U2,2,3Vo*%
%TO.N,unconnected-(U2-3Vo-Pad2)*%
X163090000Y-59290000D03*
%TO.P,U2,3,GND*%
%TO.N,GND*%
X165630000Y-59290000D03*
%TO.P,U2,4,SCL*%
%TO.N,/SCK*%
X168170000Y-59290000D03*
%TO.P,U2,5,SDA*%
%TO.N,/MISO*%
X170710000Y-59290000D03*
%TO.P,U2,6,INT*%
%TO.N,/IMU_INT1*%
X173250000Y-59290000D03*
%TO.P,U2,7,BT*%
%TO.N,unconnected-(U2-BT-Pad7)*%
X160550000Y-41510000D03*
%TO.P,U2,8,P0*%
%TO.N,unconnected-(U2-P0-Pad8)*%
X163090000Y-41510000D03*
%TO.P,U2,9,P1*%
%TO.N,unconnected-(U2-P1-Pad9)*%
X165630000Y-41510000D03*
%TO.P,U2,10,RST*%
%TO.N,/IMU_RST*%
X168170000Y-41510000D03*
%TO.P,U2,11,DI*%
%TO.N,/MOSI*%
X170710000Y-41510000D03*
%TO.P,U2,12,CS*%
%TO.N,/IMU_CS*%
X173250000Y-41510000D03*
%TD*%
D17*
%TO.P,C1,1*%
%TO.N,VBAT*%
X156202651Y-145800000D03*
D18*
%TO.P,C1,2*%
%TO.N,GND*%
X151202651Y-145800000D03*
%TD*%
D19*
%TO.P,J5,1,Pin_1*%
%TO.N,VPYRO*%
X175600000Y-140200000D03*
D20*
%TO.P,J5,2,Pin_2*%
%TO.N,VBAT*%
X175600000Y-142700000D03*
%TD*%
D19*
%TO.P,J4,1,Pin_1*%
%TO.N,VIN*%
X132600000Y-139800000D03*
D20*
%TO.P,J4,2,Pin_2*%
%TO.N,VBAT*%
X132600000Y-142300000D03*
%TD*%
D21*
%TO.P,J2,1,Pin_1*%
%TO.N,/SRV1O*%
X134075000Y-123800000D03*
D22*
%TO.P,J2,2,Pin_2*%
%TO.N,VIN*%
X134075000Y-121300000D03*
%TO.P,J2,3,Pin_3*%
%TO.N,GND*%
X134075000Y-118800000D03*
%TD*%
D23*
%TO.P,J7,1,Pin_1*%
%TO.N,/TX0*%
X156300000Y-25900000D03*
D24*
%TO.P,J7,2,Pin_2*%
%TO.N,/RX0*%
X158300000Y-25900000D03*
%TO.P,J7,3,Pin_3*%
%TO.N,+5V*%
X160300000Y-25900000D03*
%TO.P,J7,4,Pin_4*%
%TO.N,GND*%
X162300000Y-25900000D03*
%TD*%
D16*
%TO.P,U7,1,VIN*%
%TO.N,+3V3*%
X159130000Y-81450000D03*
%TO.P,U7,2,3Vo*%
%TO.N,unconnected-(U7-3Vo-Pad2)*%
X161670000Y-81450000D03*
%TO.P,U7,3,GND*%
%TO.N,GND*%
X164210000Y-81450000D03*
%TO.P,U7,4,SCL*%
%TO.N,/SCK*%
X166750000Y-81450000D03*
%TO.P,U7,5,SDO*%
%TO.N,/MISO*%
X169290000Y-81450000D03*
%TO.P,U7,6,SDA*%
%TO.N,/MOSI*%
X171830000Y-81450000D03*
%TO.P,U7,7,CS*%
%TO.N,/MAG_CS*%
X174370000Y-81450000D03*
%TD*%
%TO.P,U3,1,VIN*%
%TO.N,+3V3*%
X158610000Y-88940000D03*
%TO.P,U3,2,GND*%
%TO.N,GND*%
X158610000Y-91480000D03*
%TO.P,U3,3,CLK*%
%TO.N,/SCK*%
X158610000Y-94020000D03*
%TO.P,U3,4,D0/SO*%
%TO.N,/MISO*%
X158610000Y-96560000D03*
%TO.P,U3,5,CMD/SI*%
%TO.N,/MOSI*%
X158610000Y-99100000D03*
%TO.P,U3,6,D3/CS*%
%TO.N,/SD_CS*%
X158610000Y-101640000D03*
%TO.P,U3,7,D1*%
%TO.N,unconnected-(U3-D1-Pad7)*%
X158610000Y-104180000D03*
%TO.P,U3,8,DAT2*%
%TO.N,unconnected-(U3-DAT2-Pad8)*%
X158610000Y-106720000D03*
%TO.P,U3,9,DET*%
%TO.N,unconnected-(U3-DET-Pad9)*%
X158610000Y-109260000D03*
%TD*%
D10*
%TO.P,H2,1,1*%
%TO.N,GND*%
X175500000Y-155000000D03*
D11*
X175500000Y-155000000D03*
%TD*%
D16*
%TO.P,U4,1,VIN*%
%TO.N,+3V3*%
X130320000Y-101300000D03*
%TO.P,U4,2,3Vo*%
%TO.N,unconnected-(U4-3Vo-Pad2)*%
X132860000Y-101300000D03*
%TO.P,U4,3,GND*%
%TO.N,GND*%
X135400000Y-101300000D03*
%TO.P,U4,4,SCL*%
%TO.N,/SCK*%
X137940000Y-101300000D03*
%TO.P,U4,5,SDO*%
%TO.N,/MISO*%
X140480000Y-101300000D03*
%TO.P,U4,6,SDA*%
%TO.N,/MOSI*%
X143020000Y-101300000D03*
%TO.P,U4,7,CS*%
%TO.N,/ALT_CS*%
X145560000Y-101300000D03*
%TO.P,U4,8,INT*%
%TO.N,unconnected-(U4-INT-Pad8)*%
X148100000Y-101300000D03*
%TD*%
D12*
%TO.P,J6,1,Pin_1*%
%TO.N,VPYRO*%
X176300000Y-132700000D03*
D13*
%TO.P,J6,2,Pin_2*%
%TO.N,/PYO1*%
X173800000Y-132700000D03*
%TD*%
D25*
%TO.P,J3,1,Pin_1*%
%TO.N,/SRV2O*%
X136700000Y-132300000D03*
D26*
%TO.P,J3,2,Pin_2*%
%TO.N,VIN*%
X134200000Y-132300000D03*
%TO.P,J3,3,Pin_3*%
%TO.N,GND*%
X131700000Y-132300000D03*
%TD*%
D27*
%TO.P,A1,1,~{RESET}*%
%TO.N,unconnected-(A1-~{RESET}-Pad1)*%
X130247500Y-35950000D03*
D28*
%TO.P,A1,2,3V3*%
%TO.N,+3V3*%
X130247500Y-38490000D03*
%TO.P,A1,3,AREF*%
%TO.N,unconnected-(A1-AREF-Pad3)*%
X130247500Y-41030000D03*
%TO.P,A1,4,GND*%
%TO.N,GND*%
X130247500Y-43570000D03*
%TO.P,A1,5,A0*%
%TO.N,/VINSENSE*%
X130247500Y-46110000D03*
%TO.P,A1,6,A1*%
%TO.N,/ALT_CS*%
X130247500Y-48650000D03*
%TO.P,A1,7,A2*%
%TO.N,/MAG_CS*%
X130247500Y-51190000D03*
%TO.P,A1,8,A3*%
%TO.N,/IMU_CS*%
X130247500Y-53730000D03*
%TO.P,A1,9,A4*%
%TO.N,/PYC1*%
X130247500Y-56270000D03*
%TO.P,A1,10,A5*%
%TO.N,/PYC2*%
X130247500Y-58810000D03*
%TO.P,A1,11,SCK*%
%TO.N,/SCK*%
X130247500Y-61350000D03*
%TO.P,A1,12,MOSI*%
%TO.N,/MOSI*%
X130247500Y-63890000D03*
%TO.P,A1,13,MISO*%
%TO.N,/MISO*%
X130247500Y-66430000D03*
%TO.P,A1,14,RX*%
%TO.N,/UART0_RX*%
X130247500Y-68970000D03*
%TO.P,A1,15,TX*%
%TO.N,/UART0_TX*%
X130247500Y-71510000D03*
%TO.P,A1,16,SPARE*%
%TO.N,unconnected-(A1-SPARE-Pad16)*%
X130247500Y-74050000D03*
%TO.P,A1,17,SDA*%
%TO.N,unconnected-(A1-SDA-Pad17)*%
X149967500Y-74050000D03*
%TO.P,A1,18,SCL*%
%TO.N,unconnected-(A1-SCL-Pad18)*%
X149967500Y-71510000D03*
%TO.P,A1,19,D0*%
%TO.N,/SRV1*%
X149967500Y-68970000D03*
%TO.P,A1,20,D1*%
%TO.N,/SRV2*%
X149967500Y-66430000D03*
%TO.P,A1,21,D2*%
%TO.N,/PYR1*%
X149967500Y-63890000D03*
%TO.P,A1,22,D3*%
%TO.N,/PYR2*%
X149967500Y-61350000D03*
%TO.P,A1,23,D4*%
%TO.N,/IMU_INT1*%
X149967500Y-58810000D03*
%TO.P,A1,24,D5*%
%TO.N,/IMU_RST*%
X149967500Y-56270000D03*
%TO.P,A1,25,D6*%
%TO.N,/SD_CS*%
X149967500Y-53730000D03*
%TO.P,A1,26,USB*%
%TO.N,unconnected-(A1-USB-Pad26)*%
X149967500Y-51190000D03*
%TO.P,A1,27,EN*%
%TO.N,unconnected-(A1-EN-Pad27)*%
X149967500Y-48650000D03*
%TO.P,A1,28,VBAT*%
%TO.N,+5V*%
X149967500Y-46110000D03*
%TD*%
D29*
%TO.N,/ALT_CS*%
X136600000Y-45600000D03*
%TO.N,/MAG_CS*%
X159500000Y-62800000D03*
X173900000Y-72700000D03*
%TO.N,/UART0_RX*%
X152400000Y-41800000D03*
X134100000Y-52300000D03*
%TO.N,/PYC1*%
X155700000Y-80600000D03*
%TO.N,/PYR1*%
X149497740Y-101300000D03*
X160000000Y-120800000D03*
%TO.N,/UART0_TX*%
X151500000Y-42800000D03*
X135100000Y-54000000D03*
%TO.N,GND*%
X168700000Y-94000000D03*
X146300000Y-49500000D03*
X149900000Y-82100000D03*
X140200000Y-127900000D03*
X178400000Y-63700000D03*
X144500000Y-148300000D03*
X147400000Y-92100000D03*
X167900000Y-83900000D03*
X157900000Y-45600000D03*
X154200000Y-63600000D03*
X146800000Y-40800000D03*
X150900000Y-97500000D03*
X169400000Y-75400000D03*
X140400000Y-63900000D03*
X149200000Y-134200000D03*
X165100000Y-91300000D03*
X154800000Y-100600000D03*
X175000000Y-102500000D03*
X153500000Y-134500000D03*
X176700000Y-48600000D03*
X149900000Y-121200000D03*
X142400000Y-98000000D03*
X169753648Y-31545905D03*
X130100000Y-94700000D03*
X127800000Y-112200000D03*
X168800000Y-107300000D03*
X140500000Y-68100000D03*
X147800000Y-95000000D03*
X156600000Y-97500000D03*
X150301362Y-92910649D03*
X134521413Y-148709119D03*
X157500000Y-64100000D03*
X133600000Y-66700000D03*
X134400000Y-76100000D03*
X140800000Y-75700000D03*
X176400000Y-35300000D03*
X156700000Y-72600000D03*
X167500000Y-50000000D03*
X145108175Y-156480253D03*
X146000000Y-46000000D03*
X168432954Y-137813374D03*
X139000000Y-53000000D03*
X141200000Y-59700000D03*
X148200000Y-67800000D03*
X144400000Y-24100000D03*
X148800000Y-158600000D03*
X159200000Y-159000000D03*
X150700000Y-95400000D03*
X128200000Y-129800000D03*
X139100000Y-134200000D03*
X127500000Y-83600000D03*
X165100000Y-101600000D03*
X139400000Y-39100000D03*
X164200000Y-69200000D03*
X168500000Y-156300000D03*
X147900000Y-129100000D03*
X145130700Y-152020298D03*
X146600000Y-98100000D03*
X140200000Y-71700000D03*
X142179922Y-152696048D03*
X135000000Y-69000000D03*
X143900000Y-71700000D03*
X140100000Y-90700000D03*
X160408427Y-137527530D03*
X127300000Y-145000000D03*
X149500000Y-98000000D03*
X149900000Y-77500000D03*
%TO.N,/PYC2*%
X157000000Y-81600000D03*
%TO.N,/PYR2*%
X160600000Y-119300000D03*
X150400000Y-100200000D03*
%TO.N,/SD_CS*%
X154600000Y-53200000D03*
%TO.N,+3V3*%
X147000000Y-132500000D03*
X147100000Y-124500000D03*
X143300000Y-121200000D03*
X143700000Y-129600000D03*
X161300000Y-34100000D03*
%TD*%
D30*
%TO.N,/ALT_CS*%
X133550000Y-48650000D02*
X129947500Y-48650000D01*
X136600000Y-45600000D02*
X133550000Y-48650000D01*
%TO.N,/MAG_CS*%
X128621500Y-54196404D02*
X128621500Y-52516000D01*
X174370000Y-73170000D02*
X173900000Y-72700000D01*
X174370000Y-81450000D02*
X174370000Y-73170000D01*
X159464000Y-62764000D02*
X138833904Y-62764000D01*
X129325096Y-54900000D02*
X128621500Y-54196404D01*
X130969904Y-54900000D02*
X129325096Y-54900000D01*
X159500000Y-62800000D02*
X159464000Y-62764000D01*
X128621500Y-52516000D02*
X129947500Y-51190000D01*
X138833904Y-62764000D02*
X130969904Y-54900000D01*
%TO.N,/UART0_RX*%
X134100000Y-52300000D02*
X144600000Y-41800000D01*
X144600000Y-41800000D02*
X152400000Y-41800000D01*
%TO.N,/IMU_CS*%
X144093500Y-39584000D02*
X129947500Y-53730000D01*
X171324000Y-39584000D02*
X144093500Y-39584000D01*
X173250000Y-41510000D02*
X171324000Y-39584000D01*
%TO.N,/IMU_INT1*%
X171324000Y-57364000D02*
X151713500Y-57364000D01*
X173250000Y-59290000D02*
X171324000Y-57364000D01*
X151713500Y-57364000D02*
X150267500Y-58810000D01*
%TO.N,/PYC1*%
X155700000Y-80600000D02*
X154277500Y-80600000D01*
X154277500Y-80600000D02*
X129947500Y-56270000D01*
D31*
%TO.N,/MISO*%
X145220000Y-96560000D02*
X140480000Y-101300000D01*
X170710000Y-80030000D02*
X170710000Y-59290000D01*
X137463240Y-102451000D02*
X136551000Y-101538760D01*
X169290000Y-85880000D02*
X158610000Y-96560000D01*
X169290000Y-81450000D02*
X169290000Y-85880000D01*
X136551000Y-73033500D02*
X129947500Y-66430000D01*
X136551000Y-101538760D02*
X136551000Y-73033500D01*
X140480000Y-101300000D02*
X139329000Y-102451000D01*
X158610000Y-96560000D02*
X145220000Y-96560000D01*
X139329000Y-102451000D02*
X137463240Y-102451000D01*
X169290000Y-81450000D02*
X170710000Y-80030000D01*
D30*
%TO.N,/IMU_RST*%
X168170000Y-41510000D02*
X153410000Y-56270000D01*
X153410000Y-56270000D02*
X150267500Y-56270000D01*
%TO.N,/PYR1*%
X149497740Y-101300000D02*
X149497740Y-110297740D01*
X149497740Y-110297740D02*
X160000000Y-120800000D01*
%TO.N,/UART0_TX*%
X135100000Y-54000000D02*
X135100000Y-52200000D01*
X135100000Y-52200000D02*
X144500000Y-42800000D01*
X144500000Y-42800000D02*
X151500000Y-42800000D01*
%TO.N,/PYC2*%
X157000000Y-81600000D02*
X152737500Y-81600000D01*
X152737500Y-81600000D02*
X129947500Y-58810000D01*
%TO.N,/PYR2*%
X150400000Y-109100000D02*
X150400000Y-100200000D01*
X160600000Y-119300000D02*
X150400000Y-109100000D01*
D31*
%TO.N,/SCK*%
X131050000Y-61350000D02*
X129947500Y-61350000D01*
X166750000Y-81450000D02*
X168170000Y-80030000D01*
X137940000Y-68240000D02*
X131050000Y-61350000D01*
X166750000Y-85880000D02*
X166750000Y-81450000D01*
X145220000Y-94020000D02*
X158610000Y-94020000D01*
X168170000Y-80030000D02*
X168170000Y-59290000D01*
X137940000Y-101300000D02*
X145220000Y-94020000D01*
X158610000Y-94020000D02*
X166750000Y-85880000D01*
X137940000Y-101300000D02*
X137940000Y-68240000D01*
%TO.N,/MOSI*%
X174600000Y-45400000D02*
X170710000Y-41510000D01*
X140520000Y-103800000D02*
X135400000Y-103800000D01*
X171830000Y-81450000D02*
X171830000Y-65570000D01*
X128910000Y-63890000D02*
X129947500Y-63890000D01*
X135400000Y-103800000D02*
X134011000Y-102411000D01*
X143020000Y-101300000D02*
X140520000Y-103800000D01*
X134011000Y-84511000D02*
X128100000Y-78600000D01*
X145220000Y-99100000D02*
X158610000Y-99100000D01*
X171830000Y-85880000D02*
X158610000Y-99100000D01*
X174600000Y-62800000D02*
X174600000Y-45400000D01*
X171830000Y-65570000D02*
X174600000Y-62800000D01*
X128100000Y-78600000D02*
X128100000Y-64700000D01*
X128100000Y-64700000D02*
X128910000Y-63890000D01*
X171830000Y-81450000D02*
X171830000Y-85880000D01*
X143020000Y-101300000D02*
X145220000Y-99100000D01*
X134011000Y-102411000D02*
X134011000Y-84511000D01*
D30*
%TO.N,/SD_CS*%
X150697500Y-53300000D02*
X150267500Y-53730000D01*
X154500000Y-53300000D02*
X150697500Y-53300000D01*
X154600000Y-53200000D02*
X154500000Y-53300000D01*
%TO.N,+3V3*%
X143700000Y-129600000D02*
X143800000Y-129500000D01*
%TD*%
%TA.AperFunction,Conductor*%
%TO.N,VPYRO*%
G36*
X177316477Y-121518907D02*
G01*
X177335694Y-121538897D01*
X177336292Y-121538407D01*
X177339370Y-121542158D01*
X177339374Y-121542162D01*
X177457838Y-121660626D01*
X177597137Y-121753703D01*
X177751918Y-121817816D01*
X177916233Y-121850500D01*
X177916234Y-121850500D01*
X178083766Y-121850500D01*
X178083767Y-121850500D01*
X178248082Y-121817816D01*
X178402863Y-121753703D01*
X178542162Y-121660626D01*
X178660626Y-121542162D01*
X178660629Y-121542158D01*
X178663708Y-121538407D01*
X178665073Y-121539527D01*
X178707439Y-121506123D01*
X178741714Y-121500000D01*
X179801000Y-121500000D01*
X179859191Y-121518907D01*
X179895155Y-121568407D01*
X179900000Y-121599000D01*
X179900000Y-141294033D01*
X179881093Y-141352224D01*
X179831593Y-141388188D01*
X179799565Y-141393023D01*
X173697565Y-141304588D01*
X173639655Y-141284839D01*
X173604412Y-141234823D01*
X173600000Y-141205598D01*
X173600000Y-139723021D01*
X173610157Y-139679341D01*
X173705316Y-139485797D01*
X173747955Y-139441922D01*
X173774836Y-139432385D01*
X173848082Y-139417816D01*
X174002863Y-139353703D01*
X174142162Y-139260626D01*
X174260626Y-139142162D01*
X174353703Y-139002863D01*
X174417816Y-138848082D01*
X174450500Y-138683767D01*
X174450500Y-138516233D01*
X174417816Y-138351918D01*
X174364076Y-138222179D01*
X174359275Y-138161182D01*
X174366694Y-138140620D01*
X175075000Y-136700000D01*
X175150000Y-132175000D01*
X175150000Y-130616230D01*
X177049500Y-130616230D01*
X177049500Y-130783769D01*
X177082183Y-130948079D01*
X177082185Y-130948085D01*
X177146296Y-131102862D01*
X177146297Y-131102863D01*
X177239374Y-131242162D01*
X177357838Y-131360626D01*
X177497137Y-131453703D01*
X177651918Y-131517816D01*
X177816233Y-131550500D01*
X177816234Y-131550500D01*
X177983766Y-131550500D01*
X177983767Y-131550500D01*
X178148082Y-131517816D01*
X178302863Y-131453703D01*
X178442162Y-131360626D01*
X178560626Y-131242162D01*
X178653703Y-131102863D01*
X178717816Y-130948082D01*
X178750500Y-130783767D01*
X178750500Y-130616233D01*
X178717816Y-130451918D01*
X178653703Y-130297137D01*
X178560626Y-130157838D01*
X178442162Y-130039374D01*
X178302863Y-129946297D01*
X178302864Y-129946297D01*
X178302862Y-129946296D01*
X178148085Y-129882185D01*
X178148079Y-129882183D01*
X177983769Y-129849500D01*
X177983767Y-129849500D01*
X177816233Y-129849500D01*
X177816230Y-129849500D01*
X177651920Y-129882183D01*
X177651914Y-129882185D01*
X177497137Y-129946296D01*
X177357838Y-130039374D01*
X177357834Y-130039377D01*
X177239377Y-130157834D01*
X177239374Y-130157838D01*
X177146296Y-130297137D01*
X177082185Y-130451914D01*
X177082183Y-130451920D01*
X177049500Y-130616230D01*
X175150000Y-130616230D01*
X175150000Y-121599000D01*
X175168907Y-121540809D01*
X175218407Y-121504845D01*
X175249000Y-121500000D01*
X177258286Y-121500000D01*
X177316477Y-121518907D01*
G37*
%TD.AperFunction*%
%TD*%
%TA.AperFunction,Conductor*%
%TO.N,VBAT*%
G36*
X159200011Y-141300005D02*
G01*
X160500000Y-141900000D01*
X160500000Y-147000000D01*
X160100000Y-147300000D01*
X154000000Y-147100000D01*
X154000000Y-145100000D01*
X153600000Y-144600000D01*
X153599998Y-144599999D01*
X130749191Y-144699785D01*
X130690919Y-144681132D01*
X130670118Y-144660924D01*
X130623528Y-144599999D01*
X129420359Y-143026623D01*
X129400030Y-142968913D01*
X129400000Y-142966485D01*
X129400000Y-141399000D01*
X129418907Y-141340809D01*
X129468407Y-141304845D01*
X129499000Y-141300000D01*
X159199255Y-141300000D01*
X159200011Y-141300005D01*
G37*
%TD.AperFunction*%
%TD*%
%TA.AperFunction,Conductor*%
%TO.N,VBAT*%
G36*
X159200690Y-141300010D02*
G01*
X179802435Y-141598586D01*
X179860345Y-141618335D01*
X179895588Y-141668351D01*
X179900000Y-141697576D01*
X179900000Y-145744372D01*
X179881093Y-145802563D01*
X179852488Y-145828930D01*
X163859766Y-155567072D01*
X159862586Y-158001000D01*
X159723718Y-158085558D01*
X159672230Y-158100000D01*
X154099000Y-158100000D01*
X154040809Y-158081093D01*
X154004845Y-158031593D01*
X154000000Y-158001000D01*
X154000000Y-147100000D01*
X160100000Y-147300000D01*
X160500000Y-147000000D01*
X160500000Y-141900000D01*
X159200011Y-141300005D01*
X159200690Y-141300010D01*
G37*
%TD.AperFunction*%
%TD*%
%TA.AperFunction,Conductor*%
%TO.N,VIN*%
G36*
X135459191Y-120018907D02*
G01*
X135495155Y-120068407D01*
X135500000Y-120099000D01*
X135500000Y-124731204D01*
X135481093Y-124789395D01*
X135471004Y-124801208D01*
X135414377Y-124857834D01*
X135414374Y-124857838D01*
X135321296Y-124997137D01*
X135257185Y-125151914D01*
X135257183Y-125151920D01*
X135224500Y-125316230D01*
X135224500Y-125483769D01*
X135257183Y-125648079D01*
X135257185Y-125648085D01*
X135321296Y-125802862D01*
X135321297Y-125802863D01*
X135414374Y-125942162D01*
X135414377Y-125942165D01*
X135461161Y-125988949D01*
X135488938Y-126043466D01*
X135489975Y-126064958D01*
X135345945Y-128435045D01*
X135345944Y-128435054D01*
X135403716Y-133634407D01*
X135485013Y-140951188D01*
X135466753Y-141009585D01*
X135417656Y-141046097D01*
X135387144Y-141051282D01*
X131584530Y-141094494D01*
X131583405Y-141094500D01*
X129499000Y-141094500D01*
X129440809Y-141075593D01*
X129404845Y-141026093D01*
X129400000Y-140995500D01*
X129400000Y-140400432D01*
X129400005Y-140399480D01*
X129421959Y-138116230D01*
X129749500Y-138116230D01*
X129749500Y-138283769D01*
X129782183Y-138448079D01*
X129782185Y-138448085D01*
X129846296Y-138602862D01*
X129846297Y-138602863D01*
X129939374Y-138742162D01*
X130057838Y-138860626D01*
X130197137Y-138953703D01*
X130351918Y-139017816D01*
X130516233Y-139050500D01*
X130516234Y-139050500D01*
X130683766Y-139050500D01*
X130683767Y-139050500D01*
X130848082Y-139017816D01*
X131002863Y-138953703D01*
X131142162Y-138860626D01*
X131260626Y-138742162D01*
X131353703Y-138602863D01*
X131417816Y-138448082D01*
X131450500Y-138283767D01*
X131450500Y-138116233D01*
X131417816Y-137951918D01*
X131353703Y-137797137D01*
X131260626Y-137657838D01*
X131142162Y-137539374D01*
X131002863Y-137446297D01*
X131002864Y-137446297D01*
X131002862Y-137446296D01*
X130848085Y-137382185D01*
X130848079Y-137382183D01*
X130683769Y-137349500D01*
X130683767Y-137349500D01*
X130516233Y-137349500D01*
X130516230Y-137349500D01*
X130351920Y-137382183D01*
X130351914Y-137382185D01*
X130197137Y-137446296D01*
X130057838Y-137539374D01*
X130057834Y-137539377D01*
X129939377Y-137657834D01*
X129939374Y-137657838D01*
X129846296Y-137797137D01*
X129782185Y-137951914D01*
X129782183Y-137951920D01*
X129749500Y-138116230D01*
X129421959Y-138116230D01*
X129422015Y-138110417D01*
X129425028Y-137797137D01*
X129466970Y-133435130D01*
X129480082Y-132071532D01*
X130649500Y-132071532D01*
X130649500Y-132528467D01*
X130689869Y-132731418D01*
X130769058Y-132922597D01*
X130769059Y-132922598D01*
X130884023Y-133094655D01*
X131030345Y-133240977D01*
X131202402Y-133355941D01*
X131393580Y-133435130D01*
X131596535Y-133475500D01*
X131596536Y-133475500D01*
X131803464Y-133475500D01*
X131803465Y-133475500D01*
X132006420Y-133435130D01*
X132197598Y-133355941D01*
X132369655Y-133240977D01*
X132515977Y-133094655D01*
X132630941Y-132922598D01*
X132710130Y-132731420D01*
X132750500Y-132528465D01*
X132750500Y-132071535D01*
X132710130Y-131868580D01*
X132630941Y-131677402D01*
X132515977Y-131505345D01*
X132369655Y-131359023D01*
X132197598Y-131244059D01*
X132197599Y-131244059D01*
X132197597Y-131244058D01*
X132006418Y-131164869D01*
X131803467Y-131124500D01*
X131803465Y-131124500D01*
X131596535Y-131124500D01*
X131596532Y-131124500D01*
X131393581Y-131164869D01*
X131202402Y-131244058D01*
X131030348Y-131359020D01*
X130884020Y-131505348D01*
X130769058Y-131677402D01*
X130689869Y-131868581D01*
X130649500Y-132071532D01*
X129480082Y-132071532D01*
X129480138Y-132065719D01*
X129500000Y-130000044D01*
X129500000Y-123145725D01*
X132899500Y-123145725D01*
X132899500Y-124454274D01*
X132902353Y-124484694D01*
X132902355Y-124484703D01*
X132947207Y-124612883D01*
X133027845Y-124722144D01*
X133027847Y-124722146D01*
X133027850Y-124722150D01*
X133027853Y-124722152D01*
X133027855Y-124722154D01*
X133137116Y-124802792D01*
X133137117Y-124802792D01*
X133137118Y-124802793D01*
X133265301Y-124847646D01*
X133295725Y-124850499D01*
X133295727Y-124850500D01*
X133295734Y-124850500D01*
X134854273Y-124850500D01*
X134854273Y-124850499D01*
X134884699Y-124847646D01*
X135012882Y-124802793D01*
X135122150Y-124722150D01*
X135202793Y-124612882D01*
X135247646Y-124484699D01*
X135250499Y-124454273D01*
X135250500Y-124454273D01*
X135250500Y-123145727D01*
X135250499Y-123145725D01*
X135247646Y-123115305D01*
X135247646Y-123115301D01*
X135202793Y-122987118D01*
X135122150Y-122877850D01*
X135122146Y-122877847D01*
X135122144Y-122877845D01*
X135012883Y-122797207D01*
X134884703Y-122752355D01*
X134884694Y-122752353D01*
X134854274Y-122749500D01*
X134854266Y-122749500D01*
X133295734Y-122749500D01*
X133295725Y-122749500D01*
X133265305Y-122752353D01*
X133265296Y-122752355D01*
X133137116Y-122797207D01*
X133027855Y-122877845D01*
X133027845Y-122877855D01*
X132947207Y-122987116D01*
X132902355Y-123115296D01*
X132902353Y-123115305D01*
X132899500Y-123145725D01*
X129500000Y-123145725D01*
X129500000Y-122627185D01*
X129513885Y-122576625D01*
X129559402Y-122500000D01*
X129998012Y-121761627D01*
X130002230Y-121755121D01*
X130897917Y-120486237D01*
X131211564Y-120041908D01*
X131260569Y-120005272D01*
X131292444Y-120000000D01*
X135401000Y-120000000D01*
X135459191Y-120018907D01*
G37*
%TD.AperFunction*%
%TD*%
%TA.AperFunction,Conductor*%
%TO.N,GND*%
G36*
X131917001Y-58699828D02*
G01*
X154077638Y-80860465D01*
X154077640Y-80860466D01*
X154077642Y-80860468D01*
X154151857Y-80903316D01*
X154151855Y-80903316D01*
X154151859Y-80903317D01*
X154151861Y-80903318D01*
X154234647Y-80925500D01*
X154320353Y-80925500D01*
X155276678Y-80925500D01*
X155334869Y-80944407D01*
X155346681Y-80954496D01*
X155392684Y-81000499D01*
X155392690Y-81000503D01*
X155506810Y-81066390D01*
X155506808Y-81066390D01*
X155506812Y-81066391D01*
X155506814Y-81066392D01*
X155557129Y-81079873D01*
X155608442Y-81113197D01*
X155630369Y-81170319D01*
X155614533Y-81229419D01*
X155566984Y-81267924D01*
X155531505Y-81274500D01*
X152913335Y-81274500D01*
X152855144Y-81255593D01*
X152843331Y-81245504D01*
X131350501Y-59752674D01*
X131322724Y-59698157D01*
X131332295Y-59637725D01*
X131365504Y-59600354D01*
X131385282Y-59587139D01*
X131524639Y-59447782D01*
X131634132Y-59283914D01*
X131709551Y-59101835D01*
X131748000Y-58908541D01*
X131748000Y-58769834D01*
X131766907Y-58711643D01*
X131816407Y-58675679D01*
X131877593Y-58675679D01*
X131917001Y-58699828D01*
G37*
%TD.AperFunction*%
%TA.AperFunction,Conductor*%
G36*
X179958691Y-20519407D02*
G01*
X179994655Y-20568907D01*
X179999500Y-20599500D01*
X179999500Y-121212158D01*
X179980593Y-121270349D01*
X179931093Y-121306313D01*
X179869911Y-121306314D01*
X179864500Y-121304556D01*
X179801003Y-121294500D01*
X179801000Y-121294500D01*
X178929215Y-121294500D01*
X178871024Y-121275593D01*
X178835060Y-121226093D01*
X178832117Y-121176186D01*
X178840486Y-121134109D01*
X178850500Y-121083767D01*
X178850500Y-120916233D01*
X178817816Y-120751918D01*
X178753703Y-120597137D01*
X178660626Y-120457838D01*
X178542162Y-120339374D01*
X178402863Y-120246297D01*
X178402864Y-120246297D01*
X178402862Y-120246296D01*
X178248085Y-120182185D01*
X178248079Y-120182183D01*
X178083769Y-120149500D01*
X178083767Y-120149500D01*
X177916233Y-120149500D01*
X177916230Y-120149500D01*
X177751920Y-120182183D01*
X177751914Y-120182185D01*
X177597137Y-120246296D01*
X177457838Y-120339374D01*
X177457834Y-120339377D01*
X177339377Y-120457834D01*
X177339374Y-120457838D01*
X177246296Y-120597137D01*
X177182185Y-120751914D01*
X177182183Y-120751920D01*
X177149500Y-120916230D01*
X177149500Y-121083769D01*
X177167883Y-121176186D01*
X177160691Y-121236947D01*
X177119158Y-121281877D01*
X177070785Y-121294500D01*
X175249000Y-121294500D01*
X175216856Y-121297030D01*
X175186206Y-121301883D01*
X175181718Y-121302646D01*
X175181713Y-121302647D01*
X175097617Y-121338591D01*
X175048118Y-121374555D01*
X175020372Y-121398797D01*
X174973464Y-121477307D01*
X174973462Y-121477310D01*
X174954556Y-121535499D01*
X174944500Y-121598996D01*
X174944500Y-122195994D01*
X174925593Y-122254185D01*
X174876093Y-122290149D01*
X174814907Y-122290149D01*
X174765407Y-122254185D01*
X174763185Y-122250996D01*
X174715980Y-122180349D01*
X174715979Y-122180348D01*
X174715977Y-122180345D01*
X174569655Y-122034023D01*
X174397598Y-121919059D01*
X174397599Y-121919059D01*
X174397597Y-121919058D01*
X174206418Y-121839869D01*
X174003467Y-121799500D01*
X174003465Y-121799500D01*
X173796535Y-121799500D01*
X173796532Y-121799500D01*
X173593581Y-121839869D01*
X173402402Y-121919058D01*
X173230348Y-122034020D01*
X173084020Y-122180348D01*
X172969058Y-122352402D01*
X172889869Y-122543581D01*
X172849500Y-122746532D01*
X172849500Y-123253467D01*
X172889869Y-123456418D01*
X172969058Y-123647597D01*
X172969059Y-123647598D01*
X173084023Y-123819655D01*
X173230345Y-123965977D01*
X173402402Y-124080941D01*
X173593580Y-124160130D01*
X173796535Y-124200500D01*
X173796536Y-124200500D01*
X174003464Y-124200500D01*
X174003465Y-124200500D01*
X174206420Y-124160130D01*
X174397598Y-124080941D01*
X174569655Y-123965977D01*
X174715977Y-123819655D01*
X174763184Y-123749003D01*
X174811234Y-123711124D01*
X174872372Y-123708722D01*
X174923246Y-123742714D01*
X174944424Y-123800118D01*
X174944500Y-123804005D01*
X174944500Y-132070272D01*
X174925593Y-132128463D01*
X174876093Y-132164427D01*
X174814907Y-132164427D01*
X174765407Y-132128463D01*
X174754036Y-132108158D01*
X174730941Y-132052402D01*
X174615979Y-131880348D01*
X174615977Y-131880345D01*
X174469655Y-131734023D01*
X174335605Y-131644454D01*
X174297597Y-131619058D01*
X174106418Y-131539869D01*
X173903467Y-131499500D01*
X173903465Y-131499500D01*
X173696535Y-131499500D01*
X173696532Y-131499500D01*
X173493581Y-131539869D01*
X173302402Y-131619058D01*
X173130348Y-131734020D01*
X172984020Y-131880348D01*
X172869058Y-132052402D01*
X172789869Y-132243581D01*
X172749500Y-132446532D01*
X172749500Y-132953467D01*
X172789869Y-133156418D01*
X172869058Y-133347597D01*
X172984020Y-133519651D01*
X172984023Y-133519655D01*
X173130345Y-133665977D01*
X173302402Y-133780941D01*
X173493580Y-133860130D01*
X173696535Y-133900500D01*
X173696536Y-133900500D01*
X173903464Y-133900500D01*
X173903465Y-133900500D01*
X174106420Y-133860130D01*
X174297598Y-133780941D01*
X174469655Y-133665977D01*
X174615977Y-133519655D01*
X174730941Y-133347598D01*
X174734054Y-133340080D01*
X174773786Y-133293556D01*
X174833280Y-133279269D01*
X174889809Y-133302679D01*
X174921782Y-133354846D01*
X174924505Y-133379605D01*
X174870657Y-136628450D01*
X174860513Y-136670490D01*
X174263148Y-137885467D01*
X174220506Y-137929345D01*
X174160217Y-137939778D01*
X174119304Y-137924101D01*
X174002862Y-137846296D01*
X173848085Y-137782185D01*
X173848079Y-137782183D01*
X173683769Y-137749500D01*
X173683767Y-137749500D01*
X173516233Y-137749500D01*
X173516230Y-137749500D01*
X173351920Y-137782183D01*
X173351914Y-137782185D01*
X173197137Y-137846296D01*
X173057838Y-137939374D01*
X173057834Y-137939377D01*
X172939377Y-138057834D01*
X172939374Y-138057838D01*
X172846296Y-138197137D01*
X172782185Y-138351914D01*
X172782183Y-138351920D01*
X172749500Y-138516230D01*
X172749500Y-138683769D01*
X172782183Y-138848079D01*
X172782185Y-138848085D01*
X172846296Y-139002862D01*
X172846297Y-139002863D01*
X172939374Y-139142162D01*
X173057838Y-139260626D01*
X173197137Y-139353703D01*
X173351918Y-139417816D01*
X173369299Y-139421273D01*
X173422683Y-139451169D01*
X173448300Y-139506733D01*
X173438830Y-139562049D01*
X173425742Y-139588670D01*
X173425739Y-139588677D01*
X173409998Y-139632791D01*
X173409993Y-139632808D01*
X173399842Y-139676462D01*
X173399841Y-139676469D01*
X173394500Y-139723024D01*
X173394500Y-141199750D01*
X173375593Y-141257941D01*
X173326093Y-141293905D01*
X173294065Y-141298740D01*
X159205135Y-141094553D01*
X159204730Y-141094531D01*
X159200666Y-141094504D01*
X159200260Y-141094502D01*
X159199255Y-141094500D01*
X159199107Y-141094500D01*
X135783714Y-141094500D01*
X135725523Y-141075593D01*
X135689559Y-141026093D01*
X135685767Y-140981100D01*
X135686767Y-140974291D01*
X135690500Y-140948905D01*
X135609203Y-133632124D01*
X135606803Y-133416201D01*
X135625063Y-133357807D01*
X135674160Y-133321295D01*
X135735341Y-133320615D01*
X135775801Y-133345100D01*
X135777847Y-133347146D01*
X135777850Y-133347150D01*
X135777853Y-133347152D01*
X135777855Y-133347154D01*
X135887116Y-133427792D01*
X135887117Y-133427792D01*
X135887118Y-133427793D01*
X136015301Y-133472646D01*
X136045725Y-133475499D01*
X136045727Y-133475500D01*
X136045734Y-133475500D01*
X137354273Y-133475500D01*
X137354273Y-133475499D01*
X137384699Y-133472646D01*
X137512882Y-133427793D01*
X137622150Y-133347150D01*
X137702793Y-133237882D01*
X137747646Y-133109699D01*
X137750499Y-133079273D01*
X137750500Y-133079273D01*
X137750500Y-132434108D01*
X146499500Y-132434108D01*
X146499500Y-132565892D01*
X146525228Y-132661910D01*
X146533609Y-132693190D01*
X146599496Y-132807309D01*
X146599498Y-132807311D01*
X146599500Y-132807314D01*
X146692686Y-132900500D01*
X146692688Y-132900501D01*
X146692690Y-132900503D01*
X146806810Y-132966390D01*
X146806808Y-132966390D01*
X146806812Y-132966391D01*
X146806814Y-132966392D01*
X146934108Y-133000500D01*
X146934110Y-133000500D01*
X147065890Y-133000500D01*
X147065892Y-133000500D01*
X147193186Y-132966392D01*
X147193188Y-132966390D01*
X147193190Y-132966390D01*
X147307309Y-132900503D01*
X147307309Y-132900502D01*
X147307314Y-132900500D01*
X147400500Y-132807314D01*
X147466392Y-132693186D01*
X147500500Y-132565892D01*
X147500500Y-132434108D01*
X147466392Y-132306814D01*
X147466390Y-132306811D01*
X147466390Y-132306809D01*
X147400503Y-132192690D01*
X147400501Y-132192688D01*
X147400500Y-132192686D01*
X147307314Y-132099500D01*
X147307311Y-132099498D01*
X147307309Y-132099496D01*
X147193189Y-132033609D01*
X147193191Y-132033609D01*
X147143799Y-132020375D01*
X147065892Y-131999500D01*
X146934108Y-131999500D01*
X146856200Y-132020375D01*
X146806809Y-132033609D01*
X146692690Y-132099496D01*
X146599496Y-132192690D01*
X146533609Y-132306809D01*
X146533608Y-132306814D01*
X146499500Y-132434108D01*
X137750500Y-132434108D01*
X137750500Y-131520727D01*
X137750499Y-131520725D01*
X137749796Y-131513226D01*
X137747646Y-131490301D01*
X137702793Y-131362118D01*
X137622154Y-131252856D01*
X137622154Y-131252855D01*
X137622152Y-131252853D01*
X137622150Y-131252850D01*
X137622146Y-131252847D01*
X137622144Y-131252845D01*
X137512883Y-131172207D01*
X137384703Y-131127355D01*
X137384694Y-131127353D01*
X137354274Y-131124500D01*
X137354266Y-131124500D01*
X136045734Y-131124500D01*
X136045725Y-131124500D01*
X136015305Y-131127353D01*
X136015296Y-131127355D01*
X135887116Y-131172207D01*
X135777855Y-131252845D01*
X135777844Y-131252856D01*
X135761026Y-131275644D01*
X135711258Y-131311236D01*
X135650074Y-131310778D01*
X135600845Y-131274444D01*
X135582378Y-131217955D01*
X135581628Y-131150499D01*
X135571247Y-130216230D01*
X137449500Y-130216230D01*
X137449500Y-130383769D01*
X137482183Y-130548079D01*
X137482185Y-130548085D01*
X137546296Y-130702862D01*
X137546297Y-130702863D01*
X137639374Y-130842162D01*
X137757838Y-130960626D01*
X137897137Y-131053703D01*
X138051918Y-131117816D01*
X138216233Y-131150500D01*
X138216234Y-131150500D01*
X138383766Y-131150500D01*
X138383767Y-131150500D01*
X138548082Y-131117816D01*
X138702863Y-131053703D01*
X138842162Y-130960626D01*
X138960626Y-130842162D01*
X139053703Y-130702863D01*
X139117816Y-130548082D01*
X139150500Y-130383767D01*
X139150500Y-130216233D01*
X139117816Y-130051918D01*
X139053703Y-129897137D01*
X138960626Y-129757838D01*
X138842162Y-129639374D01*
X138702863Y-129546297D01*
X138702864Y-129546297D01*
X138702862Y-129546296D01*
X138673438Y-129534108D01*
X143199500Y-129534108D01*
X143199500Y-129665892D01*
X143224136Y-129757834D01*
X143233609Y-129793190D01*
X143299496Y-129907309D01*
X143299498Y-129907311D01*
X143299500Y-129907314D01*
X143392686Y-130000500D01*
X143392688Y-130000501D01*
X143392690Y-130000503D01*
X143506810Y-130066390D01*
X143506808Y-130066390D01*
X143506812Y-130066391D01*
X143506814Y-130066392D01*
X143634108Y-130100500D01*
X143634110Y-130100500D01*
X143765890Y-130100500D01*
X143765892Y-130100500D01*
X143893186Y-130066392D01*
X143893188Y-130066390D01*
X143893190Y-130066390D01*
X144007309Y-130000503D01*
X144007309Y-130000502D01*
X144007314Y-130000500D01*
X144100500Y-129907314D01*
X144166392Y-129793186D01*
X144200500Y-129665892D01*
X144200500Y-129534108D01*
X144166392Y-129406814D01*
X144166390Y-129406811D01*
X144166390Y-129406809D01*
X144100503Y-129292690D01*
X144100501Y-129292688D01*
X144100500Y-129292686D01*
X144007314Y-129199500D01*
X144007311Y-129199498D01*
X144007309Y-129199496D01*
X143893189Y-129133609D01*
X143893191Y-129133609D01*
X143843799Y-129120375D01*
X143765892Y-129099500D01*
X143634108Y-129099500D01*
X143556200Y-129120375D01*
X143506809Y-129133609D01*
X143392690Y-129199496D01*
X143299496Y-129292690D01*
X143233609Y-129406809D01*
X143233608Y-129406814D01*
X143199500Y-129534108D01*
X138673438Y-129534108D01*
X138548085Y-129482185D01*
X138548079Y-129482183D01*
X138383769Y-129449500D01*
X138383767Y-129449500D01*
X138216233Y-129449500D01*
X138216230Y-129449500D01*
X138051920Y-129482183D01*
X138051914Y-129482185D01*
X137897137Y-129546296D01*
X137757838Y-129639374D01*
X137757834Y-129639377D01*
X137639377Y-129757834D01*
X137639374Y-129757838D01*
X137546296Y-129897137D01*
X137482185Y-130051914D01*
X137482183Y-130051920D01*
X137449500Y-130216230D01*
X135571247Y-130216230D01*
X135551552Y-128443704D01*
X135551727Y-128436629D01*
X135681588Y-126299700D01*
X135703991Y-126242765D01*
X135755581Y-126209870D01*
X135816654Y-126213581D01*
X135818291Y-126214243D01*
X135826910Y-126217813D01*
X135826912Y-126217813D01*
X135826918Y-126217816D01*
X135991233Y-126250500D01*
X135991234Y-126250500D01*
X136158766Y-126250500D01*
X136158767Y-126250500D01*
X136323082Y-126217816D01*
X136477863Y-126153703D01*
X136617162Y-126060626D01*
X136735626Y-125942162D01*
X136828703Y-125802863D01*
X136892816Y-125648082D01*
X136925500Y-125483767D01*
X136925500Y-125316233D01*
X136892816Y-125151918D01*
X136828703Y-124997137D01*
X136735626Y-124857838D01*
X136617162Y-124739374D01*
X136477863Y-124646297D01*
X136477864Y-124646297D01*
X136477862Y-124646296D01*
X136323085Y-124582185D01*
X136323079Y-124582183D01*
X136158769Y-124549500D01*
X136158767Y-124549500D01*
X135991233Y-124549500D01*
X135991229Y-124549500D01*
X135823814Y-124582801D01*
X135798950Y-124579858D01*
X135773907Y-124579858D01*
X135769033Y-124576316D01*
X135763052Y-124575609D01*
X135744667Y-124558614D01*
X135724407Y-124543894D01*
X135722545Y-124538163D01*
X135718123Y-124534076D01*
X135705500Y-124485703D01*
X135705500Y-124434108D01*
X146599500Y-124434108D01*
X146599500Y-124565892D01*
X146603866Y-124582185D01*
X146633609Y-124693190D01*
X146699496Y-124807309D01*
X146699498Y-124807311D01*
X146699500Y-124807314D01*
X146792686Y-124900500D01*
X146792688Y-124900501D01*
X146792690Y-124900503D01*
X146906810Y-124966390D01*
X146906808Y-124966390D01*
X146906812Y-124966391D01*
X146906814Y-124966392D01*
X147034108Y-125000500D01*
X147034110Y-125000500D01*
X147165890Y-125000500D01*
X147165892Y-125000500D01*
X147293186Y-124966392D01*
X147293188Y-124966390D01*
X147293190Y-124966390D01*
X147407309Y-124900503D01*
X147407309Y-124900502D01*
X147407314Y-124900500D01*
X147500500Y-124807314D01*
X147539724Y-124739377D01*
X147566390Y-124693190D01*
X147566390Y-124693188D01*
X147566392Y-124693186D01*
X147600500Y-124565892D01*
X147600500Y-124434108D01*
X147566392Y-124306814D01*
X147566390Y-124306811D01*
X147566390Y-124306809D01*
X147500503Y-124192690D01*
X147500501Y-124192688D01*
X147500500Y-124192686D01*
X147407314Y-124099500D01*
X147407311Y-124099498D01*
X147407309Y-124099496D01*
X147293189Y-124033609D01*
X147293191Y-124033609D01*
X147243799Y-124020375D01*
X147165892Y-123999500D01*
X147034108Y-123999500D01*
X146956200Y-124020375D01*
X146906809Y-124033609D01*
X146792690Y-124099496D01*
X146699496Y-124192690D01*
X146633609Y-124306809D01*
X146633608Y-124306814D01*
X146599500Y-124434108D01*
X135705500Y-124434108D01*
X135705500Y-121134108D01*
X142799500Y-121134108D01*
X142799500Y-121265892D01*
X142818980Y-121338592D01*
X142833609Y-121393190D01*
X142899496Y-121507309D01*
X142899498Y-121507311D01*
X142899500Y-121507314D01*
X142992686Y-121600500D01*
X142992688Y-121600501D01*
X142992690Y-121600503D01*
X143106810Y-121666390D01*
X143106808Y-121666390D01*
X143106812Y-121666391D01*
X143106814Y-121666392D01*
X143234108Y-121700500D01*
X143234110Y-121700500D01*
X143365890Y-121700500D01*
X143365892Y-121700500D01*
X143493186Y-121666392D01*
X143493188Y-121666390D01*
X143493190Y-121666390D01*
X143607309Y-121600503D01*
X143607309Y-121600502D01*
X143607314Y-121600500D01*
X143700500Y-121507314D01*
X143717825Y-121477307D01*
X143766390Y-121393190D01*
X143766390Y-121393188D01*
X143766392Y-121393186D01*
X143800500Y-121265892D01*
X143800500Y-121134108D01*
X143766392Y-121006814D01*
X143766390Y-121006811D01*
X143766390Y-121006809D01*
X143700503Y-120892690D01*
X143700501Y-120892688D01*
X143700500Y-120892686D01*
X143607314Y-120799500D01*
X143607311Y-120799498D01*
X143607309Y-120799496D01*
X143493189Y-120733609D01*
X143493191Y-120733609D01*
X143443799Y-120720375D01*
X143365892Y-120699500D01*
X143234108Y-120699500D01*
X143156200Y-120720375D01*
X143106809Y-120733609D01*
X142992690Y-120799496D01*
X142899496Y-120892690D01*
X142833609Y-121006809D01*
X142833608Y-121006814D01*
X142799500Y-121134108D01*
X135705500Y-121134108D01*
X135705500Y-120099006D01*
X135705500Y-120099000D01*
X135702970Y-120066856D01*
X135698125Y-120036263D01*
X135698116Y-120036206D01*
X135697353Y-120031718D01*
X135697352Y-120031713D01*
X135661408Y-119947617D01*
X135625444Y-119898117D01*
X135601203Y-119870372D01*
X135522693Y-119823464D01*
X135522691Y-119823463D01*
X135522689Y-119823462D01*
X135464499Y-119804556D01*
X135464500Y-119804556D01*
X135401003Y-119794500D01*
X135401000Y-119794500D01*
X131292444Y-119794500D01*
X131258921Y-119797252D01*
X131258911Y-119797254D01*
X131227036Y-119802526D01*
X131227010Y-119802530D01*
X131226990Y-119802534D01*
X131221124Y-119803593D01*
X131221117Y-119803594D01*
X131137525Y-119840680D01*
X131137521Y-119840682D01*
X131088519Y-119877315D01*
X131088516Y-119877318D01*
X131043679Y-119923397D01*
X131043675Y-119923402D01*
X130743944Y-120348017D01*
X130743943Y-120348018D01*
X129834324Y-121636637D01*
X129829813Y-121643306D01*
X129825575Y-121649841D01*
X129821315Y-121656703D01*
X129337209Y-122471667D01*
X129337207Y-122471670D01*
X129315723Y-122522201D01*
X129301835Y-122572770D01*
X129294500Y-122627180D01*
X129294500Y-129998572D01*
X129294495Y-129999524D01*
X129274591Y-132069554D01*
X129274591Y-132069556D01*
X129274377Y-132091770D01*
X129219537Y-137795161D01*
X129216860Y-138073525D01*
X129216860Y-138073527D01*
X129216254Y-138136467D01*
X129194515Y-140397320D01*
X129194514Y-140397504D01*
X129194508Y-140398401D01*
X129194503Y-140399353D01*
X129194500Y-140400432D01*
X129194500Y-140995500D01*
X129196908Y-141026093D01*
X129197030Y-141027643D01*
X129201883Y-141058293D01*
X129202646Y-141062781D01*
X129202647Y-141062786D01*
X129238588Y-141146875D01*
X129238590Y-141146879D01*
X129238592Y-141146883D01*
X129238594Y-141146886D01*
X129240728Y-141150646D01*
X129253002Y-141210588D01*
X129239611Y-141250281D01*
X129223465Y-141277305D01*
X129223462Y-141277310D01*
X129204556Y-141335499D01*
X129194500Y-141398996D01*
X129194500Y-142966484D01*
X129194515Y-142968950D01*
X129194546Y-142971455D01*
X129206204Y-143037189D01*
X129206205Y-143037194D01*
X129226528Y-143094888D01*
X129226531Y-143094895D01*
X129226533Y-143094900D01*
X129257118Y-143151454D01*
X129257119Y-143151455D01*
X130506877Y-144785755D01*
X130506887Y-144785768D01*
X130526922Y-144808318D01*
X130526931Y-144808327D01*
X130547607Y-144828415D01*
X130549556Y-144830286D01*
X130628265Y-144876847D01*
X130628267Y-144876848D01*
X130628269Y-144876849D01*
X130686541Y-144895502D01*
X130750088Y-144905283D01*
X153453729Y-144806138D01*
X153511999Y-144824791D01*
X153531463Y-144843290D01*
X153581057Y-144905283D01*
X153772806Y-145144968D01*
X153794393Y-145202219D01*
X153794500Y-145206813D01*
X153794500Y-147100000D01*
X153794500Y-158001000D01*
X153797030Y-158033143D01*
X153801883Y-158063793D01*
X153802646Y-158068281D01*
X153802647Y-158068286D01*
X153838591Y-158152382D01*
X153838592Y-158152383D01*
X153874556Y-158201883D01*
X153898797Y-158229628D01*
X153977307Y-158276536D01*
X154035498Y-158295443D01*
X154048198Y-158297454D01*
X154098996Y-158305500D01*
X154099000Y-158305500D01*
X159672228Y-158305500D01*
X159672230Y-158305500D01*
X159727729Y-158297864D01*
X159779217Y-158283422D01*
X159809463Y-158270268D01*
X159830578Y-158261087D01*
X159830582Y-158261084D01*
X159830595Y-158261079D01*
X163966643Y-155742593D01*
X179849015Y-146071644D01*
X179908547Y-146057531D01*
X179965008Y-146081105D01*
X179996830Y-146133365D01*
X179999500Y-146156203D01*
X179999500Y-159400500D01*
X179980593Y-159458691D01*
X179931093Y-159494655D01*
X179900500Y-159499500D01*
X126099500Y-159499500D01*
X126041309Y-159480593D01*
X126005345Y-159431093D01*
X126000500Y-159400500D01*
X126000500Y-101196532D01*
X129269500Y-101196532D01*
X129269500Y-101403467D01*
X129309869Y-101606418D01*
X129389058Y-101797597D01*
X129488498Y-101946420D01*
X129504023Y-101969655D01*
X129650345Y-102115977D01*
X129822402Y-102230941D01*
X130013580Y-102310130D01*
X130216535Y-102350500D01*
X130216536Y-102350500D01*
X130423464Y-102350500D01*
X130423465Y-102350500D01*
X130626420Y-102310130D01*
X130817598Y-102230941D01*
X130989655Y-102115977D01*
X131135977Y-101969655D01*
X131250941Y-101797598D01*
X131330130Y-101606420D01*
X131370500Y-101403465D01*
X131370500Y-101196535D01*
X131330130Y-100993580D01*
X131250941Y-100802402D01*
X131135977Y-100630345D01*
X130989655Y-100484023D01*
X130989651Y-100484020D01*
X130817597Y-100369058D01*
X130626418Y-100289869D01*
X130423467Y-100249500D01*
X130423465Y-100249500D01*
X130216535Y-100249500D01*
X130216532Y-100249500D01*
X130013581Y-100289869D01*
X129822402Y-100369058D01*
X129650348Y-100484020D01*
X129504020Y-100630348D01*
X129389058Y-100802402D01*
X129309869Y-100993581D01*
X129269500Y-101196532D01*
X126000500Y-101196532D01*
X126000500Y-88481987D01*
X127249500Y-88481987D01*
X127249500Y-88718012D01*
X127280306Y-88952006D01*
X127280306Y-88952011D01*
X127341393Y-89179992D01*
X127431713Y-89398044D01*
X127431716Y-89398049D01*
X127524076Y-89558022D01*
X127549729Y-89602453D01*
X127693402Y-89789692D01*
X127693404Y-89789694D01*
X127693408Y-89789699D01*
X127860301Y-89956592D01*
X127860305Y-89956595D01*
X127860307Y-89956597D01*
X128047546Y-90100270D01*
X128047550Y-90100273D01*
X128251951Y-90218284D01*
X128251952Y-90218284D01*
X128251955Y-90218286D01*
X128441003Y-90296592D01*
X128470007Y-90308606D01*
X128697986Y-90369693D01*
X128931989Y-90400500D01*
X128931990Y-90400500D01*
X129168010Y-90400500D01*
X129168011Y-90400500D01*
X129402014Y-90369693D01*
X129629993Y-90308606D01*
X129848049Y-90218284D01*
X130052450Y-90100273D01*
X130239699Y-89956592D01*
X130406592Y-89789699D01*
X130550273Y-89602450D01*
X130668284Y-89398049D01*
X130758606Y-89179993D01*
X130819693Y-88952014D01*
X130850500Y-88718011D01*
X130850500Y-88481989D01*
X130819693Y-88247986D01*
X130758606Y-88020007D01*
X130724451Y-87937550D01*
X130668286Y-87801955D01*
X130638467Y-87750307D01*
X130550273Y-87597550D01*
X130550270Y-87597546D01*
X130406597Y-87410307D01*
X130406595Y-87410305D01*
X130406592Y-87410301D01*
X130239699Y-87243408D01*
X130239694Y-87243404D01*
X130239692Y-87243402D01*
X130052453Y-87099729D01*
X129848044Y-86981713D01*
X129629992Y-86891393D01*
X129474277Y-86849670D01*
X129402014Y-86830307D01*
X129402011Y-86830306D01*
X129402009Y-86830306D01*
X129168012Y-86799500D01*
X129168011Y-86799500D01*
X128931989Y-86799500D01*
X128931987Y-86799500D01*
X128697993Y-86830306D01*
X128697988Y-86830306D01*
X128470007Y-86891393D01*
X128251955Y-86981713D01*
X128047546Y-87099729D01*
X127860307Y-87243402D01*
X127693402Y-87410307D01*
X127549729Y-87597546D01*
X127431713Y-87801955D01*
X127341393Y-88020007D01*
X127280306Y-88247988D01*
X127280306Y-88247993D01*
X127249500Y-88481987D01*
X126000500Y-88481987D01*
X126000500Y-64660435D01*
X127799500Y-64660435D01*
X127799500Y-78639564D01*
X127819978Y-78715988D01*
X127819980Y-78715992D01*
X127859538Y-78784508D01*
X127859540Y-78784511D01*
X133681505Y-84606476D01*
X133709281Y-84660991D01*
X133710500Y-84676478D01*
X133710500Y-100425860D01*
X133691593Y-100484051D01*
X133642093Y-100520015D01*
X133580907Y-100520015D01*
X133541499Y-100495866D01*
X133529655Y-100484023D01*
X133357597Y-100369058D01*
X133166418Y-100289869D01*
X132963467Y-100249500D01*
X132963465Y-100249500D01*
X132756535Y-100249500D01*
X132756532Y-100249500D01*
X132553581Y-100289869D01*
X132362402Y-100369058D01*
X132190348Y-100484020D01*
X132044020Y-100630348D01*
X131929058Y-100802402D01*
X131849869Y-100993581D01*
X131809500Y-101196532D01*
X131809500Y-101403467D01*
X131849869Y-101606418D01*
X131929058Y-101797597D01*
X132028498Y-101946420D01*
X132044023Y-101969655D01*
X132190345Y-102115977D01*
X132362402Y-102230941D01*
X132553580Y-102310130D01*
X132756535Y-102350500D01*
X132756536Y-102350500D01*
X132963464Y-102350500D01*
X132963465Y-102350500D01*
X133166420Y-102310130D01*
X133357598Y-102230941D01*
X133529655Y-102115977D01*
X133541498Y-102104133D01*
X133596013Y-102076358D01*
X133656445Y-102085929D01*
X133699710Y-102129194D01*
X133710500Y-102174139D01*
X133710500Y-102450564D01*
X133730978Y-102526987D01*
X133754072Y-102566988D01*
X133766127Y-102587867D01*
X133770540Y-102595511D01*
X135215489Y-104040460D01*
X135215491Y-104040461D01*
X135215493Y-104040463D01*
X135284008Y-104080020D01*
X135284006Y-104080020D01*
X135284010Y-104080021D01*
X135284012Y-104080022D01*
X135360438Y-104100500D01*
X135360440Y-104100500D01*
X140559563Y-104100500D01*
X140559563Y-104100499D01*
X140635989Y-104080021D01*
X140704511Y-104040460D01*
X140760460Y-103984511D01*
X142469708Y-102275261D01*
X142524223Y-102247486D01*
X142577595Y-102253802D01*
X142713580Y-102310130D01*
X142916535Y-102350500D01*
X142916536Y-102350500D01*
X143123464Y-102350500D01*
X143123465Y-102350500D01*
X143326420Y-102310130D01*
X143517598Y-102230941D01*
X143689655Y-102115977D01*
X143835977Y-101969655D01*
X143950941Y-101797598D01*
X144030130Y-101606420D01*
X144070500Y-101403465D01*
X144070500Y-101196535D01*
X144070499Y-101196532D01*
X144509500Y-101196532D01*
X144509500Y-101403467D01*
X144549869Y-101606418D01*
X144629058Y-101797597D01*
X144728498Y-101946420D01*
X144744023Y-101969655D01*
X144890345Y-102115977D01*
X145062402Y-102230941D01*
X145253580Y-102310130D01*
X145456535Y-102350500D01*
X145456536Y-102350500D01*
X145663464Y-102350500D01*
X145663465Y-102350500D01*
X145866420Y-102310130D01*
X146057598Y-102230941D01*
X146229655Y-102115977D01*
X146375977Y-101969655D01*
X146490941Y-101797598D01*
X146570130Y-101606420D01*
X146610500Y-101403465D01*
X146610500Y-101196535D01*
X146610499Y-101196532D01*
X147049500Y-101196532D01*
X147049500Y-101403467D01*
X147089869Y-101606418D01*
X147169058Y-101797597D01*
X147268498Y-101946420D01*
X147284023Y-101969655D01*
X147430345Y-102115977D01*
X147602402Y-102230941D01*
X147793580Y-102310130D01*
X147996535Y-102350500D01*
X147996536Y-102350500D01*
X148203464Y-102350500D01*
X148203465Y-102350500D01*
X148406420Y-102310130D01*
X148597598Y-102230941D01*
X148769655Y-102115977D01*
X148915977Y-101969655D01*
X148990924Y-101857487D01*
X149038974Y-101819608D01*
X149100112Y-101817206D01*
X149150986Y-101851198D01*
X149172164Y-101908602D01*
X149172240Y-101912489D01*
X149172240Y-110254887D01*
X149172240Y-110340593D01*
X149191802Y-110413603D01*
X149194423Y-110423383D01*
X149237271Y-110497597D01*
X149237273Y-110497599D01*
X149237275Y-110497602D01*
X157510178Y-118770504D01*
X159470504Y-120730830D01*
X159498281Y-120785347D01*
X159499500Y-120800834D01*
X159499500Y-120865892D01*
X159512988Y-120916230D01*
X159533609Y-120993190D01*
X159599496Y-121107309D01*
X159599498Y-121107311D01*
X159599500Y-121107314D01*
X159692686Y-121200500D01*
X159692688Y-121200501D01*
X159692690Y-121200503D01*
X159806810Y-121266390D01*
X159806808Y-121266390D01*
X159806812Y-121266391D01*
X159806814Y-121266392D01*
X159934108Y-121300500D01*
X159934110Y-121300500D01*
X160065890Y-121300500D01*
X160065892Y-121300500D01*
X160193186Y-121266392D01*
X160193188Y-121266390D01*
X160193190Y-121266390D01*
X160307309Y-121200503D01*
X160307309Y-121200502D01*
X160307314Y-121200500D01*
X160400500Y-121107314D01*
X160466392Y-120993186D01*
X160500500Y-120865892D01*
X160500500Y-120734108D01*
X160466392Y-120606814D01*
X160466390Y-120606811D01*
X160466390Y-120606809D01*
X160400503Y-120492690D01*
X160400501Y-120492688D01*
X160400500Y-120492686D01*
X160307314Y-120399500D01*
X160307311Y-120399498D01*
X160307309Y-120399496D01*
X160193189Y-120333609D01*
X160193191Y-120333609D01*
X160143799Y-120320375D01*
X160065892Y-120299500D01*
X160065890Y-120299500D01*
X160000834Y-120299500D01*
X159942643Y-120280593D01*
X159930830Y-120270504D01*
X149852236Y-110191909D01*
X149824459Y-110137392D01*
X149823240Y-110121905D01*
X149823240Y-101723321D01*
X149825592Y-101716080D01*
X149824345Y-101708571D01*
X149834693Y-101688069D01*
X149842147Y-101665130D01*
X149851711Y-101653847D01*
X149851974Y-101653579D01*
X149898240Y-101607314D01*
X149899220Y-101605616D01*
X149904971Y-101599778D01*
X149926966Y-101588360D01*
X149947383Y-101574329D01*
X149953681Y-101574493D01*
X149959276Y-101571590D01*
X149983782Y-101575282D01*
X150008547Y-101575931D01*
X150013546Y-101579766D01*
X150019779Y-101580706D01*
X150037431Y-101598094D01*
X150057089Y-101613178D01*
X150059003Y-101619343D01*
X150063368Y-101623643D01*
X150066853Y-101644626D01*
X150074500Y-101669252D01*
X150074500Y-109057147D01*
X150074500Y-109142853D01*
X150094062Y-109215863D01*
X150096683Y-109225643D01*
X150139531Y-109299857D01*
X150139533Y-109299859D01*
X150139535Y-109299862D01*
X160070505Y-119230832D01*
X160098281Y-119285347D01*
X160099500Y-119300834D01*
X160099500Y-119365892D01*
X160129579Y-119478151D01*
X160133609Y-119493190D01*
X160199496Y-119607309D01*
X160199498Y-119607311D01*
X160199500Y-119607314D01*
X160292686Y-119700500D01*
X160292688Y-119700501D01*
X160292690Y-119700503D01*
X160406810Y-119766390D01*
X160406808Y-119766390D01*
X160406812Y-119766391D01*
X160406814Y-119766392D01*
X160534108Y-119800500D01*
X160534110Y-119800500D01*
X160665890Y-119800500D01*
X160665892Y-119800500D01*
X160793186Y-119766392D01*
X160793188Y-119766390D01*
X160793190Y-119766390D01*
X160907309Y-119700503D01*
X160907309Y-119700502D01*
X160907314Y-119700500D01*
X161000500Y-119607314D01*
X161066392Y-119493186D01*
X161100500Y-119365892D01*
X161100500Y-119234108D01*
X161066392Y-119106814D01*
X161066390Y-119106811D01*
X161066390Y-119106809D01*
X161000503Y-118992690D01*
X161000501Y-118992688D01*
X161000500Y-118992686D01*
X160907314Y-118899500D01*
X160907311Y-118899498D01*
X160907309Y-118899496D01*
X160793189Y-118833609D01*
X160793191Y-118833609D01*
X160743799Y-118820375D01*
X160665892Y-118799500D01*
X160665890Y-118799500D01*
X160600835Y-118799500D01*
X160542644Y-118780593D01*
X160530831Y-118770504D01*
X150916859Y-109156532D01*
X157559500Y-109156532D01*
X157559500Y-109363467D01*
X157599869Y-109566418D01*
X157679058Y-109757597D01*
X157734113Y-109839993D01*
X157794023Y-109929655D01*
X157940345Y-110075977D01*
X158112402Y-110190941D01*
X158303580Y-110270130D01*
X158506535Y-110310500D01*
X158506536Y-110310500D01*
X158713464Y-110310500D01*
X158713465Y-110310500D01*
X158916420Y-110270130D01*
X159107598Y-110190941D01*
X159279655Y-110075977D01*
X159425977Y-109929655D01*
X159540941Y-109757598D01*
X159620130Y-109566420D01*
X159660500Y-109363465D01*
X159660500Y-109156535D01*
X159657607Y-109141989D01*
X174559500Y-109141989D01*
X174559500Y-109181635D01*
X174559500Y-109378011D01*
X174590306Y-109612006D01*
X174590306Y-109612011D01*
X174651393Y-109839992D01*
X174741713Y-110058044D01*
X174741716Y-110058049D01*
X174855360Y-110254887D01*
X174859729Y-110262453D01*
X175003402Y-110449692D01*
X175003404Y-110449694D01*
X175003408Y-110449699D01*
X175170301Y-110616592D01*
X175170305Y-110616595D01*
X175170307Y-110616597D01*
X175357546Y-110760270D01*
X175357550Y-110760273D01*
X175561951Y-110878284D01*
X175561952Y-110878284D01*
X175561955Y-110878286D01*
X175780007Y-110968606D01*
X176007986Y-111029693D01*
X176241989Y-111060500D01*
X176241990Y-111060500D01*
X176478010Y-111060500D01*
X176478011Y-111060500D01*
X176712014Y-111029693D01*
X176939993Y-110968606D01*
X177158049Y-110878284D01*
X177362450Y-110760273D01*
X177549699Y-110616592D01*
X177716592Y-110449699D01*
X177860273Y-110262450D01*
X177978284Y-110058049D01*
X178068606Y-109839993D01*
X178129693Y-109612014D01*
X178160500Y-109378011D01*
X178160500Y-109141989D01*
X178129693Y-108907986D01*
X178068606Y-108680007D01*
X178031467Y-108590345D01*
X177978286Y-108461955D01*
X177967933Y-108444023D01*
X177860273Y-108257550D01*
X177716592Y-108070301D01*
X177549699Y-107903408D01*
X177549694Y-107903404D01*
X177549692Y-107903402D01*
X177362453Y-107759729D01*
X177311186Y-107730130D01*
X177158049Y-107641716D01*
X177158044Y-107641713D01*
X176939992Y-107551393D01*
X176784277Y-107509670D01*
X176712014Y-107490307D01*
X176712011Y-107490306D01*
X176712009Y-107490306D01*
X176478012Y-107459500D01*
X176478011Y-107459500D01*
X176241989Y-107459500D01*
X176241987Y-107459500D01*
X176007993Y-107490306D01*
X176007988Y-107490306D01*
X175780007Y-107551393D01*
X175561955Y-107641713D01*
X175357546Y-107759729D01*
X175170307Y-107903402D01*
X175003402Y-108070307D01*
X174859729Y-108257546D01*
X174741713Y-108461955D01*
X174651393Y-108680007D01*
X174590306Y-108907988D01*
X174590306Y-108907993D01*
X174570670Y-109057147D01*
X174559500Y-109141989D01*
X159657607Y-109141989D01*
X159620130Y-108953580D01*
X159540941Y-108762402D01*
X159425977Y-108590345D01*
X159279655Y-108444023D01*
X159107598Y-108329059D01*
X159107599Y-108329059D01*
X159107597Y-108329058D01*
X158916418Y-108249869D01*
X158713467Y-108209500D01*
X158713465Y-108209500D01*
X158506535Y-108209500D01*
X158506532Y-108209500D01*
X158303581Y-108249869D01*
X158112402Y-108329058D01*
X157940348Y-108444020D01*
X157794020Y-108590348D01*
X157679058Y-108762402D01*
X157599869Y-108953581D01*
X157559500Y-109156532D01*
X150916859Y-109156532D01*
X150754496Y-108994169D01*
X150726719Y-108939652D01*
X150725500Y-108924165D01*
X150725500Y-106616532D01*
X157559500Y-106616532D01*
X157559500Y-106823467D01*
X157599869Y-107026418D01*
X157679058Y-107217597D01*
X157679059Y-107217598D01*
X157794023Y-107389655D01*
X157940345Y-107535977D01*
X158112402Y-107650941D01*
X158303580Y-107730130D01*
X158506535Y-107770500D01*
X158506536Y-107770500D01*
X158713464Y-107770500D01*
X158713465Y-107770500D01*
X158916420Y-107730130D01*
X159107598Y-107650941D01*
X159279655Y-107535977D01*
X159425977Y-107389655D01*
X159540941Y-107217598D01*
X159620130Y-107026420D01*
X159660500Y-106823465D01*
X159660500Y-106616535D01*
X159620130Y-106413580D01*
X159540941Y-106222402D01*
X159425977Y-106050345D01*
X159279655Y-105904023D01*
X159107598Y-105789059D01*
X159107599Y-105789059D01*
X159107597Y-105789058D01*
X158916418Y-105709869D01*
X158713467Y-105669500D01*
X158713465Y-105669500D01*
X158506535Y-105669500D01*
X158506532Y-105669500D01*
X158303581Y-105709869D01*
X158112402Y-105789058D01*
X157940348Y-105904020D01*
X157794020Y-106050348D01*
X157679058Y-106222402D01*
X157599869Y-106413581D01*
X157559500Y-106616532D01*
X150725500Y-106616532D01*
X150725500Y-104076532D01*
X157559500Y-104076532D01*
X157559500Y-104283467D01*
X157599869Y-104486418D01*
X157679058Y-104677597D01*
X157679059Y-104677598D01*
X157794023Y-104849655D01*
X157940345Y-104995977D01*
X158112402Y-105110941D01*
X158303580Y-105190130D01*
X158506535Y-105230500D01*
X158506536Y-105230500D01*
X158713464Y-105230500D01*
X158713465Y-105230500D01*
X158916420Y-105190130D01*
X159107598Y-105110941D01*
X159279655Y-104995977D01*
X159425977Y-104849655D01*
X159540941Y-104677598D01*
X159620130Y-104486420D01*
X159660500Y-104283465D01*
X159660500Y-104076535D01*
X159620130Y-103873580D01*
X159540941Y-103682402D01*
X159425977Y-103510345D01*
X159279655Y-103364023D01*
X159107598Y-103249059D01*
X159107599Y-103249059D01*
X159107597Y-103249058D01*
X158916418Y-103169869D01*
X158713467Y-103129500D01*
X158713465Y-103129500D01*
X158506535Y-103129500D01*
X158506532Y-103129500D01*
X158303581Y-103169869D01*
X158112402Y-103249058D01*
X157940348Y-103364020D01*
X157794020Y-103510348D01*
X157679058Y-103682402D01*
X157599869Y-103873581D01*
X157559500Y-104076532D01*
X150725500Y-104076532D01*
X150725500Y-101536532D01*
X157559500Y-101536532D01*
X157559500Y-101743467D01*
X157599869Y-101946418D01*
X157679058Y-102137597D01*
X157794020Y-102309651D01*
X157794023Y-102309655D01*
X157940345Y-102455977D01*
X158112402Y-102570941D01*
X158303580Y-102650130D01*
X158506535Y-102690500D01*
X158506536Y-102690500D01*
X158713464Y-102690500D01*
X158713465Y-102690500D01*
X158916420Y-102650130D01*
X159107598Y-102570941D01*
X159279655Y-102455977D01*
X159425977Y-102309655D01*
X159540941Y-102137598D01*
X159620130Y-101946420D01*
X159660500Y-101743465D01*
X159660500Y-101536535D01*
X159620130Y-101333580D01*
X159540941Y-101142402D01*
X159425977Y-100970345D01*
X159279655Y-100824023D01*
X159247297Y-100802402D01*
X159107597Y-100709058D01*
X158916418Y-100629869D01*
X158713467Y-100589500D01*
X158713465Y-100589500D01*
X158506535Y-100589500D01*
X158506532Y-100589500D01*
X158303581Y-100629869D01*
X158112402Y-100709058D01*
X157940348Y-100824020D01*
X157794020Y-100970348D01*
X157679058Y-101142402D01*
X157599869Y-101333581D01*
X157559500Y-101536532D01*
X150725500Y-101536532D01*
X150725500Y-100623321D01*
X150744407Y-100565130D01*
X150754490Y-100553323D01*
X150800500Y-100507314D01*
X150866392Y-100393186D01*
X150900500Y-100265892D01*
X150900500Y-100134108D01*
X150866392Y-100006814D01*
X150866390Y-100006811D01*
X150866390Y-100006809D01*
X150800503Y-99892690D01*
X150800501Y-99892688D01*
X150800500Y-99892686D01*
X150707314Y-99799500D01*
X150707311Y-99799498D01*
X150707309Y-99799496D01*
X150593189Y-99733609D01*
X150593191Y-99733609D01*
X150543799Y-99720375D01*
X150465892Y-99699500D01*
X150334108Y-99699500D01*
X150256200Y-99720375D01*
X150206809Y-99733609D01*
X150092690Y-99799496D01*
X149999496Y-99892690D01*
X149933609Y-100006809D01*
X149933608Y-100006814D01*
X149899500Y-100134108D01*
X149899500Y-100265892D01*
X149922303Y-100350996D01*
X149933609Y-100393190D01*
X149999496Y-100507309D01*
X149999498Y-100507311D01*
X149999500Y-100507314D01*
X150045505Y-100553319D01*
X150073281Y-100607834D01*
X150074500Y-100623321D01*
X150074500Y-100930747D01*
X150055593Y-100988938D01*
X150006093Y-101024902D01*
X149944907Y-101024902D01*
X149904062Y-100996040D01*
X149902828Y-100997275D01*
X149898241Y-100992688D01*
X149898240Y-100992686D01*
X149805054Y-100899500D01*
X149805051Y-100899498D01*
X149805049Y-100899496D01*
X149690929Y-100833609D01*
X149690931Y-100833609D01*
X149641539Y-100820375D01*
X149563632Y-100799500D01*
X149431848Y-100799500D01*
X149368201Y-100816554D01*
X149304552Y-100833608D01*
X149191941Y-100898625D01*
X149132093Y-100911346D01*
X149076197Y-100886459D01*
X149050977Y-100850773D01*
X149030942Y-100802404D01*
X149027063Y-100796599D01*
X148915977Y-100630345D01*
X148769655Y-100484023D01*
X148769651Y-100484020D01*
X148597597Y-100369058D01*
X148406418Y-100289869D01*
X148203467Y-100249500D01*
X148203465Y-100249500D01*
X147996535Y-100249500D01*
X147996532Y-100249500D01*
X147793581Y-100289869D01*
X147602402Y-100369058D01*
X147430348Y-100484020D01*
X147284020Y-100630348D01*
X147169058Y-100802402D01*
X147089869Y-100993581D01*
X147049500Y-101196532D01*
X146610499Y-101196532D01*
X146570130Y-100993580D01*
X146490941Y-100802402D01*
X146375977Y-100630345D01*
X146229655Y-100484023D01*
X146229651Y-100484020D01*
X146057597Y-100369058D01*
X145866418Y-100289869D01*
X145663467Y-100249500D01*
X145663465Y-100249500D01*
X145456535Y-100249500D01*
X145456532Y-100249500D01*
X145253581Y-100289869D01*
X145062402Y-100369058D01*
X144890348Y-100484020D01*
X144744020Y-100630348D01*
X144629058Y-100802402D01*
X144549869Y-100993581D01*
X144509500Y-101196532D01*
X144070499Y-101196532D01*
X144030130Y-100993580D01*
X143973802Y-100857595D01*
X143969002Y-100796599D01*
X143995261Y-100749708D01*
X145315475Y-99429496D01*
X145369992Y-99401719D01*
X145385479Y-99400500D01*
X157531268Y-99400500D01*
X157589459Y-99419407D01*
X157622732Y-99461614D01*
X157679058Y-99597597D01*
X157679059Y-99597598D01*
X157794023Y-99769655D01*
X157940345Y-99915977D01*
X158112402Y-100030941D01*
X158303580Y-100110130D01*
X158506535Y-100150500D01*
X158506536Y-100150500D01*
X158713464Y-100150500D01*
X158713465Y-100150500D01*
X158916420Y-100110130D01*
X159107598Y-100030941D01*
X159279655Y-99915977D01*
X159425977Y-99769655D01*
X159540941Y-99597598D01*
X159620130Y-99406420D01*
X159660500Y-99203465D01*
X159660500Y-98996535D01*
X159620130Y-98793580D01*
X159563802Y-98657595D01*
X159559002Y-98596599D01*
X159585261Y-98549708D01*
X169312982Y-88821989D01*
X174559500Y-88821989D01*
X174559500Y-88861635D01*
X174559500Y-89058011D01*
X174590306Y-89292006D01*
X174590306Y-89292011D01*
X174651393Y-89519992D01*
X174741713Y-89738044D01*
X174859729Y-89942453D01*
X175003402Y-90129692D01*
X175003404Y-90129694D01*
X175003408Y-90129699D01*
X175170301Y-90296592D01*
X175170305Y-90296595D01*
X175170307Y-90296597D01*
X175265568Y-90369693D01*
X175357550Y-90440273D01*
X175561951Y-90558284D01*
X175561952Y-90558284D01*
X175561955Y-90558286D01*
X175780007Y-90648606D01*
X176007986Y-90709693D01*
X176241989Y-90740500D01*
X176241990Y-90740500D01*
X176478010Y-90740500D01*
X176478011Y-90740500D01*
X176712014Y-90709693D01*
X176939993Y-90648606D01*
X177158049Y-90558284D01*
X177362450Y-90440273D01*
X177549699Y-90296592D01*
X177716592Y-90129699D01*
X177860273Y-89942450D01*
X177978284Y-89738049D01*
X178068606Y-89519993D01*
X178129693Y-89292014D01*
X178160500Y-89058011D01*
X178160500Y-88821989D01*
X178129693Y-88587986D01*
X178068606Y-88360007D01*
X178022205Y-88247986D01*
X177978286Y-88141955D01*
X177967933Y-88124023D01*
X177860273Y-87937550D01*
X177758065Y-87804350D01*
X177716597Y-87750307D01*
X177716595Y-87750305D01*
X177716592Y-87750301D01*
X177549699Y-87583408D01*
X177549694Y-87583404D01*
X177549692Y-87583402D01*
X177362453Y-87439729D01*
X177311482Y-87410301D01*
X177158049Y-87321716D01*
X177158044Y-87321713D01*
X176939992Y-87231393D01*
X176784277Y-87189670D01*
X176712014Y-87170307D01*
X176712011Y-87170306D01*
X176712009Y-87170306D01*
X176478012Y-87139500D01*
X176478011Y-87139500D01*
X176241989Y-87139500D01*
X176241987Y-87139500D01*
X176007993Y-87170306D01*
X176007988Y-87170306D01*
X175780007Y-87231393D01*
X175561955Y-87321713D01*
X175357546Y-87439729D01*
X175170307Y-87583402D01*
X175003402Y-87750307D01*
X174859729Y-87937546D01*
X174741713Y-88141955D01*
X174651393Y-88360007D01*
X174590306Y-88587988D01*
X174590306Y-88587993D01*
X174559927Y-88818749D01*
X174559500Y-88821989D01*
X169312982Y-88821989D01*
X172070460Y-86064511D01*
X172110021Y-85995989D01*
X172130500Y-85919562D01*
X172130500Y-82528731D01*
X172149407Y-82470540D01*
X172191614Y-82437267D01*
X172327598Y-82380941D01*
X172499655Y-82265977D01*
X172645977Y-82119655D01*
X172760941Y-81947598D01*
X172840130Y-81756420D01*
X172880500Y-81553465D01*
X172880500Y-81346535D01*
X172880499Y-81346532D01*
X173319500Y-81346532D01*
X173319500Y-81553467D01*
X173359869Y-81756418D01*
X173439058Y-81947597D01*
X173518434Y-82066392D01*
X173554023Y-82119655D01*
X173700345Y-82265977D01*
X173872402Y-82380941D01*
X174063580Y-82460130D01*
X174266535Y-82500500D01*
X174266536Y-82500500D01*
X174473464Y-82500500D01*
X174473465Y-82500500D01*
X174676420Y-82460130D01*
X174867598Y-82380941D01*
X175039655Y-82265977D01*
X175185977Y-82119655D01*
X175300941Y-81947598D01*
X175380130Y-81756420D01*
X175420500Y-81553465D01*
X175420500Y-81346535D01*
X175380130Y-81143580D01*
X175300941Y-80952402D01*
X175185977Y-80780345D01*
X175039655Y-80634023D01*
X175039651Y-80634020D01*
X174867597Y-80519058D01*
X174756614Y-80473087D01*
X174710088Y-80433350D01*
X174695500Y-80381623D01*
X174695500Y-73127148D01*
X174695500Y-73127147D01*
X174673318Y-73044362D01*
X174630465Y-72970138D01*
X174630462Y-72970135D01*
X174569862Y-72909534D01*
X174569862Y-72909535D01*
X174429496Y-72769169D01*
X174401719Y-72714652D01*
X174400500Y-72699165D01*
X174400500Y-72634109D01*
X174400500Y-72634108D01*
X174366392Y-72506814D01*
X174366390Y-72506811D01*
X174366390Y-72506809D01*
X174300503Y-72392690D01*
X174300501Y-72392688D01*
X174300500Y-72392686D01*
X174207314Y-72299500D01*
X174207311Y-72299498D01*
X174207309Y-72299496D01*
X174093189Y-72233609D01*
X174093191Y-72233609D01*
X174043799Y-72220375D01*
X173965892Y-72199500D01*
X173834108Y-72199500D01*
X173756200Y-72220375D01*
X173706809Y-72233609D01*
X173592690Y-72299496D01*
X173499496Y-72392690D01*
X173433609Y-72506809D01*
X173432620Y-72510500D01*
X173399500Y-72634108D01*
X173399500Y-72765892D01*
X173421766Y-72848989D01*
X173433609Y-72893190D01*
X173499496Y-73007309D01*
X173499498Y-73007311D01*
X173499500Y-73007314D01*
X173592686Y-73100500D01*
X173592688Y-73100501D01*
X173592690Y-73100503D01*
X173706810Y-73166390D01*
X173706808Y-73166390D01*
X173706812Y-73166391D01*
X173706814Y-73166392D01*
X173834108Y-73200500D01*
X173899165Y-73200500D01*
X173906762Y-73202968D01*
X173914652Y-73201719D01*
X173935307Y-73212243D01*
X173957356Y-73219407D01*
X173969169Y-73229496D01*
X174015504Y-73275831D01*
X174043281Y-73330348D01*
X174044500Y-73345835D01*
X174044500Y-80381623D01*
X174025593Y-80439814D01*
X173983386Y-80473087D01*
X173872402Y-80519058D01*
X173700348Y-80634020D01*
X173554020Y-80780348D01*
X173439058Y-80952402D01*
X173359869Y-81143581D01*
X173319500Y-81346532D01*
X172880499Y-81346532D01*
X172840130Y-81143580D01*
X172760941Y-80952402D01*
X172645977Y-80780345D01*
X172499655Y-80634023D01*
X172327598Y-80519059D01*
X172287653Y-80502513D01*
X172191613Y-80462731D01*
X172145088Y-80422994D01*
X172130500Y-80371267D01*
X172130500Y-68631987D01*
X175109500Y-68631987D01*
X175109500Y-68868012D01*
X175140306Y-69102006D01*
X175140306Y-69102011D01*
X175201393Y-69329992D01*
X175291713Y-69548044D01*
X175291716Y-69548049D01*
X175406658Y-69747135D01*
X175409729Y-69752453D01*
X175553402Y-69939692D01*
X175553404Y-69939694D01*
X175553408Y-69939699D01*
X175720301Y-70106592D01*
X175720305Y-70106595D01*
X175720307Y-70106597D01*
X175907546Y-70250270D01*
X175907550Y-70250273D01*
X176111951Y-70368284D01*
X176111952Y-70368284D01*
X176111955Y-70368286D01*
X176330007Y-70458606D01*
X176557986Y-70519693D01*
X176791989Y-70550500D01*
X176791990Y-70550500D01*
X177028010Y-70550500D01*
X177028011Y-70550500D01*
X177262014Y-70519693D01*
X177489993Y-70458606D01*
X177708049Y-70368284D01*
X177912450Y-70250273D01*
X178099699Y-70106592D01*
X178266592Y-69939699D01*
X178410273Y-69752450D01*
X178528284Y-69548049D01*
X178618606Y-69329993D01*
X178679693Y-69102014D01*
X178710500Y-68868011D01*
X178710500Y-68631989D01*
X178679693Y-68397986D01*
X178618606Y-68170007D01*
X178582719Y-68083368D01*
X178528286Y-67951955D01*
X178507207Y-67915445D01*
X178410273Y-67747550D01*
X178266592Y-67560301D01*
X178099699Y-67393408D01*
X178099694Y-67393404D01*
X178099692Y-67393402D01*
X177912453Y-67249729D01*
X177838683Y-67207138D01*
X177708049Y-67131716D01*
X177708044Y-67131713D01*
X177489992Y-67041393D01*
X177334277Y-66999670D01*
X177262014Y-66980307D01*
X177262011Y-66980306D01*
X177262009Y-66980306D01*
X177028012Y-66949500D01*
X177028011Y-66949500D01*
X176791989Y-66949500D01*
X176791987Y-66949500D01*
X176557993Y-66980306D01*
X176557988Y-66980306D01*
X176330007Y-67041393D01*
X176111955Y-67131713D01*
X175907546Y-67249729D01*
X175720307Y-67393402D01*
X175553402Y-67560307D01*
X175409729Y-67747546D01*
X175291713Y-67951955D01*
X175201393Y-68170007D01*
X175140306Y-68397988D01*
X175140306Y-68397993D01*
X175109500Y-68631987D01*
X172130500Y-68631987D01*
X172130500Y-65735478D01*
X172149407Y-65677287D01*
X172159490Y-65665480D01*
X174840460Y-62984511D01*
X174852382Y-62963862D01*
X174880020Y-62915992D01*
X174880020Y-62915990D01*
X174880022Y-62915988D01*
X174900500Y-62839562D01*
X174900500Y-62760438D01*
X174900500Y-59171989D01*
X175259500Y-59171989D01*
X175259500Y-59211635D01*
X175259500Y-59408011D01*
X175284822Y-59600354D01*
X175290306Y-59642006D01*
X175290306Y-59642011D01*
X175351393Y-59869992D01*
X175441713Y-60088044D01*
X175559729Y-60292453D01*
X175703402Y-60479692D01*
X175703404Y-60479694D01*
X175703408Y-60479699D01*
X175870301Y-60646592D01*
X175870305Y-60646595D01*
X175870307Y-60646597D01*
X176057546Y-60790270D01*
X176057550Y-60790273D01*
X176261951Y-60908284D01*
X176261952Y-60908284D01*
X176261955Y-60908286D01*
X176480007Y-60998606D01*
X176707986Y-61059693D01*
X176941989Y-61090500D01*
X176941990Y-61090500D01*
X177178010Y-61090500D01*
X177178011Y-61090500D01*
X177412014Y-61059693D01*
X177639993Y-60998606D01*
X177858049Y-60908284D01*
X178062450Y-60790273D01*
X178249699Y-60646592D01*
X178416592Y-60479699D01*
X178560273Y-60292450D01*
X178678284Y-60088049D01*
X178768606Y-59869993D01*
X178829693Y-59642014D01*
X178860500Y-59408011D01*
X178860500Y-59171989D01*
X178829693Y-58937986D01*
X178768606Y-58710007D01*
X178731467Y-58620345D01*
X178678286Y-58491955D01*
X178667933Y-58474023D01*
X178560273Y-58287550D01*
X178534068Y-58253399D01*
X178416597Y-58100307D01*
X178416595Y-58100305D01*
X178416592Y-58100301D01*
X178249699Y-57933408D01*
X178249694Y-57933404D01*
X178249692Y-57933402D01*
X178062453Y-57789729D01*
X178003085Y-57755453D01*
X177858049Y-57671716D01*
X177858044Y-57671713D01*
X177639992Y-57581393D01*
X177484277Y-57539670D01*
X177412014Y-57520307D01*
X177412011Y-57520306D01*
X177412009Y-57520306D01*
X177178012Y-57489500D01*
X177178011Y-57489500D01*
X176941989Y-57489500D01*
X176941987Y-57489500D01*
X176707993Y-57520306D01*
X176707988Y-57520306D01*
X176480007Y-57581393D01*
X176261955Y-57671713D01*
X176057546Y-57789729D01*
X175870307Y-57933402D01*
X175703402Y-58100307D01*
X175559729Y-58287546D01*
X175441713Y-58491955D01*
X175351393Y-58710007D01*
X175290306Y-58937988D01*
X175290306Y-58937993D01*
X175259500Y-59171989D01*
X174900500Y-59171989D01*
X174900500Y-45360438D01*
X174882346Y-45292686D01*
X174880022Y-45284012D01*
X174840460Y-45215489D01*
X171685263Y-42060292D01*
X171657486Y-42005775D01*
X171663802Y-41952405D01*
X171720130Y-41816420D01*
X171760500Y-41613465D01*
X171760500Y-41406535D01*
X171720130Y-41203580D01*
X171640941Y-41012402D01*
X171525977Y-40840345D01*
X171379655Y-40694023D01*
X171207598Y-40579059D01*
X171207599Y-40579059D01*
X171207597Y-40579058D01*
X171016418Y-40499869D01*
X170813467Y-40459500D01*
X170813465Y-40459500D01*
X170606535Y-40459500D01*
X170606532Y-40459500D01*
X170403581Y-40499869D01*
X170212402Y-40579058D01*
X170040348Y-40694020D01*
X169894020Y-40840348D01*
X169779058Y-41012402D01*
X169699869Y-41203581D01*
X169659500Y-41406532D01*
X169659500Y-41613467D01*
X169699869Y-41816418D01*
X169779058Y-42007597D01*
X169859523Y-42128022D01*
X169894023Y-42179655D01*
X170040345Y-42325977D01*
X170212402Y-42440941D01*
X170403580Y-42520130D01*
X170606535Y-42560500D01*
X170606536Y-42560500D01*
X170813464Y-42560500D01*
X170813465Y-42560500D01*
X171016420Y-42520130D01*
X171152405Y-42463802D01*
X171213399Y-42459002D01*
X171260292Y-42485263D01*
X174270504Y-45495475D01*
X174298281Y-45549992D01*
X174299500Y-45565479D01*
X174299500Y-58643477D01*
X174280593Y-58701668D01*
X174231093Y-58737632D01*
X174169907Y-58737632D01*
X174120407Y-58701668D01*
X174118185Y-58698479D01*
X174065980Y-58620349D01*
X174065979Y-58620348D01*
X174065977Y-58620345D01*
X173919655Y-58474023D01*
X173747598Y-58359059D01*
X173747599Y-58359059D01*
X173747597Y-58359058D01*
X173556418Y-58279869D01*
X173353467Y-58239500D01*
X173353465Y-58239500D01*
X173146535Y-58239500D01*
X173146532Y-58239500D01*
X172943580Y-58279870D01*
X172943578Y-58279870D01*
X172832596Y-58325840D01*
X172771599Y-58330640D01*
X172724707Y-58304380D01*
X172127238Y-57706911D01*
X171523862Y-57103535D01*
X171523859Y-57103533D01*
X171523858Y-57103532D01*
X171523857Y-57103531D01*
X171449642Y-57060683D01*
X171449644Y-57060683D01*
X171417521Y-57052076D01*
X171366853Y-57038500D01*
X151756353Y-57038500D01*
X151670647Y-57038500D01*
X151597636Y-57058062D01*
X151587857Y-57060683D01*
X151557946Y-57077953D01*
X151557944Y-57077954D01*
X151550750Y-57082108D01*
X151513638Y-57103535D01*
X151453035Y-57164138D01*
X151453033Y-57164140D01*
X151449731Y-57167441D01*
X151449720Y-57167451D01*
X150804999Y-57812171D01*
X150750483Y-57839948D01*
X150715682Y-57839265D01*
X150566044Y-57809500D01*
X150566041Y-57809500D01*
X149368959Y-57809500D01*
X149368956Y-57809500D01*
X149175665Y-57847949D01*
X149175663Y-57847949D01*
X148993586Y-57923367D01*
X148829718Y-58032861D01*
X148829714Y-58032864D01*
X148690364Y-58172214D01*
X148690361Y-58172218D01*
X148580867Y-58336086D01*
X148505449Y-58518163D01*
X148505449Y-58518165D01*
X148467000Y-58711456D01*
X148467000Y-58908543D01*
X148505449Y-59101834D01*
X148505449Y-59101836D01*
X148580867Y-59283913D01*
X148580868Y-59283914D01*
X148690361Y-59447782D01*
X148829718Y-59587139D01*
X148993586Y-59696632D01*
X149175665Y-59772051D01*
X149368959Y-59810500D01*
X149368960Y-59810500D01*
X150566040Y-59810500D01*
X150566041Y-59810500D01*
X150759335Y-59772051D01*
X150941414Y-59696632D01*
X151105282Y-59587139D01*
X151244639Y-59447782D01*
X151354132Y-59283914D01*
X151429551Y-59101835D01*
X151468000Y-58908541D01*
X151468000Y-58711459D01*
X151429551Y-58518165D01*
X151354132Y-58336086D01*
X151338229Y-58312286D01*
X151321622Y-58253399D01*
X151342800Y-58195996D01*
X151350543Y-58187282D01*
X151819331Y-57718496D01*
X151873847Y-57690719D01*
X151889334Y-57689500D01*
X155576523Y-57689500D01*
X155634714Y-57708407D01*
X155670678Y-57757907D01*
X155670678Y-57819093D01*
X155636790Y-57867042D01*
X155550307Y-57933402D01*
X155383402Y-58100307D01*
X155239729Y-58287546D01*
X155121713Y-58491955D01*
X155031393Y-58710007D01*
X154970306Y-58937988D01*
X154970306Y-58937993D01*
X154939500Y-59171989D01*
X154939500Y-59211635D01*
X154939500Y-59408011D01*
X154964822Y-59600354D01*
X154970306Y-59642006D01*
X154970306Y-59642011D01*
X155031393Y-59869992D01*
X155121713Y-60088044D01*
X155239729Y-60292453D01*
X155383402Y-60479692D01*
X155383404Y-60479694D01*
X155383408Y-60479699D01*
X155550301Y-60646592D01*
X155550305Y-60646595D01*
X155550307Y-60646597D01*
X155737546Y-60790270D01*
X155737550Y-60790273D01*
X155941951Y-60908284D01*
X155941952Y-60908284D01*
X155941955Y-60908286D01*
X156160007Y-60998606D01*
X156387986Y-61059693D01*
X156621989Y-61090500D01*
X156621990Y-61090500D01*
X156858010Y-61090500D01*
X156858011Y-61090500D01*
X157092014Y-61059693D01*
X157319993Y-60998606D01*
X157538049Y-60908284D01*
X157742450Y-60790273D01*
X157929699Y-60646592D01*
X158096592Y-60479699D01*
X158240273Y-60292450D01*
X158358284Y-60088049D01*
X158448606Y-59869993D01*
X158509693Y-59642014D01*
X158540500Y-59408011D01*
X158540500Y-59186532D01*
X159499500Y-59186532D01*
X159499500Y-59393467D01*
X159539869Y-59596418D01*
X159619058Y-59787597D01*
X159674113Y-59869993D01*
X159734023Y-59959655D01*
X159880345Y-60105977D01*
X160052402Y-60220941D01*
X160243580Y-60300130D01*
X160446535Y-60340500D01*
X160446536Y-60340500D01*
X160653464Y-60340500D01*
X160653465Y-60340500D01*
X160856420Y-60300130D01*
X161047598Y-60220941D01*
X161219655Y-60105977D01*
X161365977Y-59959655D01*
X161480941Y-59787598D01*
X161560130Y-59596420D01*
X161600500Y-59393465D01*
X161600500Y-59186535D01*
X161600499Y-59186532D01*
X162039500Y-59186532D01*
X162039500Y-59393467D01*
X162079869Y-59596418D01*
X162159058Y-59787597D01*
X162214113Y-59869993D01*
X162274023Y-59959655D01*
X162420345Y-60105977D01*
X162592402Y-60220941D01*
X162783580Y-60300130D01*
X162986535Y-60340500D01*
X162986536Y-60340500D01*
X163193464Y-60340500D01*
X163193465Y-60340500D01*
X163396420Y-60300130D01*
X163587598Y-60220941D01*
X163759655Y-60105977D01*
X163905977Y-59959655D01*
X164020941Y-59787598D01*
X164100130Y-59596420D01*
X164140500Y-59393465D01*
X164140500Y-59186535D01*
X164100130Y-58983580D01*
X164020941Y-58792402D01*
X163905977Y-58620345D01*
X163759655Y-58474023D01*
X163587598Y-58359059D01*
X163587599Y-58359059D01*
X163587597Y-58359058D01*
X163396418Y-58279869D01*
X163193467Y-58239500D01*
X163193465Y-58239500D01*
X162986535Y-58239500D01*
X162986532Y-58239500D01*
X162783581Y-58279869D01*
X162592402Y-58359058D01*
X162420348Y-58474020D01*
X162274020Y-58620348D01*
X162159058Y-58792402D01*
X162079869Y-58983581D01*
X162039500Y-59186532D01*
X161600499Y-59186532D01*
X161560130Y-58983580D01*
X161480941Y-58792402D01*
X161365977Y-58620345D01*
X161219655Y-58474023D01*
X161047598Y-58359059D01*
X161047599Y-58359059D01*
X161047597Y-58359058D01*
X160856418Y-58279869D01*
X160653467Y-58239500D01*
X160653465Y-58239500D01*
X160446535Y-58239500D01*
X160446532Y-58239500D01*
X160243581Y-58279869D01*
X160052402Y-58359058D01*
X159880348Y-58474020D01*
X159734020Y-58620348D01*
X159619058Y-58792402D01*
X159539869Y-58983581D01*
X159499500Y-59186532D01*
X158540500Y-59186532D01*
X158540500Y-59171989D01*
X158509693Y-58937986D01*
X158448606Y-58710007D01*
X158411467Y-58620345D01*
X158358286Y-58491955D01*
X158347933Y-58474023D01*
X158240273Y-58287550D01*
X158214068Y-58253399D01*
X158096597Y-58100307D01*
X158096595Y-58100305D01*
X158096592Y-58100301D01*
X157929699Y-57933408D01*
X157929694Y-57933404D01*
X157929692Y-57933402D01*
X157843210Y-57867042D01*
X157808554Y-57816617D01*
X157810156Y-57755453D01*
X157847403Y-57706911D01*
X157903477Y-57689500D01*
X171148165Y-57689500D01*
X171206356Y-57708407D01*
X171218169Y-57718496D01*
X172264380Y-58764707D01*
X172292157Y-58819224D01*
X172285840Y-58872596D01*
X172239870Y-58983578D01*
X172239870Y-58983580D01*
X172199500Y-59186532D01*
X172199500Y-59393467D01*
X172239869Y-59596418D01*
X172319058Y-59787597D01*
X172374113Y-59869993D01*
X172434023Y-59959655D01*
X172580345Y-60105977D01*
X172752402Y-60220941D01*
X172943580Y-60300130D01*
X173146535Y-60340500D01*
X173146536Y-60340500D01*
X173353464Y-60340500D01*
X173353465Y-60340500D01*
X173556420Y-60300130D01*
X173747598Y-60220941D01*
X173919655Y-60105977D01*
X174065977Y-59959655D01*
X174118184Y-59881520D01*
X174166234Y-59843641D01*
X174227372Y-59841239D01*
X174278246Y-59875231D01*
X174299424Y-59932635D01*
X174299500Y-59936522D01*
X174299500Y-62634521D01*
X174280593Y-62692712D01*
X174270504Y-62704525D01*
X171645489Y-65329540D01*
X171645488Y-65329539D01*
X171589539Y-65385489D01*
X171549980Y-65454007D01*
X171549978Y-65454011D01*
X171529500Y-65530435D01*
X171529500Y-80371267D01*
X171510593Y-80429458D01*
X171468387Y-80462731D01*
X171332401Y-80519059D01*
X171160348Y-80634020D01*
X171014020Y-80780348D01*
X170899058Y-80952402D01*
X170819869Y-81143581D01*
X170779500Y-81346532D01*
X170779500Y-81553467D01*
X170819869Y-81756418D01*
X170899058Y-81947597D01*
X170978434Y-82066392D01*
X171014023Y-82119655D01*
X171160345Y-82265977D01*
X171332402Y-82380941D01*
X171468385Y-82437267D01*
X171514911Y-82477003D01*
X171529500Y-82528731D01*
X171529500Y-85714520D01*
X171510593Y-85772711D01*
X171500504Y-85784524D01*
X159160291Y-98124736D01*
X159105774Y-98152513D01*
X159052402Y-98146196D01*
X158916420Y-98089870D01*
X158916418Y-98089869D01*
X158713467Y-98049500D01*
X158713465Y-98049500D01*
X158506535Y-98049500D01*
X158506532Y-98049500D01*
X158303581Y-98089869D01*
X158112402Y-98169058D01*
X157940348Y-98284020D01*
X157794020Y-98430348D01*
X157679058Y-98602402D01*
X157622732Y-98738386D01*
X157582995Y-98784912D01*
X157531268Y-98799500D01*
X145180435Y-98799500D01*
X145104011Y-98819978D01*
X145104007Y-98819980D01*
X145035491Y-98859538D01*
X143570292Y-100324736D01*
X143515775Y-100352513D01*
X143462402Y-100346196D01*
X143326418Y-100289869D01*
X143123467Y-100249500D01*
X143123465Y-100249500D01*
X142916535Y-100249500D01*
X142916532Y-100249500D01*
X142713581Y-100289869D01*
X142522402Y-100369058D01*
X142350348Y-100484020D01*
X142204020Y-100630348D01*
X142089058Y-100802402D01*
X142009869Y-100993581D01*
X141969500Y-101196532D01*
X141969500Y-101403467D01*
X142009869Y-101606418D01*
X142066196Y-101742402D01*
X142070997Y-101803399D01*
X142044736Y-101850292D01*
X140424525Y-103470504D01*
X140370008Y-103498281D01*
X140354521Y-103499500D01*
X135565479Y-103499500D01*
X135507288Y-103480593D01*
X135495475Y-103470504D01*
X134340496Y-102315525D01*
X134312719Y-102261008D01*
X134311500Y-102245521D01*
X134311500Y-84471437D01*
X134311499Y-84471435D01*
X134291021Y-84395011D01*
X134291019Y-84395007D01*
X134251460Y-84326489D01*
X134195511Y-84270539D01*
X134195511Y-84270540D01*
X128429496Y-78504525D01*
X128401719Y-78450008D01*
X128400500Y-78434521D01*
X128400500Y-73951456D01*
X128747000Y-73951456D01*
X128747000Y-74148543D01*
X128785449Y-74341834D01*
X128785449Y-74341836D01*
X128860867Y-74523913D01*
X128860868Y-74523914D01*
X128970361Y-74687782D01*
X129109718Y-74827139D01*
X129273586Y-74936632D01*
X129455665Y-75012051D01*
X129648959Y-75050500D01*
X129648960Y-75050500D01*
X130846040Y-75050500D01*
X130846041Y-75050500D01*
X131039335Y-75012051D01*
X131221414Y-74936632D01*
X131385282Y-74827139D01*
X131524639Y-74687782D01*
X131634132Y-74523914D01*
X131709551Y-74341835D01*
X131748000Y-74148541D01*
X131748000Y-73951459D01*
X131709551Y-73758165D01*
X131634132Y-73576086D01*
X131524639Y-73412218D01*
X131385282Y-73272861D01*
X131221414Y-73163368D01*
X131221415Y-73163368D01*
X131221413Y-73163367D01*
X131039335Y-73087949D01*
X130846043Y-73049500D01*
X130846041Y-73049500D01*
X129648959Y-73049500D01*
X129648956Y-73049500D01*
X129455665Y-73087949D01*
X129455663Y-73087949D01*
X129273586Y-73163367D01*
X129109718Y-73272861D01*
X129109714Y-73272864D01*
X128970364Y-73412214D01*
X128970361Y-73412218D01*
X128860867Y-73576086D01*
X128785449Y-73758163D01*
X128785449Y-73758165D01*
X128747000Y-73951456D01*
X128400500Y-73951456D01*
X128400500Y-71411456D01*
X128747000Y-71411456D01*
X128747000Y-71608543D01*
X128785449Y-71801834D01*
X128785449Y-71801836D01*
X128860867Y-71983913D01*
X128860868Y-71983914D01*
X128970361Y-72147782D01*
X129109718Y-72287139D01*
X129273586Y-72396632D01*
X129455665Y-72472051D01*
X129648959Y-72510500D01*
X129648960Y-72510500D01*
X130846040Y-72510500D01*
X130846041Y-72510500D01*
X131039335Y-72472051D01*
X131221414Y-72396632D01*
X131385282Y-72287139D01*
X131524639Y-72147782D01*
X131634132Y-71983914D01*
X131709551Y-71801835D01*
X131748000Y-71608541D01*
X131748000Y-71411459D01*
X131709551Y-71218165D01*
X131634132Y-71036086D01*
X131524639Y-70872218D01*
X131385282Y-70732861D01*
X131221414Y-70623368D01*
X131221415Y-70623368D01*
X131221413Y-70623367D01*
X131039335Y-70547949D01*
X130846043Y-70509500D01*
X130846041Y-70509500D01*
X129648959Y-70509500D01*
X129648956Y-70509500D01*
X129455665Y-70547949D01*
X129455663Y-70547949D01*
X129273586Y-70623367D01*
X129109718Y-70732861D01*
X129109714Y-70732864D01*
X128970364Y-70872214D01*
X128970361Y-70872218D01*
X128860867Y-71036086D01*
X128785449Y-71218163D01*
X128785449Y-71218165D01*
X128747000Y-71411456D01*
X128400500Y-71411456D01*
X128400500Y-64865477D01*
X128419407Y-64807286D01*
X128429490Y-64795480D01*
X128775645Y-64449324D01*
X128830160Y-64421548D01*
X128890592Y-64431119D01*
X128927960Y-64464326D01*
X128970361Y-64527782D01*
X129109718Y-64667139D01*
X129273586Y-64776632D01*
X129455665Y-64852051D01*
X129648959Y-64890500D01*
X129648960Y-64890500D01*
X130846040Y-64890500D01*
X130846041Y-64890500D01*
X131039335Y-64852051D01*
X131221414Y-64776632D01*
X131385282Y-64667139D01*
X131524639Y-64527782D01*
X131634132Y-64363914D01*
X131709551Y-64181835D01*
X131748000Y-63988541D01*
X131748000Y-63791459D01*
X131709551Y-63598165D01*
X131634132Y-63416086D01*
X131524639Y-63252218D01*
X131385282Y-63112861D01*
X131252988Y-63024465D01*
X131221413Y-63003367D01*
X131039335Y-62927949D01*
X130846043Y-62889500D01*
X130846041Y-62889500D01*
X129648959Y-62889500D01*
X129648956Y-62889500D01*
X129455665Y-62927949D01*
X129455663Y-62927949D01*
X129273586Y-63003367D01*
X129109718Y-63112861D01*
X129109714Y-63112864D01*
X128970364Y-63252214D01*
X128970361Y-63252218D01*
X128860868Y-63416085D01*
X128789186Y-63589141D01*
X128749449Y-63635666D01*
X128747224Y-63636991D01*
X128725490Y-63649539D01*
X127915489Y-64459540D01*
X127915488Y-64459539D01*
X127859539Y-64515489D01*
X127819980Y-64584007D01*
X127819978Y-64584011D01*
X127799500Y-64660435D01*
X126000500Y-64660435D01*
X126000500Y-52473144D01*
X128296000Y-52473144D01*
X128296000Y-52473147D01*
X128296000Y-54153551D01*
X128296000Y-54239257D01*
X128314234Y-54307309D01*
X128318183Y-54322047D01*
X128361031Y-54396261D01*
X128361033Y-54396263D01*
X128361035Y-54396266D01*
X129125234Y-55160465D01*
X129125236Y-55160466D01*
X129125238Y-55160468D01*
X129199453Y-55203316D01*
X129199454Y-55203316D01*
X129199457Y-55203318D01*
X129233650Y-55212479D01*
X129284964Y-55245802D01*
X129306891Y-55302924D01*
X129291056Y-55362024D01*
X129263029Y-55390421D01*
X129109718Y-55492861D01*
X129109714Y-55492864D01*
X128970364Y-55632214D01*
X128970361Y-55632218D01*
X128860867Y-55796086D01*
X128785449Y-55978163D01*
X128785449Y-55978165D01*
X128747000Y-56171456D01*
X128747000Y-56368543D01*
X128785449Y-56561834D01*
X128785449Y-56561836D01*
X128860867Y-56743913D01*
X128897199Y-56798288D01*
X128970361Y-56907782D01*
X129109718Y-57047139D01*
X129273586Y-57156632D01*
X129455665Y-57232051D01*
X129648959Y-57270500D01*
X130446665Y-57270500D01*
X130504856Y-57289407D01*
X130516669Y-57299496D01*
X130857669Y-57640496D01*
X130885446Y-57695013D01*
X130875875Y-57755445D01*
X130832610Y-57798710D01*
X130787665Y-57809500D01*
X129648956Y-57809500D01*
X129455665Y-57847949D01*
X129455663Y-57847949D01*
X129273586Y-57923367D01*
X129109718Y-58032861D01*
X129109714Y-58032864D01*
X128970364Y-58172214D01*
X128970361Y-58172218D01*
X128860867Y-58336086D01*
X128785449Y-58518163D01*
X128785449Y-58518165D01*
X128747000Y-58711456D01*
X128747000Y-58908543D01*
X128785449Y-59101834D01*
X128785449Y-59101836D01*
X128860867Y-59283913D01*
X128860868Y-59283914D01*
X128970361Y-59447782D01*
X129109718Y-59587139D01*
X129273586Y-59696632D01*
X129455665Y-59772051D01*
X129648959Y-59810500D01*
X130446665Y-59810500D01*
X130504856Y-59829407D01*
X130516669Y-59839496D01*
X130857669Y-60180496D01*
X130885446Y-60235013D01*
X130875875Y-60295445D01*
X130832610Y-60338710D01*
X130787665Y-60349500D01*
X129648956Y-60349500D01*
X129455665Y-60387949D01*
X129455663Y-60387949D01*
X129273586Y-60463367D01*
X129109718Y-60572861D01*
X129109714Y-60572864D01*
X128970364Y-60712214D01*
X128970361Y-60712218D01*
X128860867Y-60876086D01*
X128785449Y-61058163D01*
X128785449Y-61058165D01*
X128747000Y-61251456D01*
X128747000Y-61448543D01*
X128772548Y-61576979D01*
X128783392Y-61631496D01*
X128785449Y-61641834D01*
X128785449Y-61641836D01*
X128860867Y-61823913D01*
X128860868Y-61823914D01*
X128970361Y-61987782D01*
X129109718Y-62127139D01*
X129273586Y-62236632D01*
X129455665Y-62312051D01*
X129648959Y-62350500D01*
X129648960Y-62350500D01*
X130846040Y-62350500D01*
X130846041Y-62350500D01*
X131039335Y-62312051D01*
X131221414Y-62236632D01*
X131327850Y-62165513D01*
X131386736Y-62148905D01*
X131444140Y-62170082D01*
X131452854Y-62177825D01*
X137610504Y-68335475D01*
X137638281Y-68389992D01*
X137639500Y-68405479D01*
X137639500Y-100221267D01*
X137620593Y-100279458D01*
X137578387Y-100312731D01*
X137442401Y-100369059D01*
X137270348Y-100484020D01*
X137124020Y-100630348D01*
X137032816Y-100766846D01*
X136984766Y-100804726D01*
X136923627Y-100807128D01*
X136872754Y-100773135D01*
X136851576Y-100715732D01*
X136851500Y-100711845D01*
X136851500Y-72993937D01*
X136851499Y-72993935D01*
X136831021Y-72917511D01*
X136831019Y-72917507D01*
X136791460Y-72848989D01*
X136735511Y-72793039D01*
X136735511Y-72793040D01*
X131329306Y-67386835D01*
X131301529Y-67332318D01*
X131311100Y-67271886D01*
X131344307Y-67234516D01*
X131385282Y-67207139D01*
X131524639Y-67067782D01*
X131634132Y-66903914D01*
X131709551Y-66721835D01*
X131748000Y-66528541D01*
X131748000Y-66331459D01*
X131709551Y-66138165D01*
X131634132Y-65956086D01*
X131524639Y-65792218D01*
X131385282Y-65652861D01*
X131221414Y-65543368D01*
X131221415Y-65543368D01*
X131221413Y-65543367D01*
X131039335Y-65467949D01*
X130846043Y-65429500D01*
X130846041Y-65429500D01*
X129648959Y-65429500D01*
X129648956Y-65429500D01*
X129455665Y-65467949D01*
X129455663Y-65467949D01*
X129273586Y-65543367D01*
X129109718Y-65652861D01*
X129109714Y-65652864D01*
X128970364Y-65792214D01*
X128970361Y-65792218D01*
X128860867Y-65956086D01*
X128785449Y-66138163D01*
X128785449Y-66138165D01*
X128747000Y-66331456D01*
X128747000Y-66528543D01*
X128785449Y-66721834D01*
X128785449Y-66721836D01*
X128860867Y-66903913D01*
X128860868Y-66903914D01*
X128970361Y-67067782D01*
X129109718Y-67207139D01*
X129273586Y-67316632D01*
X129455665Y-67392051D01*
X129648959Y-67430500D01*
X130482021Y-67430500D01*
X130540212Y-67449407D01*
X130552025Y-67459496D01*
X130893025Y-67800496D01*
X130920802Y-67855013D01*
X130911231Y-67915445D01*
X130867966Y-67958710D01*
X130823021Y-67969500D01*
X129648956Y-67969500D01*
X129455665Y-68007949D01*
X129455663Y-68007949D01*
X129273586Y-68083367D01*
X129109718Y-68192861D01*
X129109714Y-68192864D01*
X128970364Y-68332214D01*
X128970361Y-68332218D01*
X128860867Y-68496086D01*
X128785449Y-68678163D01*
X128785449Y-68678165D01*
X128747000Y-68871456D01*
X128747000Y-69068543D01*
X128753658Y-69102014D01*
X128784526Y-69257197D01*
X128785449Y-69261834D01*
X128785449Y-69261836D01*
X128860867Y-69443913D01*
X128897199Y-69498288D01*
X128970361Y-69607782D01*
X129109718Y-69747139D01*
X129273586Y-69856632D01*
X129455665Y-69932051D01*
X129648959Y-69970500D01*
X129648960Y-69970500D01*
X130846040Y-69970500D01*
X130846041Y-69970500D01*
X131039335Y-69932051D01*
X131221414Y-69856632D01*
X131385282Y-69747139D01*
X131524639Y-69607782D01*
X131634132Y-69443914D01*
X131709551Y-69261835D01*
X131748000Y-69068541D01*
X131748000Y-68894479D01*
X131766907Y-68836288D01*
X131816407Y-68800324D01*
X131877593Y-68800324D01*
X131917004Y-68824475D01*
X136221504Y-73128975D01*
X136249281Y-73183492D01*
X136250500Y-73198979D01*
X136250500Y-101578324D01*
X136270978Y-101654746D01*
X136270979Y-101654750D01*
X136271415Y-101655504D01*
X136271424Y-101655521D01*
X136290216Y-101688069D01*
X136310540Y-101723271D01*
X137222780Y-102635511D01*
X137222779Y-102635511D01*
X137278729Y-102691460D01*
X137347247Y-102731019D01*
X137347251Y-102731021D01*
X137423675Y-102751499D01*
X137423677Y-102751500D01*
X137423678Y-102751500D01*
X139368563Y-102751500D01*
X139368563Y-102751499D01*
X139444989Y-102731021D01*
X139513511Y-102691460D01*
X139554841Y-102650130D01*
X139569461Y-102635511D01*
X139748994Y-102455977D01*
X139929708Y-102275261D01*
X139984223Y-102247485D01*
X140037591Y-102253801D01*
X140173580Y-102310130D01*
X140376535Y-102350500D01*
X140376536Y-102350500D01*
X140583464Y-102350500D01*
X140583465Y-102350500D01*
X140786420Y-102310130D01*
X140977598Y-102230941D01*
X141149655Y-102115977D01*
X141295977Y-101969655D01*
X141410941Y-101797598D01*
X141490130Y-101606420D01*
X141530500Y-101403465D01*
X141530500Y-101196535D01*
X141490130Y-100993580D01*
X141433802Y-100857595D01*
X141429002Y-100796599D01*
X141455261Y-100749708D01*
X145315475Y-96889496D01*
X145369992Y-96861719D01*
X145385479Y-96860500D01*
X157531268Y-96860500D01*
X157589459Y-96879407D01*
X157622732Y-96921614D01*
X157679058Y-97057597D01*
X157679059Y-97057598D01*
X157794023Y-97229655D01*
X157940345Y-97375977D01*
X158112402Y-97490941D01*
X158303580Y-97570130D01*
X158506535Y-97610500D01*
X158506536Y-97610500D01*
X158713464Y-97610500D01*
X158713465Y-97610500D01*
X158916420Y-97570130D01*
X159107598Y-97490941D01*
X159279655Y-97375977D01*
X159425977Y-97229655D01*
X159540941Y-97057598D01*
X159620130Y-96866420D01*
X159660500Y-96663465D01*
X159660500Y-96456535D01*
X159620130Y-96253580D01*
X159563802Y-96117595D01*
X159559002Y-96056599D01*
X159585261Y-96009708D01*
X169530460Y-86064511D01*
X169570021Y-85995989D01*
X169590500Y-85919562D01*
X169590500Y-82528731D01*
X169609407Y-82470540D01*
X169651614Y-82437267D01*
X169787598Y-82380941D01*
X169959655Y-82265977D01*
X170105977Y-82119655D01*
X170220941Y-81947598D01*
X170300130Y-81756420D01*
X170340500Y-81553465D01*
X170340500Y-81346535D01*
X170300130Y-81143580D01*
X170243802Y-81007595D01*
X170239002Y-80946599D01*
X170265261Y-80899708D01*
X170950460Y-80214511D01*
X170990021Y-80145989D01*
X171010500Y-80069562D01*
X171010500Y-60368731D01*
X171029407Y-60310540D01*
X171071614Y-60277267D01*
X171207598Y-60220941D01*
X171379655Y-60105977D01*
X171525977Y-59959655D01*
X171640941Y-59787598D01*
X171720130Y-59596420D01*
X171760500Y-59393465D01*
X171760500Y-59186535D01*
X171720130Y-58983580D01*
X171640941Y-58792402D01*
X171525977Y-58620345D01*
X171379655Y-58474023D01*
X171207598Y-58359059D01*
X171207599Y-58359059D01*
X171207597Y-58359058D01*
X171016418Y-58279869D01*
X170813467Y-58239500D01*
X170813465Y-58239500D01*
X170606535Y-58239500D01*
X170606532Y-58239500D01*
X170403581Y-58279869D01*
X170212402Y-58359058D01*
X170040348Y-58474020D01*
X169894020Y-58620348D01*
X169779058Y-58792402D01*
X169699869Y-58983581D01*
X169659500Y-59186532D01*
X169659500Y-59393467D01*
X169699869Y-59596418D01*
X169779058Y-59787597D01*
X169834113Y-59869993D01*
X169894023Y-59959655D01*
X170040345Y-60105977D01*
X170212402Y-60220941D01*
X170348385Y-60277267D01*
X170394911Y-60317003D01*
X170409500Y-60368731D01*
X170409500Y-79864520D01*
X170390593Y-79922711D01*
X170380504Y-79934524D01*
X169840292Y-80474736D01*
X169785775Y-80502513D01*
X169732402Y-80496196D01*
X169596418Y-80439869D01*
X169393467Y-80399500D01*
X169393465Y-80399500D01*
X169186535Y-80399500D01*
X169186532Y-80399500D01*
X168983581Y-80439869D01*
X168792402Y-80519058D01*
X168620348Y-80634020D01*
X168474020Y-80780348D01*
X168359058Y-80952402D01*
X168279869Y-81143581D01*
X168239500Y-81346532D01*
X168239500Y-81553467D01*
X168279869Y-81756418D01*
X168359058Y-81947597D01*
X168438434Y-82066392D01*
X168474023Y-82119655D01*
X168620345Y-82265977D01*
X168792402Y-82380941D01*
X168928385Y-82437267D01*
X168974911Y-82477003D01*
X168989500Y-82528731D01*
X168989500Y-85714520D01*
X168970593Y-85772711D01*
X168960504Y-85784524D01*
X159160291Y-95584736D01*
X159105774Y-95612513D01*
X159052402Y-95606196D01*
X158916420Y-95549870D01*
X158916418Y-95549869D01*
X158713467Y-95509500D01*
X158713465Y-95509500D01*
X158506535Y-95509500D01*
X158506532Y-95509500D01*
X158303581Y-95549869D01*
X158112402Y-95629058D01*
X157940348Y-95744020D01*
X157794020Y-95890348D01*
X157679058Y-96062402D01*
X157622732Y-96198386D01*
X157582995Y-96244912D01*
X157531268Y-96259500D01*
X145180435Y-96259500D01*
X145104011Y-96279978D01*
X145104007Y-96279980D01*
X145035491Y-96319538D01*
X141030291Y-100324736D01*
X140975774Y-100352513D01*
X140922402Y-100346196D01*
X140786420Y-100289870D01*
X140786418Y-100289869D01*
X140583467Y-100249500D01*
X140583465Y-100249500D01*
X140376535Y-100249500D01*
X140376532Y-100249500D01*
X140173581Y-100289869D01*
X139982402Y-100369058D01*
X139810348Y-100484020D01*
X139664020Y-100630348D01*
X139549058Y-100802402D01*
X139469869Y-100993581D01*
X139429500Y-101196532D01*
X139429500Y-101403467D01*
X139469869Y-101606418D01*
X139526196Y-101742402D01*
X139530997Y-101803399D01*
X139504736Y-101850291D01*
X139233526Y-102121503D01*
X139179009Y-102149281D01*
X139163522Y-102150500D01*
X138814139Y-102150500D01*
X138755948Y-102131593D01*
X138719984Y-102082093D01*
X138719984Y-102020907D01*
X138744133Y-101981498D01*
X138755977Y-101969655D01*
X138870941Y-101797598D01*
X138950130Y-101606420D01*
X138990500Y-101403465D01*
X138990500Y-101196535D01*
X138950130Y-100993580D01*
X138893802Y-100857595D01*
X138889002Y-100796599D01*
X138915261Y-100749708D01*
X145315475Y-94349496D01*
X145369992Y-94321719D01*
X145385479Y-94320500D01*
X157531268Y-94320500D01*
X157589459Y-94339407D01*
X157622732Y-94381614D01*
X157679058Y-94517597D01*
X157679059Y-94517598D01*
X157794023Y-94689655D01*
X157940345Y-94835977D01*
X158112402Y-94950941D01*
X158303580Y-95030130D01*
X158506535Y-95070500D01*
X158506536Y-95070500D01*
X158713464Y-95070500D01*
X158713465Y-95070500D01*
X158916420Y-95030130D01*
X159107598Y-94950941D01*
X159279655Y-94835977D01*
X159425977Y-94689655D01*
X159540941Y-94517598D01*
X159620130Y-94326420D01*
X159660500Y-94123465D01*
X159660500Y-93916535D01*
X159620130Y-93713580D01*
X159563802Y-93577595D01*
X159559002Y-93516599D01*
X159585261Y-93469708D01*
X166990460Y-86064511D01*
X167030021Y-85995989D01*
X167050500Y-85919562D01*
X167050500Y-82528731D01*
X167069407Y-82470540D01*
X167111614Y-82437267D01*
X167247598Y-82380941D01*
X167419655Y-82265977D01*
X167565977Y-82119655D01*
X167680941Y-81947598D01*
X167760130Y-81756420D01*
X167800500Y-81553465D01*
X167800500Y-81346535D01*
X167760130Y-81143580D01*
X167703802Y-81007595D01*
X167699002Y-80946599D01*
X167725261Y-80899708D01*
X168410460Y-80214511D01*
X168450021Y-80145989D01*
X168470500Y-80069562D01*
X168470500Y-60368731D01*
X168489407Y-60310540D01*
X168531614Y-60277267D01*
X168667598Y-60220941D01*
X168839655Y-60105977D01*
X168985977Y-59959655D01*
X169100941Y-59787598D01*
X169180130Y-59596420D01*
X169220500Y-59393465D01*
X169220500Y-59186535D01*
X169180130Y-58983580D01*
X169100941Y-58792402D01*
X168985977Y-58620345D01*
X168839655Y-58474023D01*
X168667598Y-58359059D01*
X168667599Y-58359059D01*
X168667597Y-58359058D01*
X168476418Y-58279869D01*
X168273467Y-58239500D01*
X168273465Y-58239500D01*
X168066535Y-58239500D01*
X168066532Y-58239500D01*
X167863581Y-58279869D01*
X167672402Y-58359058D01*
X167500348Y-58474020D01*
X167354020Y-58620348D01*
X167239058Y-58792402D01*
X167159869Y-58983581D01*
X167119500Y-59186532D01*
X167119500Y-59393467D01*
X167159869Y-59596418D01*
X167239058Y-59787597D01*
X167294113Y-59869993D01*
X167354023Y-59959655D01*
X167500345Y-60105977D01*
X167672402Y-60220941D01*
X167808385Y-60277267D01*
X167854911Y-60317003D01*
X167869500Y-60368731D01*
X167869500Y-79864520D01*
X167850593Y-79922711D01*
X167840504Y-79934524D01*
X167300292Y-80474736D01*
X167245775Y-80502513D01*
X167192402Y-80496196D01*
X167056418Y-80439869D01*
X166853467Y-80399500D01*
X166853465Y-80399500D01*
X166646535Y-80399500D01*
X166646532Y-80399500D01*
X166443581Y-80439869D01*
X166252402Y-80519058D01*
X166080348Y-80634020D01*
X165934020Y-80780348D01*
X165819058Y-80952402D01*
X165739869Y-81143581D01*
X165699500Y-81346532D01*
X165699500Y-81553467D01*
X165739869Y-81756418D01*
X165819058Y-81947597D01*
X165898434Y-82066392D01*
X165934023Y-82119655D01*
X166080345Y-82265977D01*
X166252402Y-82380941D01*
X166388385Y-82437267D01*
X166434911Y-82477003D01*
X166449500Y-82528731D01*
X166449500Y-85714520D01*
X166430593Y-85772711D01*
X166420504Y-85784524D01*
X159160291Y-93044736D01*
X159105774Y-93072513D01*
X159052402Y-93066196D01*
X158916420Y-93009870D01*
X158916418Y-93009869D01*
X158713467Y-92969500D01*
X158713465Y-92969500D01*
X158506535Y-92969500D01*
X158506532Y-92969500D01*
X158303581Y-93009869D01*
X158112402Y-93089058D01*
X157940348Y-93204020D01*
X157794020Y-93350348D01*
X157679058Y-93522402D01*
X157622732Y-93658386D01*
X157582995Y-93704912D01*
X157531268Y-93719500D01*
X145259562Y-93719500D01*
X145180438Y-93719500D01*
X145133661Y-93732033D01*
X145104007Y-93739979D01*
X145035493Y-93779536D01*
X145035492Y-93779537D01*
X138490292Y-100324735D01*
X138466330Y-100336943D01*
X138443399Y-100350996D01*
X138439372Y-100350679D01*
X138435775Y-100352512D01*
X138382402Y-100346195D01*
X138301614Y-100312731D01*
X138255088Y-100272994D01*
X138240500Y-100221267D01*
X138240500Y-88481987D01*
X147569500Y-88481987D01*
X147569500Y-88718012D01*
X147600306Y-88952006D01*
X147600306Y-88952011D01*
X147661393Y-89179992D01*
X147751713Y-89398044D01*
X147751716Y-89398049D01*
X147844076Y-89558022D01*
X147869729Y-89602453D01*
X148013402Y-89789692D01*
X148013404Y-89789694D01*
X148013408Y-89789699D01*
X148180301Y-89956592D01*
X148180305Y-89956595D01*
X148180307Y-89956597D01*
X148367546Y-90100270D01*
X148367550Y-90100273D01*
X148571951Y-90218284D01*
X148571952Y-90218284D01*
X148571955Y-90218286D01*
X148761003Y-90296592D01*
X148790007Y-90308606D01*
X149017986Y-90369693D01*
X149251989Y-90400500D01*
X149251990Y-90400500D01*
X149488010Y-90400500D01*
X149488011Y-90400500D01*
X149722014Y-90369693D01*
X149949993Y-90308606D01*
X150168049Y-90218284D01*
X150372450Y-90100273D01*
X150559699Y-89956592D01*
X150726592Y-89789699D01*
X150870273Y-89602450D01*
X150988284Y-89398049D01*
X151078606Y-89179993D01*
X151139693Y-88952014D01*
X151154896Y-88836535D01*
X151154896Y-88836532D01*
X157559500Y-88836532D01*
X157559500Y-89043467D01*
X157599869Y-89246418D01*
X157679058Y-89437597D01*
X157794020Y-89609651D01*
X157794023Y-89609655D01*
X157940345Y-89755977D01*
X158112402Y-89870941D01*
X158303580Y-89950130D01*
X158506535Y-89990500D01*
X158506536Y-89990500D01*
X158713464Y-89990500D01*
X158713465Y-89990500D01*
X158916420Y-89950130D01*
X159107598Y-89870941D01*
X159279655Y-89755977D01*
X159425977Y-89609655D01*
X159540941Y-89437598D01*
X159620130Y-89246420D01*
X159660500Y-89043465D01*
X159660500Y-88836535D01*
X159620130Y-88633580D01*
X159540941Y-88442402D01*
X159425977Y-88270345D01*
X159279655Y-88124023D01*
X159107598Y-88009059D01*
X159107599Y-88009059D01*
X159107597Y-88009058D01*
X158916418Y-87929869D01*
X158713467Y-87889500D01*
X158713465Y-87889500D01*
X158506535Y-87889500D01*
X158506532Y-87889500D01*
X158303581Y-87929869D01*
X158112402Y-88009058D01*
X157940348Y-88124020D01*
X157794020Y-88270348D01*
X157679058Y-88442402D01*
X157599869Y-88633581D01*
X157559500Y-88836532D01*
X151154896Y-88836532D01*
X151157238Y-88818749D01*
X151157238Y-88818748D01*
X151160141Y-88796688D01*
X151170500Y-88718011D01*
X151170500Y-88481989D01*
X151139693Y-88247986D01*
X151078606Y-88020007D01*
X151044451Y-87937550D01*
X150988286Y-87801955D01*
X150958467Y-87750307D01*
X150870273Y-87597550D01*
X150870270Y-87597546D01*
X150726597Y-87410307D01*
X150726595Y-87410305D01*
X150726592Y-87410301D01*
X150559699Y-87243408D01*
X150559694Y-87243404D01*
X150559692Y-87243402D01*
X150372453Y-87099729D01*
X150168044Y-86981713D01*
X149949992Y-86891393D01*
X149794277Y-86849670D01*
X149722014Y-86830307D01*
X149722011Y-86830306D01*
X149722009Y-86830306D01*
X149488012Y-86799500D01*
X149488011Y-86799500D01*
X149251989Y-86799500D01*
X149251987Y-86799500D01*
X149017993Y-86830306D01*
X149017988Y-86830306D01*
X148790007Y-86891393D01*
X148571955Y-86981713D01*
X148367546Y-87099729D01*
X148180307Y-87243402D01*
X148013402Y-87410307D01*
X147869729Y-87597546D01*
X147751713Y-87801955D01*
X147661393Y-88020007D01*
X147600306Y-88247988D01*
X147600306Y-88247993D01*
X147569500Y-88481987D01*
X138240500Y-88481987D01*
X138240500Y-68200437D01*
X138240499Y-68200435D01*
X138238470Y-68192864D01*
X138220021Y-68124011D01*
X138180460Y-68055489D01*
X138169875Y-68044904D01*
X138124511Y-67999539D01*
X138124511Y-67999540D01*
X131756467Y-61631496D01*
X131728690Y-61576979D01*
X131729374Y-61542177D01*
X131747998Y-61448551D01*
X131747997Y-61448551D01*
X131748000Y-61448541D01*
X131748000Y-61309834D01*
X131766907Y-61251643D01*
X131816407Y-61215679D01*
X131877593Y-61215679D01*
X131917001Y-61239828D01*
X152537638Y-81860465D01*
X152537640Y-81860466D01*
X152537642Y-81860468D01*
X152611857Y-81903316D01*
X152611855Y-81903316D01*
X152611859Y-81903317D01*
X152611861Y-81903318D01*
X152694647Y-81925500D01*
X152780353Y-81925500D01*
X156576678Y-81925500D01*
X156634869Y-81944407D01*
X156646681Y-81954496D01*
X156692684Y-82000499D01*
X156692690Y-82000503D01*
X156806810Y-82066390D01*
X156806808Y-82066390D01*
X156806812Y-82066391D01*
X156806814Y-82066392D01*
X156934108Y-82100500D01*
X156934110Y-82100500D01*
X157065890Y-82100500D01*
X157065892Y-82100500D01*
X157193186Y-82066392D01*
X157193188Y-82066390D01*
X157193190Y-82066390D01*
X157307309Y-82000503D01*
X157307309Y-82000502D01*
X157307314Y-82000500D01*
X157400500Y-81907314D01*
X157427547Y-81860468D01*
X157466390Y-81793190D01*
X157466390Y-81793188D01*
X157466392Y-81793186D01*
X157500500Y-81665892D01*
X157500500Y-81534108D01*
X157466392Y-81406814D01*
X157431588Y-81346532D01*
X158079500Y-81346532D01*
X158079500Y-81553467D01*
X158119869Y-81756418D01*
X158199058Y-81947597D01*
X158278434Y-82066392D01*
X158314023Y-82119655D01*
X158460345Y-82265977D01*
X158632402Y-82380941D01*
X158823580Y-82460130D01*
X159026535Y-82500500D01*
X159026536Y-82500500D01*
X159233464Y-82500500D01*
X159233465Y-82500500D01*
X159436420Y-82460130D01*
X159627598Y-82380941D01*
X159799655Y-82265977D01*
X159945977Y-82119655D01*
X160060941Y-81947598D01*
X160140130Y-81756420D01*
X160180500Y-81553465D01*
X160180500Y-81346535D01*
X160180499Y-81346532D01*
X160619500Y-81346532D01*
X160619500Y-81553467D01*
X160659869Y-81756418D01*
X160739058Y-81947597D01*
X160818434Y-82066392D01*
X160854023Y-82119655D01*
X161000345Y-82265977D01*
X161172402Y-82380941D01*
X161363580Y-82460130D01*
X161566535Y-82500500D01*
X161566536Y-82500500D01*
X161773464Y-82500500D01*
X161773465Y-82500500D01*
X161976420Y-82460130D01*
X162167598Y-82380941D01*
X162339655Y-82265977D01*
X162485977Y-82119655D01*
X162600941Y-81947598D01*
X162680130Y-81756420D01*
X162720500Y-81553465D01*
X162720500Y-81346535D01*
X162680130Y-81143580D01*
X162600941Y-80952402D01*
X162485977Y-80780345D01*
X162339655Y-80634023D01*
X162339651Y-80634020D01*
X162167597Y-80519058D01*
X161976418Y-80439869D01*
X161773467Y-80399500D01*
X161773465Y-80399500D01*
X161566535Y-80399500D01*
X161566532Y-80399500D01*
X161363581Y-80439869D01*
X161172402Y-80519058D01*
X161000348Y-80634020D01*
X160854020Y-80780348D01*
X160739058Y-80952402D01*
X160659869Y-81143581D01*
X160619500Y-81346532D01*
X160180499Y-81346532D01*
X160140130Y-81143580D01*
X160060941Y-80952402D01*
X159945977Y-80780345D01*
X159799655Y-80634023D01*
X159799651Y-80634020D01*
X159627597Y-80519058D01*
X159436418Y-80439869D01*
X159233467Y-80399500D01*
X159233465Y-80399500D01*
X159026535Y-80399500D01*
X159026532Y-80399500D01*
X158823581Y-80439869D01*
X158632402Y-80519058D01*
X158460348Y-80634020D01*
X158314020Y-80780348D01*
X158199058Y-80952402D01*
X158119869Y-81143581D01*
X158079500Y-81346532D01*
X157431588Y-81346532D01*
X157400500Y-81292686D01*
X157307314Y-81199500D01*
X157307311Y-81199498D01*
X157307309Y-81199496D01*
X157193189Y-81133609D01*
X157193191Y-81133609D01*
X157117010Y-81113197D01*
X157065892Y-81099500D01*
X156934108Y-81099500D01*
X156882990Y-81113197D01*
X156806809Y-81133609D01*
X156692690Y-81199496D01*
X156692684Y-81199500D01*
X156646681Y-81245504D01*
X156592164Y-81273281D01*
X156576678Y-81274500D01*
X155868495Y-81274500D01*
X155810304Y-81255593D01*
X155774340Y-81206093D01*
X155774340Y-81144907D01*
X155810304Y-81095407D01*
X155842869Y-81079874D01*
X155893186Y-81066392D01*
X155893188Y-81066390D01*
X155893190Y-81066390D01*
X156007309Y-81000503D01*
X156007309Y-81000502D01*
X156007314Y-81000500D01*
X156100500Y-80907314D01*
X156102808Y-80903316D01*
X156166390Y-80793190D01*
X156166390Y-80793188D01*
X156166392Y-80793186D01*
X156200500Y-80665892D01*
X156200500Y-80534108D01*
X156166392Y-80406814D01*
X156166390Y-80406811D01*
X156166390Y-80406809D01*
X156100503Y-80292690D01*
X156100501Y-80292688D01*
X156100500Y-80292686D01*
X156007314Y-80199500D01*
X156007311Y-80199498D01*
X156007309Y-80199496D01*
X155893189Y-80133609D01*
X155893191Y-80133609D01*
X155843799Y-80120375D01*
X155765892Y-80099500D01*
X155634108Y-80099500D01*
X155556200Y-80120375D01*
X155506809Y-80133609D01*
X155392690Y-80199496D01*
X155392684Y-80199500D01*
X155346681Y-80245504D01*
X155292164Y-80273281D01*
X155276678Y-80274500D01*
X154453335Y-80274500D01*
X154395144Y-80255593D01*
X154383331Y-80245504D01*
X149357331Y-75219504D01*
X149329554Y-75164987D01*
X149339125Y-75104555D01*
X149382390Y-75061290D01*
X149427335Y-75050500D01*
X150566040Y-75050500D01*
X150566041Y-75050500D01*
X150759335Y-75012051D01*
X150941414Y-74936632D01*
X151105282Y-74827139D01*
X151244639Y-74687782D01*
X151354132Y-74523914D01*
X151429551Y-74341835D01*
X151468000Y-74148541D01*
X151468000Y-73951459D01*
X151429551Y-73758165D01*
X151354132Y-73576086D01*
X151244639Y-73412218D01*
X151105282Y-73272861D01*
X150941414Y-73163368D01*
X150941415Y-73163368D01*
X150941413Y-73163367D01*
X150759335Y-73087949D01*
X150566043Y-73049500D01*
X150566041Y-73049500D01*
X149368959Y-73049500D01*
X149368956Y-73049500D01*
X149175665Y-73087949D01*
X149175663Y-73087949D01*
X148993586Y-73163367D01*
X148829718Y-73272861D01*
X148829714Y-73272864D01*
X148690364Y-73412214D01*
X148690361Y-73412218D01*
X148580867Y-73576086D01*
X148505449Y-73758163D01*
X148505449Y-73758165D01*
X148467000Y-73951456D01*
X148467000Y-74090165D01*
X148448093Y-74148356D01*
X148398593Y-74184320D01*
X148337407Y-74184320D01*
X148297996Y-74160169D01*
X145549283Y-71411456D01*
X148467000Y-71411456D01*
X148467000Y-71608543D01*
X148505449Y-71801834D01*
X148505449Y-71801836D01*
X148580867Y-71983913D01*
X148580868Y-71983914D01*
X148690361Y-72147782D01*
X148829718Y-72287139D01*
X148993586Y-72396632D01*
X149175665Y-72472051D01*
X149368959Y-72510500D01*
X149368960Y-72510500D01*
X150566040Y-72510500D01*
X150566041Y-72510500D01*
X150759335Y-72472051D01*
X150941414Y-72396632D01*
X151105282Y-72287139D01*
X151244639Y-72147782D01*
X151354132Y-71983914D01*
X151429551Y-71801835D01*
X151468000Y-71608541D01*
X151468000Y-71411459D01*
X151429551Y-71218165D01*
X151354132Y-71036086D01*
X151244639Y-70872218D01*
X151105282Y-70732861D01*
X150941414Y-70623368D01*
X150941415Y-70623368D01*
X150941413Y-70623367D01*
X150759335Y-70547949D01*
X150566043Y-70509500D01*
X150566041Y-70509500D01*
X149368959Y-70509500D01*
X149368956Y-70509500D01*
X149175665Y-70547949D01*
X149175663Y-70547949D01*
X148993586Y-70623367D01*
X148829718Y-70732861D01*
X148829714Y-70732864D01*
X148690364Y-70872214D01*
X148690361Y-70872218D01*
X148580867Y-71036086D01*
X148505449Y-71218163D01*
X148505449Y-71218165D01*
X148467000Y-71411456D01*
X145549283Y-71411456D01*
X143009283Y-68871456D01*
X148467000Y-68871456D01*
X148467000Y-69068543D01*
X148473658Y-69102014D01*
X148504526Y-69257197D01*
X148505449Y-69261834D01*
X148505449Y-69261836D01*
X148580867Y-69443913D01*
X148617199Y-69498288D01*
X148690361Y-69607782D01*
X148829718Y-69747139D01*
X148993586Y-69856632D01*
X149175665Y-69932051D01*
X149368959Y-69970500D01*
X149368960Y-69970500D01*
X150566040Y-69970500D01*
X150566041Y-69970500D01*
X150759335Y-69932051D01*
X150941414Y-69856632D01*
X151105282Y-69747139D01*
X151244639Y-69607782D01*
X151354132Y-69443914D01*
X151429551Y-69261835D01*
X151468000Y-69068541D01*
X151468000Y-68871459D01*
X151429551Y-68678165D01*
X151410424Y-68631987D01*
X154789500Y-68631987D01*
X154789500Y-68868012D01*
X154820306Y-69102006D01*
X154820306Y-69102011D01*
X154881393Y-69329992D01*
X154971713Y-69548044D01*
X154971716Y-69548049D01*
X155086658Y-69747135D01*
X155089729Y-69752453D01*
X155233402Y-69939692D01*
X155233404Y-69939694D01*
X155233408Y-69939699D01*
X155400301Y-70106592D01*
X155400305Y-70106595D01*
X155400307Y-70106597D01*
X155587546Y-70250270D01*
X155587550Y-70250273D01*
X155791951Y-70368284D01*
X155791952Y-70368284D01*
X155791955Y-70368286D01*
X156010007Y-70458606D01*
X156237986Y-70519693D01*
X156471989Y-70550500D01*
X156471990Y-70550500D01*
X156708010Y-70550500D01*
X156708011Y-70550500D01*
X156942014Y-70519693D01*
X157169993Y-70458606D01*
X157388049Y-70368284D01*
X157592450Y-70250273D01*
X157779699Y-70106592D01*
X157946592Y-69939699D01*
X158090273Y-69752450D01*
X158208284Y-69548049D01*
X158298606Y-69329993D01*
X158359693Y-69102014D01*
X158390500Y-68868011D01*
X158390500Y-68631989D01*
X158359693Y-68397986D01*
X158298606Y-68170007D01*
X158262719Y-68083368D01*
X158208286Y-67951955D01*
X158187207Y-67915445D01*
X158090273Y-67747550D01*
X157946592Y-67560301D01*
X157779699Y-67393408D01*
X157779694Y-67393404D01*
X157779692Y-67393402D01*
X157592453Y-67249729D01*
X157518683Y-67207138D01*
X157388049Y-67131716D01*
X157388044Y-67131713D01*
X157169992Y-67041393D01*
X157014277Y-66999670D01*
X156942014Y-66980307D01*
X156942011Y-66980306D01*
X156942009Y-66980306D01*
X156708012Y-66949500D01*
X156708011Y-66949500D01*
X156471989Y-66949500D01*
X156471987Y-66949500D01*
X156237993Y-66980306D01*
X156237988Y-66980306D01*
X156010007Y-67041393D01*
X155791955Y-67131713D01*
X155587546Y-67249729D01*
X155400307Y-67393402D01*
X155233402Y-67560307D01*
X155089729Y-67747546D01*
X154971713Y-67951955D01*
X154881393Y-68170007D01*
X154820306Y-68397988D01*
X154820306Y-68397993D01*
X154789500Y-68631987D01*
X151410424Y-68631987D01*
X151354132Y-68496086D01*
X151244639Y-68332218D01*
X151105282Y-68192861D01*
X150941414Y-68083368D01*
X150941415Y-68083368D01*
X150941413Y-68083367D01*
X150759335Y-68007949D01*
X150566043Y-67969500D01*
X150566041Y-67969500D01*
X149368959Y-67969500D01*
X149368956Y-67969500D01*
X149175665Y-68007949D01*
X149175663Y-68007949D01*
X148993586Y-68083367D01*
X148829718Y-68192861D01*
X148829714Y-68192864D01*
X148690364Y-68332214D01*
X148690361Y-68332218D01*
X148580867Y-68496086D01*
X148505449Y-68678163D01*
X148505449Y-68678165D01*
X148467000Y-68871456D01*
X143009283Y-68871456D01*
X140469283Y-66331456D01*
X148467000Y-66331456D01*
X148467000Y-66528543D01*
X148505449Y-66721834D01*
X148505449Y-66721836D01*
X148580867Y-66903913D01*
X148580868Y-66903914D01*
X148690361Y-67067782D01*
X148829718Y-67207139D01*
X148993586Y-67316632D01*
X149175665Y-67392051D01*
X149368959Y-67430500D01*
X149368960Y-67430500D01*
X150566040Y-67430500D01*
X150566041Y-67430500D01*
X150759335Y-67392051D01*
X150941414Y-67316632D01*
X151105282Y-67207139D01*
X151244639Y-67067782D01*
X151354132Y-66903914D01*
X151429551Y-66721835D01*
X151468000Y-66528541D01*
X151468000Y-66331459D01*
X151429551Y-66138165D01*
X151354132Y-65956086D01*
X151244639Y-65792218D01*
X151105282Y-65652861D01*
X150941414Y-65543368D01*
X150941415Y-65543368D01*
X150941413Y-65543367D01*
X150759335Y-65467949D01*
X150566043Y-65429500D01*
X150566041Y-65429500D01*
X149368959Y-65429500D01*
X149368956Y-65429500D01*
X149175665Y-65467949D01*
X149175663Y-65467949D01*
X148993586Y-65543367D01*
X148829718Y-65652861D01*
X148829714Y-65652864D01*
X148690364Y-65792214D01*
X148690361Y-65792218D01*
X148580867Y-65956086D01*
X148505449Y-66138163D01*
X148505449Y-66138165D01*
X148467000Y-66331456D01*
X140469283Y-66331456D01*
X131350501Y-57212674D01*
X131322724Y-57158157D01*
X131332295Y-57097725D01*
X131365504Y-57060354D01*
X131385282Y-57047139D01*
X131524639Y-56907782D01*
X131634132Y-56743914D01*
X131709551Y-56561835D01*
X131748000Y-56368541D01*
X131748000Y-56368531D01*
X131748115Y-56367373D01*
X131748330Y-56366880D01*
X131748949Y-56363771D01*
X131749630Y-56363906D01*
X131772631Y-56311314D01*
X131825416Y-56280372D01*
X131886307Y-56286365D01*
X131916643Y-56307066D01*
X138573439Y-62963862D01*
X138573438Y-62963862D01*
X138612944Y-63003367D01*
X138634042Y-63024465D01*
X138708266Y-63067318D01*
X138791051Y-63089500D01*
X138876756Y-63089500D01*
X148614582Y-63089500D01*
X148672773Y-63108407D01*
X148708737Y-63157907D01*
X148708737Y-63219093D01*
X148692888Y-63248058D01*
X148693063Y-63248175D01*
X148691749Y-63250140D01*
X148691118Y-63251295D01*
X148690365Y-63252212D01*
X148580867Y-63416086D01*
X148505449Y-63598163D01*
X148505449Y-63598165D01*
X148467000Y-63791456D01*
X148467000Y-63988543D01*
X148505449Y-64181834D01*
X148505449Y-64181836D01*
X148580867Y-64363913D01*
X148617199Y-64418288D01*
X148690361Y-64527782D01*
X148829718Y-64667139D01*
X148993586Y-64776632D01*
X149175665Y-64852051D01*
X149368959Y-64890500D01*
X149368960Y-64890500D01*
X150566040Y-64890500D01*
X150566041Y-64890500D01*
X150759335Y-64852051D01*
X150941414Y-64776632D01*
X151105282Y-64667139D01*
X151244639Y-64527782D01*
X151354132Y-64363914D01*
X151429551Y-64181835D01*
X151468000Y-63988541D01*
X151468000Y-63791459D01*
X151429551Y-63598165D01*
X151354132Y-63416086D01*
X151244639Y-63252218D01*
X151244635Y-63252214D01*
X151244634Y-63252212D01*
X151243882Y-63251295D01*
X151243684Y-63250790D01*
X151241937Y-63248175D01*
X151242511Y-63247791D01*
X151221589Y-63194315D01*
X151237046Y-63135114D01*
X151284348Y-63096305D01*
X151320418Y-63089500D01*
X159040679Y-63089500D01*
X159098870Y-63108407D01*
X159110676Y-63118490D01*
X159192686Y-63200500D01*
X159192688Y-63200501D01*
X159192690Y-63200503D01*
X159306810Y-63266390D01*
X159306808Y-63266390D01*
X159306812Y-63266391D01*
X159306814Y-63266392D01*
X159434108Y-63300500D01*
X159434110Y-63300500D01*
X159565890Y-63300500D01*
X159565892Y-63300500D01*
X159693186Y-63266392D01*
X159693188Y-63266390D01*
X159693190Y-63266390D01*
X159807309Y-63200503D01*
X159807309Y-63200502D01*
X159807314Y-63200500D01*
X159900500Y-63107314D01*
X159923592Y-63067318D01*
X159966390Y-62993190D01*
X159966390Y-62993188D01*
X159966392Y-62993186D01*
X160000500Y-62865892D01*
X160000500Y-62734108D01*
X159966392Y-62606814D01*
X159966390Y-62606811D01*
X159966390Y-62606809D01*
X159900503Y-62492690D01*
X159900501Y-62492688D01*
X159900500Y-62492686D01*
X159807314Y-62399500D01*
X159807311Y-62399498D01*
X159807309Y-62399496D01*
X159693189Y-62333609D01*
X159693191Y-62333609D01*
X159612733Y-62312051D01*
X159565892Y-62299500D01*
X159434108Y-62299500D01*
X159387267Y-62312051D01*
X159306809Y-62333609D01*
X159192690Y-62399496D01*
X159192689Y-62399497D01*
X159192686Y-62399499D01*
X159192686Y-62399500D01*
X159182680Y-62409505D01*
X159128166Y-62437281D01*
X159112679Y-62438500D01*
X150951768Y-62438500D01*
X150893577Y-62419593D01*
X150857613Y-62370093D01*
X150857613Y-62308907D01*
X150893577Y-62259407D01*
X150913883Y-62248036D01*
X150926978Y-62242611D01*
X150941414Y-62236632D01*
X151105282Y-62127139D01*
X151244639Y-61987782D01*
X151354132Y-61823914D01*
X151429551Y-61641835D01*
X151468000Y-61448541D01*
X151468000Y-61251459D01*
X151429551Y-61058165D01*
X151354132Y-60876086D01*
X151244639Y-60712218D01*
X151105282Y-60572861D01*
X150941414Y-60463368D01*
X150941415Y-60463368D01*
X150941413Y-60463367D01*
X150759335Y-60387949D01*
X150566043Y-60349500D01*
X150566041Y-60349500D01*
X149368959Y-60349500D01*
X149368956Y-60349500D01*
X149175665Y-60387949D01*
X149175663Y-60387949D01*
X148993586Y-60463367D01*
X148829718Y-60572861D01*
X148829714Y-60572864D01*
X148690364Y-60712214D01*
X148690361Y-60712218D01*
X148580867Y-60876086D01*
X148505449Y-61058163D01*
X148505449Y-61058165D01*
X148467000Y-61251456D01*
X148467000Y-61448543D01*
X148492548Y-61576979D01*
X148503392Y-61631496D01*
X148505449Y-61641834D01*
X148505449Y-61641836D01*
X148580867Y-61823913D01*
X148580868Y-61823914D01*
X148690361Y-61987782D01*
X148829718Y-62127139D01*
X148993586Y-62236632D01*
X149021117Y-62248036D01*
X149067643Y-62287772D01*
X149081927Y-62347267D01*
X149058513Y-62403795D01*
X149006344Y-62435765D01*
X148983232Y-62438500D01*
X139009739Y-62438500D01*
X138951548Y-62419593D01*
X138939735Y-62409504D01*
X135898596Y-59368365D01*
X132701687Y-56171456D01*
X148467000Y-56171456D01*
X148467000Y-56368543D01*
X148505449Y-56561834D01*
X148505449Y-56561836D01*
X148580867Y-56743913D01*
X148617199Y-56798288D01*
X148690361Y-56907782D01*
X148829718Y-57047139D01*
X148993586Y-57156632D01*
X149175665Y-57232051D01*
X149368959Y-57270500D01*
X149368960Y-57270500D01*
X150566040Y-57270500D01*
X150566041Y-57270500D01*
X150759335Y-57232051D01*
X150941414Y-57156632D01*
X151105282Y-57047139D01*
X151244639Y-56907782D01*
X151322512Y-56791235D01*
X151354128Y-56743921D01*
X151354129Y-56743917D01*
X151354132Y-56743914D01*
X151390293Y-56656614D01*
X151430030Y-56610089D01*
X151481757Y-56595500D01*
X153452851Y-56595500D01*
X153452853Y-56595500D01*
X153535639Y-56573318D01*
X153535641Y-56573316D01*
X153535643Y-56573316D01*
X153609857Y-56530468D01*
X153609857Y-56530467D01*
X153609862Y-56530465D01*
X167644709Y-42495616D01*
X167699224Y-42467841D01*
X167752593Y-42474157D01*
X167863580Y-42520130D01*
X168066535Y-42560500D01*
X168066536Y-42560500D01*
X168273464Y-42560500D01*
X168273465Y-42560500D01*
X168476420Y-42520130D01*
X168667598Y-42440941D01*
X168839655Y-42325977D01*
X168985977Y-42179655D01*
X169100941Y-42007598D01*
X169180130Y-41816420D01*
X169220500Y-41613465D01*
X169220500Y-41406535D01*
X169180130Y-41203580D01*
X169100941Y-41012402D01*
X168985977Y-40840345D01*
X168839655Y-40694023D01*
X168667598Y-40579059D01*
X168667599Y-40579059D01*
X168667597Y-40579058D01*
X168476418Y-40499869D01*
X168273467Y-40459500D01*
X168273465Y-40459500D01*
X168066535Y-40459500D01*
X168066532Y-40459500D01*
X167863581Y-40499869D01*
X167672402Y-40579058D01*
X167500348Y-40694020D01*
X167354020Y-40840348D01*
X167239058Y-41012402D01*
X167159869Y-41203581D01*
X167119500Y-41406532D01*
X167119500Y-41613467D01*
X167159870Y-41816419D01*
X167159870Y-41816421D01*
X167205840Y-41927402D01*
X167210641Y-41988398D01*
X167184380Y-42035291D01*
X153304169Y-55915504D01*
X153249652Y-55943281D01*
X153234165Y-55944500D01*
X151481757Y-55944500D01*
X151423566Y-55925593D01*
X151390293Y-55883386D01*
X151354132Y-55796087D01*
X151354128Y-55796078D01*
X151291320Y-55702081D01*
X151244639Y-55632218D01*
X151105282Y-55492861D01*
X150941414Y-55383368D01*
X150941415Y-55383368D01*
X150941413Y-55383367D01*
X150759335Y-55307949D01*
X150566043Y-55269500D01*
X150566041Y-55269500D01*
X149368959Y-55269500D01*
X149368956Y-55269500D01*
X149175665Y-55307949D01*
X149175663Y-55307949D01*
X148993586Y-55383367D01*
X148829718Y-55492861D01*
X148829714Y-55492864D01*
X148690364Y-55632214D01*
X148690361Y-55632218D01*
X148580867Y-55796086D01*
X148505449Y-55978163D01*
X148505449Y-55978165D01*
X148467000Y-56171456D01*
X132701687Y-56171456D01*
X131262020Y-54731789D01*
X131234245Y-54677275D01*
X131243816Y-54616843D01*
X131277020Y-54579476D01*
X131385282Y-54507139D01*
X131524639Y-54367782D01*
X131634132Y-54203914D01*
X131709551Y-54021835D01*
X131748000Y-53828541D01*
X131748000Y-53631459D01*
X131709551Y-53438165D01*
X131634132Y-53256086D01*
X131524639Y-53092218D01*
X131385282Y-52952861D01*
X131385281Y-52952860D01*
X131365502Y-52939644D01*
X131327623Y-52891594D01*
X131325221Y-52830456D01*
X131350498Y-52787327D01*
X131903717Y-52234108D01*
X133599500Y-52234108D01*
X133599500Y-52365892D01*
X133620126Y-52442871D01*
X133633609Y-52493190D01*
X133699496Y-52607309D01*
X133699498Y-52607311D01*
X133699500Y-52607314D01*
X133792686Y-52700500D01*
X133792688Y-52700501D01*
X133792690Y-52700503D01*
X133906810Y-52766390D01*
X133906808Y-52766390D01*
X133906812Y-52766391D01*
X133906814Y-52766392D01*
X134034108Y-52800500D01*
X134034110Y-52800500D01*
X134165890Y-52800500D01*
X134165892Y-52800500D01*
X134293186Y-52766392D01*
X134293188Y-52766390D01*
X134293190Y-52766390D01*
X134407309Y-52700503D01*
X134407309Y-52700502D01*
X134407314Y-52700500D01*
X134500500Y-52607314D01*
X134566392Y-52493186D01*
X134579874Y-52442869D01*
X134613197Y-52391557D01*
X134670318Y-52369630D01*
X134729419Y-52385465D01*
X134767924Y-52433015D01*
X134774500Y-52468494D01*
X134774500Y-53576678D01*
X134755593Y-53634869D01*
X134745504Y-53646681D01*
X134699500Y-53692684D01*
X134699496Y-53692690D01*
X134633609Y-53806809D01*
X134633608Y-53806814D01*
X134599500Y-53934108D01*
X134599500Y-54065892D01*
X134622988Y-54153551D01*
X134633609Y-54193190D01*
X134699496Y-54307309D01*
X134699498Y-54307311D01*
X134699500Y-54307314D01*
X134792686Y-54400500D01*
X134792688Y-54400501D01*
X134792690Y-54400503D01*
X134906810Y-54466390D01*
X134906808Y-54466390D01*
X134906812Y-54466391D01*
X134906814Y-54466392D01*
X135034108Y-54500500D01*
X135034110Y-54500500D01*
X135165890Y-54500500D01*
X135165892Y-54500500D01*
X135293186Y-54466392D01*
X135293188Y-54466390D01*
X135293190Y-54466390D01*
X135407309Y-54400503D01*
X135407309Y-54400502D01*
X135407314Y-54400500D01*
X135500500Y-54307314D01*
X135566392Y-54193186D01*
X135600500Y-54065892D01*
X135600500Y-53934108D01*
X135566392Y-53806814D01*
X135566390Y-53806811D01*
X135566390Y-53806809D01*
X135500503Y-53692690D01*
X135500499Y-53692685D01*
X135454496Y-53646681D01*
X135446739Y-53631456D01*
X148467000Y-53631456D01*
X148467000Y-53828543D01*
X148505449Y-54021834D01*
X148505449Y-54021836D01*
X148580867Y-54203913D01*
X148580868Y-54203914D01*
X148690361Y-54367782D01*
X148829718Y-54507139D01*
X148993586Y-54616632D01*
X149175665Y-54692051D01*
X149368959Y-54730500D01*
X149368960Y-54730500D01*
X150566040Y-54730500D01*
X150566041Y-54730500D01*
X150759335Y-54692051D01*
X150941414Y-54616632D01*
X151105282Y-54507139D01*
X151244639Y-54367782D01*
X151354132Y-54203914D01*
X151429551Y-54021835D01*
X151468000Y-53828541D01*
X151468000Y-53724500D01*
X151486907Y-53666309D01*
X151536407Y-53630345D01*
X151567000Y-53625500D01*
X154309460Y-53625500D01*
X154358958Y-53638762D01*
X154406814Y-53666392D01*
X154534108Y-53700500D01*
X154534110Y-53700500D01*
X154665890Y-53700500D01*
X154665892Y-53700500D01*
X154793186Y-53666392D01*
X154793188Y-53666390D01*
X154793190Y-53666390D01*
X154907309Y-53600503D01*
X154907309Y-53600502D01*
X154907314Y-53600500D01*
X155000500Y-53507314D01*
X155000503Y-53507309D01*
X155066390Y-53393190D01*
X155066390Y-53393188D01*
X155066392Y-53393186D01*
X155100500Y-53265892D01*
X155100500Y-53134108D01*
X155066392Y-53006814D01*
X155066390Y-53006811D01*
X155066390Y-53006809D01*
X155000503Y-52892690D01*
X155000501Y-52892688D01*
X155000500Y-52892686D01*
X154907314Y-52799500D01*
X154907311Y-52799498D01*
X154907309Y-52799496D01*
X154793189Y-52733609D01*
X154793191Y-52733609D01*
X154743799Y-52720375D01*
X154665892Y-52699500D01*
X154534108Y-52699500D01*
X154456200Y-52720375D01*
X154406809Y-52733609D01*
X154292690Y-52799496D01*
X154199499Y-52892687D01*
X154180843Y-52925001D01*
X154135373Y-52965941D01*
X154095107Y-52974500D01*
X151167072Y-52974500D01*
X151108881Y-52955593D01*
X151105754Y-52953177D01*
X151105283Y-52952862D01*
X151105282Y-52952861D01*
X150941414Y-52843368D01*
X150941415Y-52843368D01*
X150941413Y-52843367D01*
X150759335Y-52767949D01*
X150566043Y-52729500D01*
X150566041Y-52729500D01*
X149368959Y-52729500D01*
X149368956Y-52729500D01*
X149175665Y-52767949D01*
X149175663Y-52767949D01*
X148993586Y-52843367D01*
X148829718Y-52952861D01*
X148829714Y-52952864D01*
X148690364Y-53092214D01*
X148690361Y-53092218D01*
X148580867Y-53256086D01*
X148505449Y-53438163D01*
X148505449Y-53438165D01*
X148467000Y-53631456D01*
X135446739Y-53631456D01*
X135426719Y-53592164D01*
X135425500Y-53576678D01*
X135425500Y-52375835D01*
X135444407Y-52317644D01*
X135454496Y-52305831D01*
X136668871Y-51091456D01*
X148467000Y-51091456D01*
X148467000Y-51288543D01*
X148505449Y-51481834D01*
X148505449Y-51481836D01*
X148580867Y-51663913D01*
X148617199Y-51718288D01*
X148690361Y-51827782D01*
X148829718Y-51967139D01*
X148993586Y-52076632D01*
X149175665Y-52152051D01*
X149368959Y-52190500D01*
X149368960Y-52190500D01*
X150566040Y-52190500D01*
X150566041Y-52190500D01*
X150759335Y-52152051D01*
X150941414Y-52076632D01*
X151105282Y-51967139D01*
X151244639Y-51827782D01*
X151354132Y-51663914D01*
X151429551Y-51481835D01*
X151468000Y-51288541D01*
X151468000Y-51091459D01*
X151429551Y-50898165D01*
X151354132Y-50716086D01*
X151244639Y-50552218D01*
X151105282Y-50412861D01*
X150941414Y-50303368D01*
X150941415Y-50303368D01*
X150941413Y-50303367D01*
X150759335Y-50227949D01*
X150566043Y-50189500D01*
X150566041Y-50189500D01*
X149368959Y-50189500D01*
X149368956Y-50189500D01*
X149175665Y-50227949D01*
X149175663Y-50227949D01*
X148993586Y-50303367D01*
X148829718Y-50412861D01*
X148829714Y-50412864D01*
X148690364Y-50552214D01*
X148690361Y-50552218D01*
X148580867Y-50716086D01*
X148505449Y-50898163D01*
X148505449Y-50898165D01*
X148467000Y-51091456D01*
X136668871Y-51091456D01*
X139208871Y-48551456D01*
X148467000Y-48551456D01*
X148467000Y-48551459D01*
X148467000Y-48748541D01*
X148499209Y-48910467D01*
X148505449Y-48941834D01*
X148505449Y-48941836D01*
X148580867Y-49123913D01*
X148617199Y-49178288D01*
X148690361Y-49287782D01*
X148829718Y-49427139D01*
X148993586Y-49536632D01*
X149175665Y-49612051D01*
X149368959Y-49650500D01*
X149368960Y-49650500D01*
X150566040Y-49650500D01*
X150566041Y-49650500D01*
X150759335Y-49612051D01*
X150941414Y-49536632D01*
X151105282Y-49427139D01*
X151244639Y-49287782D01*
X151354132Y-49123914D01*
X151429551Y-48941835D01*
X151468000Y-48748541D01*
X151468000Y-48551459D01*
X151429551Y-48358165D01*
X151354132Y-48176086D01*
X151244639Y-48012218D01*
X151105282Y-47872861D01*
X150941414Y-47763368D01*
X150941415Y-47763368D01*
X150941413Y-47763367D01*
X150759335Y-47687949D01*
X150566043Y-47649500D01*
X150566041Y-47649500D01*
X149368959Y-47649500D01*
X149368956Y-47649500D01*
X149175665Y-47687949D01*
X149175663Y-47687949D01*
X148993586Y-47763367D01*
X148829718Y-47872861D01*
X148829714Y-47872864D01*
X148690364Y-48012214D01*
X148690361Y-48012218D01*
X148580867Y-48176086D01*
X148505449Y-48358163D01*
X148505449Y-48358165D01*
X148467000Y-48551456D01*
X139208871Y-48551456D01*
X141748871Y-46011456D01*
X148467000Y-46011456D01*
X148467000Y-46208543D01*
X148505449Y-46401834D01*
X148505449Y-46401836D01*
X148580867Y-46583913D01*
X148580868Y-46583914D01*
X148690361Y-46747782D01*
X148829718Y-46887139D01*
X148993586Y-46996632D01*
X149175665Y-47072051D01*
X149368959Y-47110500D01*
X149368960Y-47110500D01*
X150566040Y-47110500D01*
X150566041Y-47110500D01*
X150759335Y-47072051D01*
X150941414Y-46996632D01*
X151105282Y-46887139D01*
X151244639Y-46747782D01*
X151354132Y-46583914D01*
X151429551Y-46401835D01*
X151468000Y-46208541D01*
X151468000Y-46011459D01*
X151429551Y-45818165D01*
X151354132Y-45636086D01*
X151244639Y-45472218D01*
X151105282Y-45332861D01*
X150941414Y-45223368D01*
X150941415Y-45223368D01*
X150941413Y-45223367D01*
X150759335Y-45147949D01*
X150566043Y-45109500D01*
X150566041Y-45109500D01*
X149368959Y-45109500D01*
X149368956Y-45109500D01*
X149175665Y-45147949D01*
X149175663Y-45147949D01*
X148993586Y-45223367D01*
X148829718Y-45332861D01*
X148829714Y-45332864D01*
X148690364Y-45472214D01*
X148690361Y-45472218D01*
X148580867Y-45636086D01*
X148505449Y-45818163D01*
X148505449Y-45818165D01*
X148467000Y-46011456D01*
X141748871Y-46011456D01*
X144605831Y-43154496D01*
X144660348Y-43126719D01*
X144675835Y-43125500D01*
X151076678Y-43125500D01*
X151134869Y-43144407D01*
X151146681Y-43154496D01*
X151192684Y-43200499D01*
X151192690Y-43200503D01*
X151306810Y-43266390D01*
X151306808Y-43266390D01*
X151306812Y-43266391D01*
X151306814Y-43266392D01*
X151434108Y-43300500D01*
X151434110Y-43300500D01*
X151565890Y-43300500D01*
X151565892Y-43300500D01*
X151693186Y-43266392D01*
X151693188Y-43266390D01*
X151693190Y-43266390D01*
X151807309Y-43200503D01*
X151807309Y-43200502D01*
X151807314Y-43200500D01*
X151900500Y-43107314D01*
X151966392Y-42993186D01*
X152000500Y-42865892D01*
X152000500Y-42734108D01*
X151966392Y-42606814D01*
X151966390Y-42606811D01*
X151966390Y-42606809D01*
X151900503Y-42492690D01*
X151900501Y-42492688D01*
X151900500Y-42492686D01*
X151807314Y-42399500D01*
X151807311Y-42399498D01*
X151807309Y-42399496D01*
X151693189Y-42333609D01*
X151693191Y-42333609D01*
X151672011Y-42327934D01*
X151642870Y-42320126D01*
X151591558Y-42286803D01*
X151569631Y-42229681D01*
X151585467Y-42170581D01*
X151633016Y-42132076D01*
X151668495Y-42125500D01*
X151976678Y-42125500D01*
X152034869Y-42144407D01*
X152046681Y-42154496D01*
X152092684Y-42200499D01*
X152092690Y-42200503D01*
X152206810Y-42266390D01*
X152206808Y-42266390D01*
X152206812Y-42266391D01*
X152206814Y-42266392D01*
X152334108Y-42300500D01*
X152334110Y-42300500D01*
X152465890Y-42300500D01*
X152465892Y-42300500D01*
X152593186Y-42266392D01*
X152593188Y-42266390D01*
X152593190Y-42266390D01*
X152707309Y-42200503D01*
X152707309Y-42200502D01*
X152707314Y-42200500D01*
X152800500Y-42107314D01*
X152844849Y-42030500D01*
X152866390Y-41993190D01*
X152866390Y-41993188D01*
X152866392Y-41993186D01*
X152900500Y-41865892D01*
X152900500Y-41734108D01*
X152866392Y-41606814D01*
X152866390Y-41606811D01*
X152866390Y-41606809D01*
X152800503Y-41492690D01*
X152800501Y-41492688D01*
X152800500Y-41492686D01*
X152707314Y-41399500D01*
X152707311Y-41399498D01*
X152707309Y-41399496D01*
X152593189Y-41333609D01*
X152593191Y-41333609D01*
X152543799Y-41320375D01*
X152465892Y-41299500D01*
X152334108Y-41299500D01*
X152256200Y-41320375D01*
X152206809Y-41333609D01*
X152092690Y-41399496D01*
X152092684Y-41399500D01*
X152046681Y-41445504D01*
X151992164Y-41473281D01*
X151976678Y-41474500D01*
X144557147Y-41474500D01*
X144474362Y-41496682D01*
X144400138Y-41539535D01*
X134169169Y-51770504D01*
X134114652Y-51798281D01*
X134099165Y-51799500D01*
X134034108Y-51799500D01*
X133956200Y-51820375D01*
X133906809Y-51833609D01*
X133792690Y-51899496D01*
X133699496Y-51992690D01*
X133633609Y-52106809D01*
X133622263Y-52149154D01*
X133599500Y-52234108D01*
X131903717Y-52234108D01*
X144199331Y-39938496D01*
X144253848Y-39910719D01*
X144269335Y-39909500D01*
X155576523Y-39909500D01*
X155634714Y-39928407D01*
X155670678Y-39977907D01*
X155670678Y-40039093D01*
X155636790Y-40087042D01*
X155550307Y-40153402D01*
X155383402Y-40320307D01*
X155239729Y-40507546D01*
X155121713Y-40711955D01*
X155031393Y-40930007D01*
X154970306Y-41157988D01*
X154970306Y-41157993D01*
X154939500Y-41391989D01*
X154939500Y-41431635D01*
X154939500Y-41628011D01*
X154964305Y-41816421D01*
X154970306Y-41862006D01*
X154970306Y-41862011D01*
X155031393Y-42089992D01*
X155121713Y-42308044D01*
X155121716Y-42308049D01*
X155230623Y-42496682D01*
X155239729Y-42512453D01*
X155383402Y-42699692D01*
X155383404Y-42699694D01*
X155383408Y-42699699D01*
X155550301Y-42866592D01*
X155550305Y-42866595D01*
X155550307Y-42866597D01*
X155715282Y-42993186D01*
X155737550Y-43010273D01*
X155941951Y-43128284D01*
X155941952Y-43128284D01*
X155941955Y-43128286D01*
X156160007Y-43218606D01*
X156387986Y-43279693D01*
X156621989Y-43310500D01*
X156621990Y-43310500D01*
X156858010Y-43310500D01*
X156858011Y-43310500D01*
X157092014Y-43279693D01*
X157319993Y-43218606D01*
X157538049Y-43128284D01*
X157742450Y-43010273D01*
X157929699Y-42866592D01*
X158096592Y-42699699D01*
X158240273Y-42512450D01*
X158358284Y-42308049D01*
X158448606Y-42089993D01*
X158509693Y-41862014D01*
X158540500Y-41628011D01*
X158540500Y-41406532D01*
X159499500Y-41406532D01*
X159499500Y-41613467D01*
X159539869Y-41816418D01*
X159619058Y-42007597D01*
X159699523Y-42128022D01*
X159734023Y-42179655D01*
X159880345Y-42325977D01*
X160052402Y-42440941D01*
X160243580Y-42520130D01*
X160446535Y-42560500D01*
X160446536Y-42560500D01*
X160653464Y-42560500D01*
X160653465Y-42560500D01*
X160856420Y-42520130D01*
X161047598Y-42440941D01*
X161219655Y-42325977D01*
X161365977Y-42179655D01*
X161480941Y-42007598D01*
X161560130Y-41816420D01*
X161600500Y-41613465D01*
X161600500Y-41406535D01*
X161600499Y-41406532D01*
X162039500Y-41406532D01*
X162039500Y-41613467D01*
X162079869Y-41816418D01*
X162159058Y-42007597D01*
X162239523Y-42128022D01*
X162274023Y-42179655D01*
X162420345Y-42325977D01*
X162592402Y-42440941D01*
X162783580Y-42520130D01*
X162986535Y-42560500D01*
X162986536Y-42560500D01*
X163193464Y-42560500D01*
X163193465Y-42560500D01*
X163396420Y-42520130D01*
X163587598Y-42440941D01*
X163759655Y-42325977D01*
X163905977Y-42179655D01*
X164020941Y-42007598D01*
X164100130Y-41816420D01*
X164140500Y-41613465D01*
X164140500Y-41406535D01*
X164140499Y-41406532D01*
X164579500Y-41406532D01*
X164579500Y-41613467D01*
X164619869Y-41816418D01*
X164699058Y-42007597D01*
X164779523Y-42128022D01*
X164814023Y-42179655D01*
X164960345Y-42325977D01*
X165132402Y-42440941D01*
X165323580Y-42520130D01*
X165526535Y-42560500D01*
X165526536Y-42560500D01*
X165733464Y-42560500D01*
X165733465Y-42560500D01*
X165936420Y-42520130D01*
X166127598Y-42440941D01*
X166299655Y-42325977D01*
X166445977Y-42179655D01*
X166560941Y-42007598D01*
X166640130Y-41816420D01*
X166680500Y-41613465D01*
X166680500Y-41406535D01*
X166640130Y-41203580D01*
X166560941Y-41012402D01*
X166445977Y-40840345D01*
X166299655Y-40694023D01*
X166127598Y-40579059D01*
X166127599Y-40579059D01*
X166127597Y-40579058D01*
X165936418Y-40499869D01*
X165733467Y-40459500D01*
X165733465Y-40459500D01*
X165526535Y-40459500D01*
X165526532Y-40459500D01*
X165323581Y-40499869D01*
X165132402Y-40579058D01*
X164960348Y-40694020D01*
X164814020Y-40840348D01*
X164699058Y-41012402D01*
X164619869Y-41203581D01*
X164579500Y-41406532D01*
X164140499Y-41406532D01*
X164100130Y-41203580D01*
X164020941Y-41012402D01*
X163905977Y-40840345D01*
X163759655Y-40694023D01*
X163587598Y-40579059D01*
X163587599Y-40579059D01*
X163587597Y-40579058D01*
X163396418Y-40499869D01*
X163193467Y-40459500D01*
X163193465Y-40459500D01*
X162986535Y-40459500D01*
X162986532Y-40459500D01*
X162783581Y-40499869D01*
X162592402Y-40579058D01*
X162420348Y-40694020D01*
X162274020Y-40840348D01*
X162159058Y-41012402D01*
X162079869Y-41203581D01*
X162039500Y-41406532D01*
X161600499Y-41406532D01*
X161560130Y-41203580D01*
X161480941Y-41012402D01*
X161365977Y-40840345D01*
X161219655Y-40694023D01*
X161047598Y-40579059D01*
X161047599Y-40579059D01*
X161047597Y-40579058D01*
X160856418Y-40499869D01*
X160653467Y-40459500D01*
X160653465Y-40459500D01*
X160446535Y-40459500D01*
X160446532Y-40459500D01*
X160243581Y-40499869D01*
X160052402Y-40579058D01*
X159880348Y-40694020D01*
X159734020Y-40840348D01*
X159619058Y-41012402D01*
X159539869Y-41203581D01*
X159499500Y-41406532D01*
X158540500Y-41406532D01*
X158540500Y-41391989D01*
X158509693Y-41157986D01*
X158448606Y-40930007D01*
X158411467Y-40840345D01*
X158358286Y-40711955D01*
X158347933Y-40694023D01*
X158240273Y-40507550D01*
X158096592Y-40320301D01*
X157929699Y-40153408D01*
X157929694Y-40153404D01*
X157929692Y-40153402D01*
X157843210Y-40087042D01*
X157808554Y-40036617D01*
X157810156Y-39975453D01*
X157847403Y-39926911D01*
X157903477Y-39909500D01*
X171148165Y-39909500D01*
X171206356Y-39928407D01*
X171218169Y-39938496D01*
X172264380Y-40984707D01*
X172292157Y-41039224D01*
X172285840Y-41092596D01*
X172239870Y-41203578D01*
X172239870Y-41203580D01*
X172199500Y-41406532D01*
X172199500Y-41613467D01*
X172239869Y-41816418D01*
X172319058Y-42007597D01*
X172399523Y-42128022D01*
X172434023Y-42179655D01*
X172580345Y-42325977D01*
X172752402Y-42440941D01*
X172943580Y-42520130D01*
X173146535Y-42560500D01*
X173146536Y-42560500D01*
X173353464Y-42560500D01*
X173353465Y-42560500D01*
X173556420Y-42520130D01*
X173747598Y-42440941D01*
X173919655Y-42325977D01*
X174065977Y-42179655D01*
X174180941Y-42007598D01*
X174260130Y-41816420D01*
X174300500Y-41613465D01*
X174300500Y-41406535D01*
X174297607Y-41391989D01*
X175259500Y-41391989D01*
X175259500Y-41431635D01*
X175259500Y-41628011D01*
X175284305Y-41816421D01*
X175290306Y-41862006D01*
X175290306Y-41862011D01*
X175351393Y-42089992D01*
X175441713Y-42308044D01*
X175441716Y-42308049D01*
X175550623Y-42496682D01*
X175559729Y-42512453D01*
X175703402Y-42699692D01*
X175703404Y-42699694D01*
X175703408Y-42699699D01*
X175870301Y-42866592D01*
X175870305Y-42866595D01*
X175870307Y-42866597D01*
X176035282Y-42993186D01*
X176057550Y-43010273D01*
X176261951Y-43128284D01*
X176261952Y-43128284D01*
X176261955Y-43128286D01*
X176480007Y-43218606D01*
X176707986Y-43279693D01*
X176941989Y-43310500D01*
X176941990Y-43310500D01*
X177178010Y-43310500D01*
X177178011Y-43310500D01*
X177412014Y-43279693D01*
X177639993Y-43218606D01*
X177858049Y-43128284D01*
X178062450Y-43010273D01*
X178249699Y-42866592D01*
X178416592Y-42699699D01*
X178560273Y-42512450D01*
X178678284Y-42308049D01*
X178768606Y-42089993D01*
X178829693Y-41862014D01*
X178860500Y-41628011D01*
X178860500Y-41391989D01*
X178829693Y-41157986D01*
X178768606Y-40930007D01*
X178731467Y-40840345D01*
X178678286Y-40711955D01*
X178667933Y-40694023D01*
X178560273Y-40507550D01*
X178416592Y-40320301D01*
X178249699Y-40153408D01*
X178249694Y-40153404D01*
X178249692Y-40153402D01*
X178062453Y-40009729D01*
X178003085Y-39975453D01*
X177858049Y-39891716D01*
X177858044Y-39891713D01*
X177639992Y-39801393D01*
X177484277Y-39759670D01*
X177412014Y-39740307D01*
X177412011Y-39740306D01*
X177412009Y-39740306D01*
X177178012Y-39709500D01*
X177178011Y-39709500D01*
X176941989Y-39709500D01*
X176941987Y-39709500D01*
X176707993Y-39740306D01*
X176707988Y-39740306D01*
X176480007Y-39801393D01*
X176261955Y-39891713D01*
X176057546Y-40009729D01*
X175870307Y-40153402D01*
X175703402Y-40320307D01*
X175559729Y-40507546D01*
X175441713Y-40711955D01*
X175351393Y-40930007D01*
X175290306Y-41157988D01*
X175290306Y-41157993D01*
X175259500Y-41391989D01*
X174297607Y-41391989D01*
X174260130Y-41203580D01*
X174180941Y-41012402D01*
X174065977Y-40840345D01*
X173919655Y-40694023D01*
X173747598Y-40579059D01*
X173747599Y-40579059D01*
X173747597Y-40579058D01*
X173556418Y-40499869D01*
X173353467Y-40459500D01*
X173353465Y-40459500D01*
X173146535Y-40459500D01*
X173146532Y-40459500D01*
X172943580Y-40499870D01*
X172943578Y-40499870D01*
X172832596Y-40545840D01*
X172771599Y-40550640D01*
X172724707Y-40524380D01*
X172127238Y-39926911D01*
X171523862Y-39323535D01*
X171523859Y-39323533D01*
X171523858Y-39323532D01*
X171523857Y-39323531D01*
X171449642Y-39280683D01*
X171449644Y-39280683D01*
X171417521Y-39272076D01*
X171366853Y-39258500D01*
X144136353Y-39258500D01*
X144050647Y-39258500D01*
X143999978Y-39272076D01*
X143967856Y-39280683D01*
X143893642Y-39323531D01*
X143893641Y-39323532D01*
X131917004Y-51300168D01*
X131862487Y-51327945D01*
X131802055Y-51318374D01*
X131758790Y-51275109D01*
X131748000Y-51230164D01*
X131748000Y-51091460D01*
X131747999Y-51091456D01*
X131709551Y-50898165D01*
X131634132Y-50716086D01*
X131524639Y-50552218D01*
X131385282Y-50412861D01*
X131221414Y-50303368D01*
X131221415Y-50303368D01*
X131221413Y-50303367D01*
X131039335Y-50227949D01*
X130846043Y-50189500D01*
X130846041Y-50189500D01*
X129648959Y-50189500D01*
X129648956Y-50189500D01*
X129455665Y-50227949D01*
X129455663Y-50227949D01*
X129273586Y-50303367D01*
X129109718Y-50412861D01*
X129109714Y-50412864D01*
X128970364Y-50552214D01*
X128970361Y-50552218D01*
X128860867Y-50716086D01*
X128785449Y-50898163D01*
X128785449Y-50898165D01*
X128747000Y-51091456D01*
X128747000Y-51288543D01*
X128785449Y-51481834D01*
X128785449Y-51481836D01*
X128860865Y-51663909D01*
X128860869Y-51663915D01*
X128876767Y-51687708D01*
X128893376Y-51746596D01*
X128872199Y-51804000D01*
X128864456Y-51812714D01*
X128361035Y-52316137D01*
X128361031Y-52316142D01*
X128318183Y-52390356D01*
X128300973Y-52454587D01*
X128300972Y-52454586D01*
X128296000Y-52473144D01*
X126000500Y-52473144D01*
X126000500Y-48551456D01*
X128747000Y-48551456D01*
X128747000Y-48551459D01*
X128747000Y-48748541D01*
X128779209Y-48910467D01*
X128785449Y-48941834D01*
X128785449Y-48941836D01*
X128860867Y-49123913D01*
X128897199Y-49178288D01*
X128970361Y-49287782D01*
X129109718Y-49427139D01*
X129273586Y-49536632D01*
X129455665Y-49612051D01*
X129648959Y-49650500D01*
X129648960Y-49650500D01*
X130846040Y-49650500D01*
X130846041Y-49650500D01*
X131039335Y-49612051D01*
X131221414Y-49536632D01*
X131385282Y-49427139D01*
X131524639Y-49287782D01*
X131602512Y-49171235D01*
X131634128Y-49123921D01*
X131634129Y-49123917D01*
X131634132Y-49123914D01*
X131670293Y-49036614D01*
X131710030Y-48990089D01*
X131761757Y-48975500D01*
X133592851Y-48975500D01*
X133592853Y-48975500D01*
X133675639Y-48953318D01*
X133675641Y-48953316D01*
X133675643Y-48953316D01*
X133749857Y-48910468D01*
X133749857Y-48910467D01*
X133749862Y-48910465D01*
X136530831Y-46129496D01*
X136585348Y-46101719D01*
X136600835Y-46100500D01*
X136665890Y-46100500D01*
X136665892Y-46100500D01*
X136793186Y-46066392D01*
X136793188Y-46066390D01*
X136793190Y-46066390D01*
X136907309Y-46000503D01*
X136907309Y-46000502D01*
X136907314Y-46000500D01*
X137000500Y-45907314D01*
X137000503Y-45907309D01*
X137066390Y-45793190D01*
X137066390Y-45793188D01*
X137066392Y-45793186D01*
X137100500Y-45665892D01*
X137100500Y-45534108D01*
X137066392Y-45406814D01*
X137066390Y-45406811D01*
X137066390Y-45406809D01*
X137000503Y-45292690D01*
X137000501Y-45292688D01*
X137000500Y-45292686D01*
X136907314Y-45199500D01*
X136907311Y-45199498D01*
X136907309Y-45199496D01*
X136793189Y-45133609D01*
X136793191Y-45133609D01*
X136743799Y-45120375D01*
X136665892Y-45099500D01*
X136534108Y-45099500D01*
X136456200Y-45120375D01*
X136406809Y-45133609D01*
X136292690Y-45199496D01*
X136199496Y-45292690D01*
X136133609Y-45406809D01*
X136099500Y-45534109D01*
X136099500Y-45599165D01*
X136080593Y-45657356D01*
X136070504Y-45669169D01*
X133444169Y-48295504D01*
X133389652Y-48323281D01*
X133374165Y-48324500D01*
X131761757Y-48324500D01*
X131703566Y-48305593D01*
X131670293Y-48263386D01*
X131634132Y-48176087D01*
X131634128Y-48176078D01*
X131571320Y-48082081D01*
X131524639Y-48012218D01*
X131385282Y-47872861D01*
X131221414Y-47763368D01*
X131221415Y-47763368D01*
X131221413Y-47763367D01*
X131039335Y-47687949D01*
X130846043Y-47649500D01*
X130846041Y-47649500D01*
X129648959Y-47649500D01*
X129648956Y-47649500D01*
X129455665Y-47687949D01*
X129455663Y-47687949D01*
X129273586Y-47763367D01*
X129109718Y-47872861D01*
X129109714Y-47872864D01*
X128970364Y-48012214D01*
X128970361Y-48012218D01*
X128860867Y-48176086D01*
X128785449Y-48358163D01*
X128785449Y-48358165D01*
X128747000Y-48551456D01*
X126000500Y-48551456D01*
X126000500Y-46011456D01*
X128747000Y-46011456D01*
X128747000Y-46208543D01*
X128785449Y-46401834D01*
X128785449Y-46401836D01*
X128860867Y-46583913D01*
X128860868Y-46583914D01*
X128970361Y-46747782D01*
X129109718Y-46887139D01*
X129273586Y-46996632D01*
X129455665Y-47072051D01*
X129648959Y-47110500D01*
X129648960Y-47110500D01*
X130846040Y-47110500D01*
X130846041Y-47110500D01*
X131039335Y-47072051D01*
X131221414Y-46996632D01*
X131385282Y-46887139D01*
X131524639Y-46747782D01*
X131634132Y-46583914D01*
X131709551Y-46401835D01*
X131748000Y-46208541D01*
X131748000Y-46011459D01*
X131709551Y-45818165D01*
X131634132Y-45636086D01*
X131524639Y-45472218D01*
X131385282Y-45332861D01*
X131221414Y-45223368D01*
X131221415Y-45223368D01*
X131221413Y-45223367D01*
X131039335Y-45147949D01*
X130846043Y-45109500D01*
X130846041Y-45109500D01*
X129648959Y-45109500D01*
X129648956Y-45109500D01*
X129455665Y-45147949D01*
X129455663Y-45147949D01*
X129273586Y-45223367D01*
X129109718Y-45332861D01*
X129109714Y-45332864D01*
X128970364Y-45472214D01*
X128970361Y-45472218D01*
X128860867Y-45636086D01*
X128785449Y-45818163D01*
X128785449Y-45818165D01*
X128747000Y-46011456D01*
X126000500Y-46011456D01*
X126000500Y-40931456D01*
X128747000Y-40931456D01*
X128747000Y-41128543D01*
X128785449Y-41321834D01*
X128785449Y-41321836D01*
X128860867Y-41503913D01*
X128860868Y-41503914D01*
X128970361Y-41667782D01*
X129109718Y-41807139D01*
X129273586Y-41916632D01*
X129455665Y-41992051D01*
X129648959Y-42030500D01*
X129648960Y-42030500D01*
X130846040Y-42030500D01*
X130846041Y-42030500D01*
X131039335Y-41992051D01*
X131221414Y-41916632D01*
X131385282Y-41807139D01*
X131524639Y-41667782D01*
X131634132Y-41503914D01*
X131709551Y-41321835D01*
X131748000Y-41128541D01*
X131748000Y-40931459D01*
X131709551Y-40738165D01*
X131634132Y-40556086D01*
X131524639Y-40392218D01*
X131385282Y-40252861D01*
X131221414Y-40143368D01*
X131221415Y-40143368D01*
X131221413Y-40143367D01*
X131039335Y-40067949D01*
X130846043Y-40029500D01*
X130846041Y-40029500D01*
X129648959Y-40029500D01*
X129648956Y-40029500D01*
X129455665Y-40067949D01*
X129455663Y-40067949D01*
X129273586Y-40143367D01*
X129109718Y-40252861D01*
X129109714Y-40252864D01*
X128970364Y-40392214D01*
X128970361Y-40392218D01*
X128860867Y-40556086D01*
X128785449Y-40738163D01*
X128785449Y-40738165D01*
X128747000Y-40931456D01*
X126000500Y-40931456D01*
X126000500Y-38391456D01*
X128747000Y-38391456D01*
X128747000Y-38588543D01*
X128785449Y-38781834D01*
X128785449Y-38781836D01*
X128860867Y-38963913D01*
X128860868Y-38963914D01*
X128970361Y-39127782D01*
X129109718Y-39267139D01*
X129273586Y-39376632D01*
X129455665Y-39452051D01*
X129648959Y-39490500D01*
X129648960Y-39490500D01*
X130846040Y-39490500D01*
X130846041Y-39490500D01*
X131039335Y-39452051D01*
X131221414Y-39376632D01*
X131385282Y-39267139D01*
X131524639Y-39127782D01*
X131634132Y-38963914D01*
X131709551Y-38781835D01*
X131748000Y-38588541D01*
X131748000Y-38391459D01*
X131709551Y-38198165D01*
X131634132Y-38016086D01*
X131524639Y-37852218D01*
X131385282Y-37712861D01*
X131221414Y-37603368D01*
X131221415Y-37603368D01*
X131221413Y-37603367D01*
X131039335Y-37527949D01*
X130846043Y-37489500D01*
X130846041Y-37489500D01*
X129648959Y-37489500D01*
X129648956Y-37489500D01*
X129455665Y-37527949D01*
X129455663Y-37527949D01*
X129273586Y-37603367D01*
X129109718Y-37712861D01*
X129109714Y-37712864D01*
X128970364Y-37852214D01*
X128970361Y-37852218D01*
X128860867Y-38016086D01*
X128785449Y-38198163D01*
X128785449Y-38198165D01*
X128747000Y-38391456D01*
X126000500Y-38391456D01*
X126000500Y-35345725D01*
X128747000Y-35345725D01*
X128747000Y-36554274D01*
X128749853Y-36584694D01*
X128749855Y-36584703D01*
X128794707Y-36712883D01*
X128875345Y-36822144D01*
X128875347Y-36822146D01*
X128875350Y-36822150D01*
X128875353Y-36822152D01*
X128875355Y-36822154D01*
X128984616Y-36902792D01*
X128984617Y-36902792D01*
X128984618Y-36902793D01*
X129112801Y-36947646D01*
X129143225Y-36950499D01*
X129143227Y-36950500D01*
X129143234Y-36950500D01*
X131351773Y-36950500D01*
X131351773Y-36950499D01*
X131382199Y-36947646D01*
X131510382Y-36902793D01*
X131619650Y-36822150D01*
X131700293Y-36712882D01*
X131745146Y-36584699D01*
X131747999Y-36554273D01*
X131748000Y-36554273D01*
X131748000Y-35345727D01*
X131747999Y-35345725D01*
X131745146Y-35315305D01*
X131745146Y-35315301D01*
X131700293Y-35187118D01*
X131619650Y-35077850D01*
X131619646Y-35077847D01*
X131619644Y-35077845D01*
X131510383Y-34997207D01*
X131382203Y-34952355D01*
X131382194Y-34952353D01*
X131351774Y-34949500D01*
X131351766Y-34949500D01*
X129143234Y-34949500D01*
X129143225Y-34949500D01*
X129112805Y-34952353D01*
X129112796Y-34952355D01*
X128984616Y-34997207D01*
X128875355Y-35077845D01*
X128875345Y-35077855D01*
X128794707Y-35187116D01*
X128749855Y-35315296D01*
X128749853Y-35315305D01*
X128747000Y-35345725D01*
X126000500Y-35345725D01*
X126000500Y-34034108D01*
X160799500Y-34034108D01*
X160799500Y-34165892D01*
X160829579Y-34278151D01*
X160833609Y-34293190D01*
X160899496Y-34407309D01*
X160899498Y-34407311D01*
X160899500Y-34407314D01*
X160992686Y-34500500D01*
X160992688Y-34500501D01*
X160992690Y-34500503D01*
X161106810Y-34566390D01*
X161106808Y-34566390D01*
X161106812Y-34566391D01*
X161106814Y-34566392D01*
X161234108Y-34600500D01*
X161234110Y-34600500D01*
X161365890Y-34600500D01*
X161365892Y-34600500D01*
X161493186Y-34566392D01*
X161493188Y-34566390D01*
X161493190Y-34566390D01*
X161607309Y-34500503D01*
X161607309Y-34500502D01*
X161607314Y-34500500D01*
X161700500Y-34407314D01*
X161766392Y-34293186D01*
X161800500Y-34165892D01*
X161800500Y-34034108D01*
X161766392Y-33906814D01*
X161766390Y-33906811D01*
X161766390Y-33906809D01*
X161700503Y-33792690D01*
X161700501Y-33792688D01*
X161700500Y-33792686D01*
X161607314Y-33699500D01*
X161607311Y-33699498D01*
X161607309Y-33699496D01*
X161493189Y-33633609D01*
X161493191Y-33633609D01*
X161443799Y-33620375D01*
X161365892Y-33599500D01*
X161234108Y-33599500D01*
X161156200Y-33620375D01*
X161106809Y-33633609D01*
X160992690Y-33699496D01*
X160899496Y-33792690D01*
X160833609Y-33906809D01*
X160833608Y-33906814D01*
X160799500Y-34034108D01*
X126000500Y-34034108D01*
X126000500Y-25220725D01*
X155499500Y-25220725D01*
X155499500Y-26579274D01*
X155502353Y-26609694D01*
X155502355Y-26609703D01*
X155547207Y-26737883D01*
X155627845Y-26847144D01*
X155627847Y-26847146D01*
X155627850Y-26847150D01*
X155627853Y-26847152D01*
X155627855Y-26847154D01*
X155737116Y-26927792D01*
X155737117Y-26927792D01*
X155737118Y-26927793D01*
X155865301Y-26972646D01*
X155895725Y-26975499D01*
X155895727Y-26975500D01*
X155895734Y-26975500D01*
X156704273Y-26975500D01*
X156704273Y-26975499D01*
X156734699Y-26972646D01*
X156862882Y-26927793D01*
X156972150Y-26847150D01*
X157052793Y-26737882D01*
X157097646Y-26609699D01*
X157100499Y-26579273D01*
X157100500Y-26579273D01*
X157100500Y-25546155D01*
X157499500Y-25546155D01*
X157499500Y-26253844D01*
X157530263Y-26408496D01*
X157530263Y-26408498D01*
X157590603Y-26554174D01*
X157590609Y-26554185D01*
X157627700Y-26609694D01*
X157678211Y-26685289D01*
X157789711Y-26796789D01*
X157867876Y-26849017D01*
X157920814Y-26884390D01*
X157920825Y-26884396D01*
X157974638Y-26906685D01*
X158066503Y-26944737D01*
X158221158Y-26975500D01*
X158221159Y-26975500D01*
X158378841Y-26975500D01*
X158378842Y-26975500D01*
X158533497Y-26944737D01*
X158679179Y-26884394D01*
X158810289Y-26796789D01*
X158921789Y-26685289D01*
X159009394Y-26554179D01*
X159069737Y-26408497D01*
X159100500Y-26253842D01*
X159100500Y-25546158D01*
X159100499Y-25546155D01*
X159499500Y-25546155D01*
X159499500Y-26253844D01*
X159530263Y-26408496D01*
X159530263Y-26408498D01*
X159590603Y-26554174D01*
X159590609Y-26554185D01*
X159627700Y-26609694D01*
X159678211Y-26685289D01*
X159789711Y-26796789D01*
X159867876Y-26849017D01*
X159920814Y-26884390D01*
X159920825Y-26884396D01*
X159974638Y-26906685D01*
X160066503Y-26944737D01*
X160221158Y-26975500D01*
X160221159Y-26975500D01*
X160378841Y-26975500D01*
X160378842Y-26975500D01*
X160533497Y-26944737D01*
X160679179Y-26884394D01*
X160810289Y-26796789D01*
X160921789Y-26685289D01*
X161009394Y-26554179D01*
X161069737Y-26408497D01*
X161100500Y-26253842D01*
X161100500Y-25546158D01*
X161069737Y-25391503D01*
X161009394Y-25245821D01*
X161009393Y-25245819D01*
X161009390Y-25245814D01*
X160972293Y-25190296D01*
X160921789Y-25114711D01*
X160810289Y-25003211D01*
X160734911Y-24952845D01*
X160679185Y-24915609D01*
X160679174Y-24915603D01*
X160533497Y-24855263D01*
X160378844Y-24824500D01*
X160378842Y-24824500D01*
X160221158Y-24824500D01*
X160221155Y-24824500D01*
X160066503Y-24855263D01*
X160066501Y-24855263D01*
X159920825Y-24915603D01*
X159920814Y-24915609D01*
X159789711Y-25003211D01*
X159789707Y-25003214D01*
X159678214Y-25114707D01*
X159678211Y-25114711D01*
X159590609Y-25245814D01*
X159590603Y-25245825D01*
X159530263Y-25391501D01*
X159530263Y-25391503D01*
X159499500Y-25546155D01*
X159100499Y-25546155D01*
X159069737Y-25391503D01*
X159009394Y-25245821D01*
X159009393Y-25245819D01*
X159009390Y-25245814D01*
X158972293Y-25190296D01*
X158921789Y-25114711D01*
X158810289Y-25003211D01*
X158734911Y-24952845D01*
X158679185Y-24915609D01*
X158679174Y-24915603D01*
X158533497Y-24855263D01*
X158378844Y-24824500D01*
X158378842Y-24824500D01*
X158221158Y-24824500D01*
X158221155Y-24824500D01*
X158066503Y-24855263D01*
X158066501Y-24855263D01*
X157920825Y-24915603D01*
X157920814Y-24915609D01*
X157789711Y-25003211D01*
X157789707Y-25003214D01*
X157678214Y-25114707D01*
X157678211Y-25114711D01*
X157590609Y-25245814D01*
X157590603Y-25245825D01*
X157530263Y-25391501D01*
X157530263Y-25391503D01*
X157499500Y-25546155D01*
X157100500Y-25546155D01*
X157100500Y-25220727D01*
X157100499Y-25220725D01*
X157097646Y-25190305D01*
X157097646Y-25190301D01*
X157052793Y-25062118D01*
X157009320Y-25003214D01*
X156972154Y-24952855D01*
X156972152Y-24952853D01*
X156972150Y-24952850D01*
X156972146Y-24952847D01*
X156972144Y-24952845D01*
X156862883Y-24872207D01*
X156734703Y-24827355D01*
X156734694Y-24827353D01*
X156704274Y-24824500D01*
X156704266Y-24824500D01*
X155895734Y-24824500D01*
X155895725Y-24824500D01*
X155865305Y-24827353D01*
X155865296Y-24827355D01*
X155737116Y-24872207D01*
X155627855Y-24952845D01*
X155627845Y-24952855D01*
X155547207Y-25062116D01*
X155502355Y-25190296D01*
X155502353Y-25190305D01*
X155499500Y-25220725D01*
X126000500Y-25220725D01*
X126000500Y-20599500D01*
X126019407Y-20541309D01*
X126068907Y-20505345D01*
X126099500Y-20500500D01*
X179900500Y-20500500D01*
X179958691Y-20519407D01*
G37*
%TD.AperFunction*%
%TA.AperFunction,Conductor*%
G36*
X131792785Y-131331902D02*
G01*
X131936917Y-131360570D01*
X131955483Y-131366202D01*
X132091250Y-131422439D01*
X132108361Y-131431585D01*
X132230547Y-131513226D01*
X132245550Y-131525538D01*
X132349460Y-131629448D01*
X132361772Y-131644451D01*
X132443411Y-131766633D01*
X132452559Y-131783748D01*
X132508795Y-131919513D01*
X132514429Y-131938085D01*
X132543098Y-132082210D01*
X132545000Y-132101524D01*
X132545000Y-132498474D01*
X132543098Y-132517788D01*
X132514429Y-132661913D01*
X132508795Y-132680485D01*
X132452559Y-132816250D01*
X132443411Y-132833365D01*
X132361772Y-132955547D01*
X132349460Y-132970550D01*
X132245550Y-133074460D01*
X132230547Y-133086772D01*
X132108365Y-133168411D01*
X132091250Y-133177559D01*
X131955485Y-133233795D01*
X131936913Y-133239429D01*
X131792787Y-133268098D01*
X131773475Y-133270000D01*
X131626526Y-133270000D01*
X131607212Y-133268098D01*
X131463085Y-133239429D01*
X131444513Y-133233795D01*
X131308748Y-133177559D01*
X131291633Y-133168411D01*
X131169451Y-133086772D01*
X131154448Y-133074460D01*
X131050538Y-132970550D01*
X131038226Y-132955547D01*
X130956587Y-132833365D01*
X130947439Y-132816250D01*
X130943738Y-132807314D01*
X130891200Y-132680477D01*
X130885569Y-132661913D01*
X130856902Y-132517790D01*
X130856902Y-132517788D01*
X130855000Y-132498477D01*
X130855000Y-132101520D01*
X130856902Y-132082206D01*
X130862830Y-132052402D01*
X130885570Y-131938079D01*
X130891203Y-131919513D01*
X130907427Y-131880345D01*
X130947439Y-131783746D01*
X130956582Y-131766639D01*
X131038227Y-131644448D01*
X131050530Y-131629456D01*
X131154456Y-131525530D01*
X131169448Y-131513227D01*
X131291639Y-131431582D01*
X131308746Y-131422439D01*
X131444517Y-131366201D01*
X131463082Y-131360569D01*
X131535147Y-131346235D01*
X131607209Y-131331902D01*
X131626522Y-131330000D01*
X131773472Y-131330000D01*
X131792785Y-131331902D01*
G37*
%TD.AperFunction*%
%TD*%
M02*
