%TF.GenerationSoftware,KiCad,Pcbnew,9.0.1*%
%TF.CreationDate,2025-04-21T23:50:45-04:00*%
%TF.ProjectId,2025SIMPLETVC,32303235-5349-44d5-904c-455456432e6b,rev?*%
%TF.SameCoordinates,Original*%
%TF.FileFunction,Soldermask,Bot*%
%TF.FilePolarity,Negative*%
%FSLAX46Y46*%
G04 Gerber Fmt 4.6, Leading zero omitted, Abs format (unit mm)*
G04 Created by KiCad (PCBNEW 9.0.1) date 2025-04-21 23:50:45*
%MOMM*%
%LPD*%
G01*
G04 APERTURE LIST*
G04 Aperture macros list*
%AMRoundRect*
0 Rectangle with rounded corners*
0 $1 Rounding radius*
0 $2 $3 $4 $5 $6 $7 $8 $9 X,Y pos of 4 corners*
0 Add a 4 corners polygon primitive as box body*
4,1,4,$2,$3,$4,$5,$6,$7,$8,$9,$2,$3,0*
0 Add four circle primitives for the rounded corners*
1,1,$1+$1,$2,$3*
1,1,$1+$1,$4,$5*
1,1,$1+$1,$6,$7*
1,1,$1+$1,$8,$9*
0 Add four rect primitives between the rounded corners*
20,1,$1+$1,$2,$3,$4,$5,0*
20,1,$1+$1,$4,$5,$6,$7,0*
20,1,$1+$1,$6,$7,$8,$9,0*
20,1,$1+$1,$8,$9,$2,$3,0*%
%AMFreePoly0*
4,1,17,1.515000,0.170000,0.915000,0.170000,0.915000,-0.080000,1.515000,-0.080000,1.515000,-0.480000,0.915000,-0.480000,0.915000,-0.505000,-0.395000,-0.505000,-0.395000,-1.005000,-0.825000,-1.005000,-0.825000,-0.625000,-0.915000,-0.625000,-0.915000,0.505000,0.815000,0.505000,0.815000,0.570000,1.515000,0.570000,1.515000,0.170000,1.515000,0.170000,$1*%
%AMFreePoly1*
4,1,17,-0.395000,0.505000,0.915000,0.505000,0.915000,0.480000,1.515000,0.480000,1.515000,0.080000,0.915000,0.080000,0.915000,-0.170000,1.515000,-0.170000,1.515000,-0.570000,0.815000,-0.570000,0.815000,-0.505000,-0.915000,-0.505000,-0.915000,0.625000,-0.825000,0.625000,-0.825000,1.005000,-0.395000,1.005000,-0.395000,0.505000,-0.395000,0.505000,$1*%
G04 Aperture macros list end*
%ADD10RoundRect,0.225000X0.225000X0.250000X-0.225000X0.250000X-0.225000X-0.250000X0.225000X-0.250000X0*%
%ADD11RoundRect,0.225000X-0.225000X-0.250000X0.225000X-0.250000X0.225000X0.250000X-0.225000X0.250000X0*%
%ADD12C,4.700000*%
%ADD13C,7.500000*%
%ADD14C,1.200000*%
%ADD15RoundRect,0.250000X0.600000X0.750000X-0.600000X0.750000X-0.600000X-0.750000X0.600000X-0.750000X0*%
%ADD16O,1.700000X2.000000*%
%ADD17RoundRect,0.760000X-1.140000X-1.140000X1.140000X-1.140000X1.140000X1.140000X-1.140000X1.140000X0*%
%ADD18C,4.000000*%
%ADD19C,1.700000*%
%ADD20R,1.600000X1.600000*%
%ADD21C,1.600000*%
%ADD22RoundRect,0.250000X-0.750000X0.600000X-0.750000X-0.600000X0.750000X-0.600000X0.750000X0.600000X0*%
%ADD23O,2.000000X1.700000*%
%ADD24RoundRect,0.250000X0.725000X-0.600000X0.725000X0.600000X-0.725000X0.600000X-0.725000X-0.600000X0*%
%ADD25O,1.950000X1.700000*%
%ADD26RoundRect,0.250000X-0.350000X-0.625000X0.350000X-0.625000X0.350000X0.625000X-0.350000X0.625000X0*%
%ADD27O,1.200000X1.750000*%
%ADD28RoundRect,0.250000X0.600000X0.725000X-0.600000X0.725000X-0.600000X-0.725000X0.600000X-0.725000X0*%
%ADD29O,1.700000X1.950000*%
%ADD30RoundRect,0.250000X-1.050000X-0.550000X1.050000X-0.550000X1.050000X0.550000X-1.050000X0.550000X0*%
%ADD31O,2.600000X1.600000*%
%ADD32RoundRect,0.135000X-0.185000X0.135000X-0.185000X-0.135000X0.185000X-0.135000X0.185000X0.135000X0*%
%ADD33RoundRect,0.135000X0.135000X0.185000X-0.135000X0.185000X-0.135000X-0.185000X0.135000X-0.185000X0*%
%ADD34RoundRect,0.135000X-0.135000X-0.185000X0.135000X-0.185000X0.135000X0.185000X-0.135000X0.185000X0*%
%ADD35RoundRect,0.135000X0.185000X-0.135000X0.185000X0.135000X-0.185000X0.135000X-0.185000X-0.135000X0*%
%ADD36RoundRect,0.150000X0.587500X0.150000X-0.587500X0.150000X-0.587500X-0.150000X0.587500X-0.150000X0*%
%ADD37R,0.760000X0.350000*%
%ADD38FreePoly0,0.000000*%
%ADD39FreePoly1,0.000000*%
%ADD40R,1.600000X0.300000*%
%ADD41RoundRect,0.375000X0.375000X-0.625000X0.375000X0.625000X-0.375000X0.625000X-0.375000X-0.625000X0*%
%ADD42RoundRect,0.500000X1.400000X-0.500000X1.400000X0.500000X-1.400000X0.500000X-1.400000X-0.500000X0*%
G04 APERTURE END LIST*
D10*
%TO.C,C2*%
X152945000Y-150300000D03*
X154495000Y-150300000D03*
%TD*%
D11*
%TO.C,C22*%
X156050000Y-131100000D03*
X157600000Y-131100000D03*
%TD*%
%TO.C,C19*%
X148945000Y-139900000D03*
X150495000Y-139900000D03*
%TD*%
D12*
%TO.C,H3*%
X130500000Y-25000000D03*
D13*
X130500000Y-25000000D03*
%TD*%
D12*
%TO.C,H4*%
X175500000Y-25000000D03*
D13*
X175500000Y-25000000D03*
%TD*%
D14*
%TO.C,J8*%
X178000000Y-121000000D03*
D15*
X176400000Y-123000000D03*
D16*
X173900000Y-123000000D03*
%TD*%
D12*
%TO.C,H1*%
X130500000Y-155000000D03*
D13*
X130500000Y-155000000D03*
%TD*%
D17*
%TO.C,J10*%
X151500000Y-154700000D03*
D18*
X156500000Y-154700000D03*
%TD*%
D19*
%TO.C,U2*%
X160550000Y-59290000D03*
X163090000Y-59290000D03*
X165630000Y-59290000D03*
X168170000Y-59290000D03*
X170710000Y-59290000D03*
X173250000Y-59290000D03*
X160550000Y-41510000D03*
X163090000Y-41510000D03*
X165630000Y-41510000D03*
X168170000Y-41510000D03*
X170710000Y-41510000D03*
X173250000Y-41510000D03*
%TD*%
D20*
%TO.C,C1*%
X156202651Y-145800000D03*
D21*
X151202651Y-145800000D03*
%TD*%
D14*
%TO.C,J5*%
X173600000Y-138600000D03*
D22*
X175600000Y-140200000D03*
D23*
X175600000Y-142700000D03*
%TD*%
D14*
%TO.C,J4*%
X130600000Y-138200000D03*
D22*
X132600000Y-139800000D03*
D23*
X132600000Y-142300000D03*
%TD*%
D14*
%TO.C,J2*%
X136075000Y-125400000D03*
D24*
X134075000Y-123800000D03*
D25*
X134075000Y-121300000D03*
X134075000Y-118800000D03*
%TD*%
D26*
%TO.C,J7*%
X156300000Y-25900000D03*
D27*
X158300000Y-25900000D03*
X160300000Y-25900000D03*
X162300000Y-25900000D03*
%TD*%
D19*
%TO.C,U7*%
X159130000Y-81450000D03*
X161670000Y-81450000D03*
X164210000Y-81450000D03*
X166750000Y-81450000D03*
X169290000Y-81450000D03*
X171830000Y-81450000D03*
X174370000Y-81450000D03*
%TD*%
%TO.C,U3*%
X158610000Y-88940000D03*
X158610000Y-91480000D03*
X158610000Y-94020000D03*
X158610000Y-96560000D03*
X158610000Y-99100000D03*
X158610000Y-101640000D03*
X158610000Y-104180000D03*
X158610000Y-106720000D03*
X158610000Y-109260000D03*
%TD*%
D12*
%TO.C,H2*%
X175500000Y-155000000D03*
D13*
X175500000Y-155000000D03*
%TD*%
D19*
%TO.C,U4*%
X130320000Y-101300000D03*
X132860000Y-101300000D03*
X135400000Y-101300000D03*
X137940000Y-101300000D03*
X140480000Y-101300000D03*
X143020000Y-101300000D03*
X145560000Y-101300000D03*
X148100000Y-101300000D03*
%TD*%
D14*
%TO.C,J6*%
X177900000Y-130700000D03*
D15*
X176300000Y-132700000D03*
D16*
X173800000Y-132700000D03*
%TD*%
D14*
%TO.C,J3*%
X138300000Y-130300000D03*
D28*
X136700000Y-132300000D03*
D29*
X134200000Y-132300000D03*
X131700000Y-132300000D03*
%TD*%
D30*
%TO.C,A1*%
X130247500Y-35950000D03*
D31*
X130247500Y-38490000D03*
X130247500Y-41030000D03*
X130247500Y-43570000D03*
X130247500Y-46110000D03*
X130247500Y-48650000D03*
X130247500Y-51190000D03*
X130247500Y-53730000D03*
X130247500Y-56270000D03*
X130247500Y-58810000D03*
X130247500Y-61350000D03*
X130247500Y-63890000D03*
X130247500Y-66430000D03*
X130247500Y-68970000D03*
X130247500Y-71510000D03*
X130247500Y-74050000D03*
X149967500Y-74050000D03*
X149967500Y-71510000D03*
X149967500Y-68970000D03*
X149967500Y-66430000D03*
X149967500Y-63890000D03*
X149967500Y-61350000D03*
X149967500Y-58810000D03*
X149967500Y-56270000D03*
X149967500Y-53730000D03*
X149967500Y-51190000D03*
X149967500Y-48650000D03*
X149967500Y-46110000D03*
%TD*%
D32*
%TO.C,R7*%
X141500000Y-134800000D03*
X141500000Y-135820000D03*
%TD*%
D33*
%TO.C,R20*%
X164500000Y-128100000D03*
X163480000Y-128100000D03*
%TD*%
D34*
%TO.C,R6*%
X145390000Y-133500000D03*
X146410000Y-133500000D03*
%TD*%
D32*
%TO.C,R16*%
X168100000Y-131190000D03*
X168100000Y-132210000D03*
%TD*%
D35*
%TO.C,R5*%
X140900000Y-117400000D03*
X140900000Y-116380000D03*
%TD*%
D36*
%TO.C,Q2*%
X143500000Y-131500000D03*
X143500000Y-133400000D03*
X141625000Y-132450000D03*
%TD*%
%TO.C,Q1*%
X142800000Y-123000000D03*
X142800000Y-124900000D03*
X140925000Y-123950000D03*
%TD*%
D37*
%TO.C,U5*%
X166800000Y-128350000D03*
X166800000Y-127700000D03*
X166800000Y-127050000D03*
X166800000Y-126400000D03*
D38*
X168765000Y-128070000D03*
D39*
X168765000Y-126680000D03*
%TD*%
D40*
%TO.C,U1*%
X158800000Y-32750000D03*
X158800000Y-33400000D03*
X158800000Y-34050000D03*
X158800000Y-34700000D03*
X155400000Y-34700000D03*
X155400000Y-34050000D03*
X155400000Y-33400000D03*
X155400000Y-32750000D03*
%TD*%
D34*
%TO.C,R19*%
X163480000Y-129400000D03*
X164500000Y-129400000D03*
%TD*%
D35*
%TO.C,R10*%
X167600000Y-124410000D03*
X167600000Y-123390000D03*
%TD*%
%TO.C,R21*%
X134500000Y-48110000D03*
X134500000Y-47090000D03*
%TD*%
D33*
%TO.C,R8*%
X164510000Y-126500000D03*
X163490000Y-126500000D03*
%TD*%
D34*
%TO.C,R4*%
X145090000Y-124900000D03*
X146110000Y-124900000D03*
%TD*%
D33*
%TO.C,R17*%
X157910000Y-36200000D03*
X156890000Y-36200000D03*
%TD*%
D32*
%TO.C,R18*%
X166900000Y-131200000D03*
X166900000Y-132220000D03*
%TD*%
D41*
%TO.C,U6*%
X153800000Y-137500000D03*
X151500000Y-137500000D03*
D42*
X151500000Y-131200000D03*
D41*
X149200000Y-137500000D03*
%TD*%
D34*
%TO.C,R9*%
X163490000Y-125100000D03*
X164510000Y-125100000D03*
%TD*%
D32*
%TO.C,R22*%
X134500000Y-44590000D03*
X134500000Y-45610000D03*
%TD*%
D35*
%TO.C,R15*%
X166200000Y-124410000D03*
X166200000Y-123390000D03*
%TD*%
M02*
